G75*
%MOIN*%
%OFA0B0*%
%FSLAX24Y24*%
%IPPOS*%
%LPD*%
%AMOC8*
5,1,8,0,0,1.08239X$1,22.5*
%
%ADD10C,0.0640*%
%ADD11R,0.0820X0.0820*%
%ADD12C,0.0820*%
%ADD13C,0.0680*%
%ADD14R,0.0730X0.0730*%
%ADD15C,0.0730*%
%ADD16C,0.0050*%
%ADD17OC8,0.0820*%
%ADD18OC8,0.0640*%
%ADD19C,0.0760*%
%ADD20C,0.0560*%
%ADD21C,0.0707*%
%ADD22C,0.0721*%
%ADD23C,0.1182*%
%ADD24C,0.1780*%
D10*
X015626Y010900D02*
X015626Y011460D01*
X016626Y011460D02*
X016626Y010900D01*
X017626Y010900D02*
X017626Y011460D01*
X018626Y011460D02*
X018626Y010900D01*
X019626Y010900D02*
X019626Y011460D01*
X020626Y011460D02*
X020626Y010900D01*
X021626Y010900D02*
X021626Y011460D01*
X022626Y011460D02*
X022626Y010900D01*
X023626Y010900D02*
X023626Y011460D01*
X024626Y011460D02*
X024626Y010900D01*
X025626Y010900D02*
X025626Y011460D01*
X026626Y011460D02*
X026626Y010900D01*
X027626Y010900D02*
X027626Y011460D01*
X028626Y011460D02*
X028626Y010900D01*
X028626Y013900D02*
X028626Y014460D01*
X027626Y014460D02*
X027626Y013900D01*
X026626Y013900D02*
X026626Y014460D01*
X025626Y014460D02*
X025626Y013900D01*
X024626Y013900D02*
X024626Y014460D01*
X023626Y014460D02*
X023626Y013900D01*
X022626Y013900D02*
X022626Y014460D01*
X021626Y014460D02*
X021626Y013900D01*
X020626Y013900D02*
X020626Y014460D01*
X019626Y014460D02*
X019626Y013900D01*
X018626Y013900D02*
X018626Y014460D01*
X017626Y014460D02*
X017626Y013900D01*
X016626Y013900D02*
X016626Y014460D01*
X015626Y014460D02*
X015626Y013900D01*
X015906Y022180D02*
X015346Y022180D01*
X015346Y023180D02*
X015906Y023180D01*
X015906Y024180D02*
X015346Y024180D01*
X015346Y025180D02*
X015906Y025180D01*
X015906Y026180D02*
X015346Y026180D01*
X015346Y027180D02*
X015906Y027180D01*
X015906Y028180D02*
X015346Y028180D01*
X012906Y028180D02*
X012346Y028180D01*
X012346Y027180D02*
X012906Y027180D01*
X012906Y026180D02*
X012346Y026180D01*
X012346Y025180D02*
X012906Y025180D01*
X012906Y024180D02*
X012346Y024180D01*
X012346Y023180D02*
X012906Y023180D01*
X012906Y022180D02*
X012346Y022180D01*
X009906Y022180D02*
X009346Y022180D01*
X009346Y023180D02*
X009906Y023180D01*
X009906Y024180D02*
X009346Y024180D01*
X009346Y025180D02*
X009906Y025180D01*
X009906Y026180D02*
X009346Y026180D01*
X009346Y027180D02*
X009906Y027180D01*
X009906Y028180D02*
X009346Y028180D01*
X006906Y028180D02*
X006346Y028180D01*
X006346Y027180D02*
X006906Y027180D01*
X006906Y026180D02*
X006346Y026180D01*
X006346Y025180D02*
X006906Y025180D01*
X006906Y024180D02*
X006346Y024180D01*
X006346Y023180D02*
X006906Y023180D01*
X006906Y022180D02*
X006346Y022180D01*
X018346Y022180D02*
X018906Y022180D01*
X018906Y023180D02*
X018346Y023180D01*
X018346Y024180D02*
X018906Y024180D01*
X018906Y025180D02*
X018346Y025180D01*
X018346Y026180D02*
X018906Y026180D01*
X018906Y027180D02*
X018346Y027180D01*
X018346Y028180D02*
X018906Y028180D01*
X021346Y028180D02*
X021906Y028180D01*
X021906Y027180D02*
X021346Y027180D01*
X021346Y026180D02*
X021906Y026180D01*
X021906Y025180D02*
X021346Y025180D01*
X021346Y024180D02*
X021906Y024180D01*
X021906Y023180D02*
X021346Y023180D01*
X021346Y022180D02*
X021906Y022180D01*
X024346Y022180D02*
X024906Y022180D01*
X024906Y023180D02*
X024346Y023180D01*
X024346Y024180D02*
X024906Y024180D01*
X024906Y025180D02*
X024346Y025180D01*
X024346Y026180D02*
X024906Y026180D01*
X024906Y027180D02*
X024346Y027180D01*
X024346Y028180D02*
X024906Y028180D01*
X027346Y028180D02*
X027906Y028180D01*
X027906Y027180D02*
X027346Y027180D01*
X027346Y026180D02*
X027906Y026180D01*
X027906Y025180D02*
X027346Y025180D01*
X027346Y024180D02*
X027906Y024180D01*
X027906Y023180D02*
X027346Y023180D01*
X027346Y022180D02*
X027906Y022180D01*
D11*
X012626Y003180D03*
X040626Y001180D03*
D12*
X040626Y002180D03*
X040626Y003180D03*
X040626Y004180D03*
X038626Y003180D03*
X037626Y003180D03*
X036626Y003180D03*
X036626Y005180D03*
X037626Y005180D03*
X038626Y005180D03*
X038626Y007180D03*
X037626Y007180D03*
X036626Y007180D03*
X034626Y006180D03*
X034626Y004180D03*
X034626Y002180D03*
X036626Y001180D03*
X037626Y001180D03*
X038626Y001180D03*
X030626Y002180D03*
X030626Y004180D03*
X030626Y006180D03*
X030626Y008180D03*
X034626Y008180D03*
X036626Y010180D03*
X037626Y010180D03*
X039736Y010900D03*
X041516Y010900D03*
X041516Y013460D03*
X039736Y013460D03*
X037626Y013180D03*
X036626Y013180D03*
X021516Y003960D03*
X019736Y003960D03*
X019736Y001400D03*
X021516Y001400D03*
X012626Y004180D03*
X012626Y005180D03*
X009626Y005180D03*
X009626Y006180D03*
X010626Y009180D03*
X014626Y009180D03*
X005626Y007180D03*
X005626Y006180D03*
X005626Y005180D03*
D13*
X012326Y013180D02*
X012926Y013180D01*
X012926Y014180D02*
X012326Y014180D01*
D14*
X015626Y008180D03*
X016626Y003180D03*
D15*
X016626Y005180D03*
X016626Y008180D03*
D16*
X021204Y009109D02*
X021198Y009173D01*
X021203Y009239D01*
X021219Y009303D01*
X021246Y009363D01*
X021283Y009418D01*
X021330Y009465D01*
X021383Y009504D01*
X021443Y009533D01*
X021507Y009550D01*
X021573Y009557D01*
X021638Y009550D01*
X021702Y009532D01*
X021762Y009503D01*
X021815Y009465D01*
X021861Y009417D01*
X021899Y009362D01*
X021926Y009302D01*
X021942Y009238D01*
X021947Y009172D01*
X021939Y009100D01*
X021917Y009031D01*
X021882Y008968D01*
X021836Y008912D01*
X021779Y008867D01*
X021715Y008834D01*
X021646Y008813D01*
X021574Y008807D01*
X021509Y008812D01*
X021446Y008828D01*
X021387Y008854D01*
X021334Y008891D01*
X021288Y008936D01*
X021250Y008988D01*
X021222Y009046D01*
X021204Y009109D01*
X021205Y009104D02*
X021939Y009104D01*
X021944Y009153D02*
X021200Y009153D01*
X021200Y009201D02*
X021944Y009201D01*
X021939Y009250D02*
X021205Y009250D01*
X021218Y009298D02*
X021927Y009298D01*
X021906Y009347D02*
X021239Y009347D01*
X021268Y009395D02*
X021876Y009395D01*
X021836Y009444D02*
X021308Y009444D01*
X021367Y009492D02*
X021777Y009492D01*
X021673Y009541D02*
X021471Y009541D01*
X021219Y009056D02*
X021925Y009056D01*
X021904Y009007D02*
X021241Y009007D01*
X021271Y008959D02*
X021875Y008959D01*
X021833Y008910D02*
X021314Y008910D01*
X021377Y008862D02*
X021769Y008862D01*
X021643Y008813D02*
X021504Y008813D01*
X022324Y009046D02*
X022306Y009109D01*
X022300Y009173D01*
X022305Y009239D01*
X022321Y009303D01*
X022348Y009363D01*
X022386Y009418D01*
X022432Y009465D01*
X022485Y009504D01*
X022545Y009533D01*
X022609Y009550D01*
X022675Y009557D01*
X022740Y009550D01*
X022804Y009532D01*
X022864Y009503D01*
X022917Y009465D01*
X022963Y009417D01*
X023001Y009362D01*
X023028Y009302D01*
X023044Y009238D01*
X023049Y009172D01*
X023041Y009100D01*
X023019Y009031D01*
X022984Y008968D01*
X022938Y008912D01*
X022881Y008867D01*
X022817Y008834D01*
X022748Y008813D01*
X022676Y008807D01*
X022611Y008812D01*
X022548Y008828D01*
X022489Y008854D01*
X022436Y008891D01*
X022390Y008936D01*
X022352Y008988D01*
X022324Y009046D01*
X022321Y009056D02*
X023027Y009056D01*
X023041Y009104D02*
X022307Y009104D01*
X022302Y009153D02*
X023046Y009153D01*
X023047Y009201D02*
X022302Y009201D01*
X022307Y009250D02*
X023041Y009250D01*
X023029Y009298D02*
X022320Y009298D01*
X022341Y009347D02*
X023008Y009347D01*
X022978Y009395D02*
X022370Y009395D01*
X022410Y009444D02*
X022938Y009444D01*
X022879Y009492D02*
X022469Y009492D01*
X022573Y009541D02*
X022775Y009541D01*
X023006Y009007D02*
X022343Y009007D01*
X022373Y008959D02*
X022977Y008959D01*
X022935Y008910D02*
X022416Y008910D01*
X022479Y008862D02*
X022871Y008862D01*
X022745Y008813D02*
X022606Y008813D01*
X022679Y015803D02*
X022613Y015810D01*
X022549Y015828D01*
X022490Y015857D01*
X022436Y015895D01*
X022390Y015943D01*
X022353Y015998D01*
X022326Y016058D01*
X022309Y016122D01*
X022305Y016188D01*
X022312Y016260D01*
X022334Y016329D01*
X022369Y016392D01*
X022415Y016448D01*
X022472Y016493D01*
X022536Y016526D01*
X022606Y016547D01*
X022678Y016553D01*
X022742Y016548D01*
X022805Y016532D01*
X022864Y016506D01*
X022917Y016469D01*
X022964Y016424D01*
X023001Y016372D01*
X023029Y016314D01*
X023047Y016251D01*
X023054Y016187D01*
X023049Y016121D01*
X023032Y016057D01*
X023005Y015997D01*
X022968Y015942D01*
X022921Y015895D01*
X022868Y015856D01*
X022808Y015827D01*
X022744Y015810D01*
X022679Y015803D01*
X022512Y015846D02*
X022846Y015846D01*
X022921Y015894D02*
X022438Y015894D01*
X022390Y015943D02*
X022968Y015943D01*
X023001Y015991D02*
X022357Y015991D01*
X022334Y016040D02*
X023024Y016040D01*
X023040Y016088D02*
X022318Y016088D01*
X022308Y016137D02*
X023050Y016137D01*
X023053Y016185D02*
X022305Y016185D01*
X022310Y016234D02*
X023049Y016234D01*
X023038Y016282D02*
X022319Y016282D01*
X022335Y016331D02*
X023021Y016331D01*
X022996Y016379D02*
X022362Y016379D01*
X022398Y016428D02*
X022960Y016428D01*
X022907Y016476D02*
X022451Y016476D01*
X022532Y016525D02*
X022822Y016525D01*
X021936Y016282D02*
X021217Y016282D01*
X021210Y016260D02*
X021232Y016329D01*
X021267Y016392D01*
X021313Y016448D01*
X021370Y016493D01*
X021434Y016526D01*
X021504Y016547D01*
X021576Y016553D01*
X021640Y016548D01*
X021703Y016532D01*
X021762Y016506D01*
X021815Y016469D01*
X021862Y016424D01*
X021899Y016372D01*
X021927Y016314D01*
X021945Y016251D01*
X021952Y016187D01*
X021947Y016121D01*
X021930Y016057D01*
X021903Y015997D01*
X021866Y015942D01*
X021819Y015895D01*
X021766Y015856D01*
X021706Y015827D01*
X021642Y015810D01*
X021577Y015803D01*
X021511Y015810D01*
X021447Y015828D01*
X021388Y015857D01*
X021334Y015895D01*
X021288Y015943D01*
X021251Y015998D01*
X021224Y016058D01*
X021207Y016122D01*
X021203Y016188D01*
X021210Y016260D01*
X021208Y016234D02*
X021947Y016234D01*
X021951Y016185D02*
X021203Y016185D01*
X021206Y016137D02*
X021948Y016137D01*
X021938Y016088D02*
X021216Y016088D01*
X021232Y016040D02*
X021922Y016040D01*
X021899Y015991D02*
X021255Y015991D01*
X021288Y015943D02*
X021866Y015943D01*
X021819Y015894D02*
X021336Y015894D01*
X021410Y015846D02*
X021744Y015846D01*
X021919Y016331D02*
X021233Y016331D01*
X021260Y016379D02*
X021894Y016379D01*
X021858Y016428D02*
X021296Y016428D01*
X021349Y016476D02*
X021805Y016476D01*
X021720Y016525D02*
X021430Y016525D01*
X023003Y021773D02*
X022942Y021801D01*
X022888Y021838D01*
X022840Y021884D01*
X022802Y021938D01*
X022773Y021997D01*
X022755Y022061D01*
X022749Y022127D01*
X022755Y022193D01*
X022773Y022256D01*
X022802Y022316D01*
X022841Y022370D01*
X022888Y022416D01*
X022943Y022453D01*
X023003Y022480D01*
X023068Y022496D01*
X023134Y022501D01*
X023206Y022493D01*
X023275Y022471D01*
X023338Y022437D01*
X023393Y022390D01*
X023439Y022334D01*
X023472Y022270D01*
X023492Y022200D01*
X023499Y022128D01*
X023494Y022063D01*
X023478Y022001D01*
X023451Y021942D01*
X023415Y021888D01*
X023370Y021842D01*
X023317Y021804D01*
X023259Y021776D01*
X023197Y021759D01*
X023133Y021752D01*
X023067Y021757D01*
X023003Y021773D01*
X023045Y021763D02*
X023211Y021763D01*
X023327Y021811D02*
X022927Y021811D01*
X022865Y021860D02*
X023387Y021860D01*
X023428Y021908D02*
X022823Y021908D01*
X022793Y021957D02*
X023458Y021957D01*
X023479Y022005D02*
X022771Y022005D01*
X022757Y022054D02*
X023491Y022054D01*
X023497Y022102D02*
X022751Y022102D01*
X022751Y022151D02*
X023497Y022151D01*
X023492Y022199D02*
X022757Y022199D01*
X022771Y022248D02*
X023478Y022248D01*
X023458Y022296D02*
X022793Y022296D01*
X022823Y022345D02*
X023430Y022345D01*
X023390Y022393D02*
X022865Y022393D01*
X022926Y022442D02*
X023329Y022442D01*
X023215Y022490D02*
X023043Y022490D01*
X023067Y022859D02*
X023003Y022875D01*
X022942Y022903D01*
X022888Y022940D01*
X022840Y022986D01*
X022802Y023040D01*
X022773Y023099D01*
X022755Y023163D01*
X022749Y023229D01*
X022755Y023295D01*
X022773Y023358D01*
X022802Y023418D01*
X022841Y023472D01*
X022888Y023518D01*
X022943Y023555D01*
X023003Y023582D01*
X023068Y023598D01*
X023134Y023603D01*
X023206Y023595D01*
X023275Y023573D01*
X023338Y023539D01*
X023393Y023492D01*
X023439Y023436D01*
X023472Y023372D01*
X023492Y023302D01*
X023499Y023230D01*
X023494Y023166D01*
X023478Y023103D01*
X023451Y023044D01*
X023415Y022990D01*
X023370Y022944D01*
X023317Y022906D01*
X023259Y022878D01*
X022996Y022878D01*
X023067Y022859D02*
X023133Y022854D01*
X023197Y022861D01*
X023259Y022878D01*
X023346Y022927D02*
X022907Y022927D01*
X022852Y022975D02*
X023400Y022975D01*
X023438Y023024D02*
X022813Y023024D01*
X022786Y023072D02*
X023464Y023072D01*
X023482Y023121D02*
X022767Y023121D01*
X022755Y023169D02*
X023494Y023169D01*
X023498Y023218D02*
X022750Y023218D01*
X022752Y023266D02*
X023495Y023266D01*
X023489Y023315D02*
X022761Y023315D01*
X022776Y023363D02*
X023475Y023363D01*
X023451Y023412D02*
X022799Y023412D01*
X022833Y023460D02*
X023419Y023460D01*
X023374Y023509D02*
X022879Y023509D01*
X022948Y023557D02*
X023304Y023557D01*
X017499Y023230D02*
X017492Y023302D01*
X017472Y023372D01*
X017439Y023436D01*
X017393Y023492D01*
X017338Y023539D01*
X017275Y023573D01*
X017206Y023595D01*
X017134Y023603D01*
X017068Y023598D01*
X017003Y023582D01*
X016943Y023555D01*
X016888Y023518D01*
X016841Y023472D01*
X016802Y023418D01*
X016773Y023358D01*
X016755Y023295D01*
X016749Y023229D01*
X016755Y023163D01*
X016773Y023099D01*
X016802Y023040D01*
X016840Y022986D01*
X016888Y022940D01*
X016942Y022903D01*
X017003Y022875D01*
X017067Y022859D01*
X017133Y022854D01*
X017197Y022861D01*
X017259Y022878D01*
X016996Y022878D01*
X016907Y022927D02*
X017346Y022927D01*
X017370Y022944D02*
X017317Y022906D01*
X017259Y022878D01*
X017370Y022944D02*
X017415Y022990D01*
X017451Y023044D01*
X017478Y023103D01*
X017494Y023166D01*
X017499Y023230D01*
X017498Y023218D02*
X016750Y023218D01*
X016752Y023266D02*
X017495Y023266D01*
X017489Y023315D02*
X016761Y023315D01*
X016776Y023363D02*
X017475Y023363D01*
X017451Y023412D02*
X016799Y023412D01*
X016833Y023460D02*
X017419Y023460D01*
X017374Y023509D02*
X016879Y023509D01*
X016948Y023557D02*
X017304Y023557D01*
X017494Y023169D02*
X016755Y023169D01*
X016767Y023121D02*
X017482Y023121D01*
X017464Y023072D02*
X016786Y023072D01*
X016813Y023024D02*
X017438Y023024D01*
X017400Y022975D02*
X016852Y022975D01*
X017003Y022480D02*
X017068Y022496D01*
X017134Y022501D01*
X017206Y022493D01*
X017275Y022471D01*
X017338Y022437D01*
X017393Y022390D01*
X017439Y022334D01*
X017472Y022270D01*
X017492Y022200D01*
X017499Y022128D01*
X017494Y022063D01*
X017478Y022001D01*
X017451Y021942D01*
X017415Y021888D01*
X017370Y021842D01*
X017317Y021804D01*
X017259Y021776D01*
X017197Y021759D01*
X017133Y021752D01*
X017067Y021757D01*
X017003Y021773D01*
X016942Y021801D01*
X016888Y021838D01*
X016840Y021884D01*
X016802Y021938D01*
X016773Y021997D01*
X016755Y022061D01*
X016749Y022127D01*
X016755Y022193D01*
X016773Y022256D01*
X016802Y022316D01*
X016841Y022370D01*
X016888Y022416D01*
X016943Y022453D01*
X017003Y022480D01*
X017043Y022490D02*
X017215Y022490D01*
X017329Y022442D02*
X016926Y022442D01*
X016865Y022393D02*
X017390Y022393D01*
X017430Y022345D02*
X016823Y022345D01*
X016793Y022296D02*
X017458Y022296D01*
X017478Y022248D02*
X016771Y022248D01*
X016757Y022199D02*
X017492Y022199D01*
X017497Y022151D02*
X016751Y022151D01*
X016751Y022102D02*
X017497Y022102D01*
X017491Y022054D02*
X016757Y022054D01*
X016771Y022005D02*
X017479Y022005D01*
X017458Y021957D02*
X016793Y021957D01*
X016823Y021908D02*
X017428Y021908D01*
X017387Y021860D02*
X016865Y021860D01*
X016927Y021811D02*
X017327Y021811D01*
X017211Y021763D02*
X017045Y021763D01*
X011499Y022128D02*
X011492Y022200D01*
X011472Y022270D01*
X011439Y022334D01*
X011393Y022390D01*
X011338Y022437D01*
X011275Y022471D01*
X011206Y022493D01*
X011134Y022501D01*
X011068Y022496D01*
X011003Y022480D01*
X010943Y022453D01*
X010888Y022416D01*
X010841Y022370D01*
X010802Y022316D01*
X010773Y022256D01*
X010755Y022193D01*
X010749Y022127D01*
X010755Y022061D01*
X010773Y021997D01*
X010802Y021938D01*
X010840Y021884D01*
X010888Y021838D01*
X010942Y021801D01*
X011003Y021773D01*
X011067Y021757D01*
X011133Y021752D01*
X011197Y021759D01*
X011259Y021776D01*
X011317Y021804D01*
X011370Y021842D01*
X011415Y021888D01*
X011451Y021942D01*
X011478Y022001D01*
X011494Y022063D01*
X011499Y022128D01*
X011497Y022151D02*
X010751Y022151D01*
X010757Y022199D02*
X011492Y022199D01*
X011478Y022248D02*
X010771Y022248D01*
X010793Y022296D02*
X011458Y022296D01*
X011430Y022345D02*
X010823Y022345D01*
X010865Y022393D02*
X011390Y022393D01*
X011329Y022442D02*
X010926Y022442D01*
X011043Y022490D02*
X011215Y022490D01*
X011197Y022861D02*
X011133Y022854D01*
X011067Y022859D01*
X011003Y022875D01*
X010942Y022903D01*
X010888Y022940D01*
X010840Y022986D01*
X010802Y023040D01*
X010773Y023099D01*
X010755Y023163D01*
X010749Y023229D01*
X010755Y023295D01*
X010773Y023358D01*
X010802Y023418D01*
X010841Y023472D01*
X010888Y023518D01*
X010943Y023555D01*
X011003Y023582D01*
X011068Y023598D01*
X011134Y023603D01*
X011206Y023595D01*
X011275Y023573D01*
X011338Y023539D01*
X011393Y023492D01*
X011439Y023436D01*
X011472Y023372D01*
X011492Y023302D01*
X011499Y023230D01*
X011494Y023166D01*
X011478Y023103D01*
X011451Y023044D01*
X011415Y022990D01*
X011370Y022944D01*
X011317Y022906D01*
X011259Y022878D01*
X010996Y022878D01*
X010907Y022927D02*
X011346Y022927D01*
X011400Y022975D02*
X010852Y022975D01*
X010813Y023024D02*
X011438Y023024D01*
X011464Y023072D02*
X010786Y023072D01*
X010767Y023121D02*
X011482Y023121D01*
X011494Y023169D02*
X010755Y023169D01*
X010750Y023218D02*
X011498Y023218D01*
X011495Y023266D02*
X010752Y023266D01*
X010761Y023315D02*
X011489Y023315D01*
X011475Y023363D02*
X010776Y023363D01*
X010799Y023412D02*
X011451Y023412D01*
X011419Y023460D02*
X010833Y023460D01*
X010879Y023509D02*
X011374Y023509D01*
X011304Y023557D02*
X010948Y023557D01*
X011197Y022861D02*
X011259Y022878D01*
X011497Y022102D02*
X010751Y022102D01*
X010757Y022054D02*
X011491Y022054D01*
X011479Y022005D02*
X010771Y022005D01*
X010793Y021957D02*
X011458Y021957D01*
X011428Y021908D02*
X010823Y021908D01*
X010865Y021860D02*
X011387Y021860D01*
X011327Y021811D02*
X010927Y021811D01*
X011045Y021763D02*
X011211Y021763D01*
X005499Y022128D02*
X005492Y022200D01*
X005472Y022270D01*
X005439Y022334D01*
X005393Y022390D01*
X005338Y022437D01*
X005275Y022471D01*
X005206Y022493D01*
X005134Y022501D01*
X005068Y022496D01*
X005003Y022480D01*
X004943Y022453D01*
X004888Y022416D01*
X004841Y022370D01*
X004802Y022316D01*
X004773Y022256D01*
X004755Y022193D01*
X004749Y022127D01*
X004755Y022061D01*
X004773Y021997D01*
X004802Y021938D01*
X004840Y021884D01*
X004888Y021838D01*
X004942Y021801D01*
X005003Y021773D01*
X005067Y021757D01*
X005133Y021752D01*
X005197Y021759D01*
X005259Y021776D01*
X005317Y021804D01*
X005370Y021842D01*
X005415Y021888D01*
X005451Y021942D01*
X005478Y022001D01*
X005494Y022063D01*
X005499Y022128D01*
X005497Y022151D02*
X004751Y022151D01*
X004757Y022199D02*
X005492Y022199D01*
X005478Y022248D02*
X004771Y022248D01*
X004793Y022296D02*
X005458Y022296D01*
X005430Y022345D02*
X004823Y022345D01*
X004865Y022393D02*
X005390Y022393D01*
X005329Y022442D02*
X004926Y022442D01*
X005043Y022490D02*
X005215Y022490D01*
X005197Y022861D02*
X005133Y022854D01*
X005067Y022859D01*
X005003Y022875D01*
X004942Y022903D01*
X004888Y022940D01*
X004840Y022986D01*
X004802Y023040D01*
X004773Y023099D01*
X004755Y023163D01*
X004749Y023229D01*
X004755Y023295D01*
X004773Y023358D01*
X004802Y023418D01*
X004841Y023472D01*
X004888Y023518D01*
X004943Y023555D01*
X005003Y023582D01*
X005068Y023598D01*
X005134Y023603D01*
X005206Y023595D01*
X005275Y023573D01*
X005338Y023539D01*
X005393Y023492D01*
X005439Y023436D01*
X005472Y023372D01*
X005492Y023302D01*
X005499Y023230D01*
X005494Y023166D01*
X005478Y023103D01*
X005451Y023044D01*
X005415Y022990D01*
X005370Y022944D01*
X005317Y022906D01*
X005259Y022878D01*
X004996Y022878D01*
X004907Y022927D02*
X005346Y022927D01*
X005400Y022975D02*
X004852Y022975D01*
X004813Y023024D02*
X005438Y023024D01*
X005464Y023072D02*
X004786Y023072D01*
X004767Y023121D02*
X005482Y023121D01*
X005494Y023169D02*
X004755Y023169D01*
X004750Y023218D02*
X005498Y023218D01*
X005495Y023266D02*
X004752Y023266D01*
X004761Y023315D02*
X005489Y023315D01*
X005475Y023363D02*
X004776Y023363D01*
X004799Y023412D02*
X005451Y023412D01*
X005419Y023460D02*
X004833Y023460D01*
X004879Y023509D02*
X005374Y023509D01*
X005304Y023557D02*
X004948Y023557D01*
X005197Y022861D02*
X005259Y022878D01*
X005497Y022102D02*
X004751Y022102D01*
X004757Y022054D02*
X005491Y022054D01*
X005479Y022005D02*
X004771Y022005D01*
X004793Y021957D02*
X005458Y021957D01*
X005428Y021908D02*
X004823Y021908D01*
X004865Y021860D02*
X005387Y021860D01*
X005327Y021811D02*
X004927Y021811D01*
X005045Y021763D02*
X005211Y021763D01*
D17*
X023626Y003180D03*
X024626Y003180D03*
X025626Y003180D03*
X025626Y002180D03*
X024626Y002180D03*
X023626Y002180D03*
X035626Y021180D03*
X036626Y021180D03*
X036626Y022180D03*
X035626Y022180D03*
X035626Y023180D03*
X036626Y023180D03*
X036626Y024180D03*
X035626Y024180D03*
X035626Y025180D03*
X036626Y025180D03*
X036626Y026180D03*
X036626Y027180D03*
X035626Y027180D03*
X035626Y026180D03*
X035626Y028180D03*
X036626Y028180D03*
D18*
X037626Y028180D03*
X037626Y027180D03*
X037626Y026180D03*
X037626Y025180D03*
X037626Y024180D03*
X037626Y023180D03*
X037626Y022180D03*
X037626Y021180D03*
X034626Y021180D03*
X034626Y022180D03*
X034626Y023180D03*
X034626Y024180D03*
X034626Y025180D03*
X034626Y026180D03*
X034626Y027180D03*
X034626Y028180D03*
X030626Y028180D03*
X030626Y027180D03*
X030626Y026180D03*
X030626Y025180D03*
X030626Y024180D03*
X030626Y023180D03*
X030626Y022180D03*
X030626Y021180D03*
X030626Y013180D03*
X030626Y010180D03*
X034626Y010180D03*
X034626Y013180D03*
X041626Y021180D03*
X041626Y022180D03*
X041626Y023180D03*
X041626Y024180D03*
X041626Y025180D03*
X041626Y026180D03*
X041626Y027180D03*
X041626Y028180D03*
X024626Y008180D03*
X024626Y004180D03*
D19*
X005626Y002180D03*
X009626Y002180D03*
D20*
X017626Y015940D02*
X017626Y016420D01*
X019626Y016420D02*
X019626Y015940D01*
D21*
X019626Y018180D03*
X017626Y018180D03*
D22*
X017626Y019180D03*
X019626Y019180D03*
D23*
X005626Y019180D03*
X028126Y002180D03*
X040626Y017180D03*
D24*
X009519Y013180D03*
X008338Y011330D03*
X007157Y013180D03*
M02*
