%
M48
M72
T01C0.0200
T02C0.0240
T03C0.0276
T04C0.0320
T05C0.0354
T06C0.0360
T07C0.0394
T08C0.0400
T09C0.0440
T10C0.1102
T11C0.1180
%
T01
X24426Y20880
X24926Y20880
X25826Y20880
X28526Y27680
X25126Y29180
X17126Y28180
X11126Y28680
X11126Y29680
X28926Y7880
X28126Y6680
X27126Y5680
T02
X19626Y16180
X17626Y16180
T03
X17626Y18180
X17626Y19180
X19626Y19180
X19626Y18180
X16626Y8180
X15626Y8180
X16626Y5180
X16626Y3180
T04
X9626Y5180
X9626Y6180
X15626Y11180
X16626Y11180
X17626Y11180
X18626Y11180
X19626Y11180
X20626Y11180
X21626Y11180
X22626Y11180
X23626Y11180
X24626Y11180
X25626Y11180
X26626Y11180
X27626Y11180
X28626Y11180
X30626Y10180
X30626Y13180
X28626Y14180
X27626Y14180
X26626Y14180
X25626Y14180
X24626Y14180
X23626Y14180
X22626Y14180
X21626Y14180
X20626Y14180
X19626Y14180
X18626Y14180
X17626Y14180
X16626Y14180
X15626Y14180
X24626Y8180
X24626Y4180
X34626Y10180
X36626Y10180
X37626Y10180
X37626Y7180
X36626Y7180
X38626Y7180
X38626Y5180
X37626Y5180
X36626Y5180
X36626Y3180
X37626Y3180
X38626Y3180
X38626Y1180
X37626Y1180
X36626Y1180
X36626Y13180
X37626Y13180
X34626Y13180
X34626Y21180
X34626Y22180
X34626Y23180
X34626Y24180
X34626Y25180
X34626Y26180
X34626Y27180
X34626Y28180
X37626Y28180
X37626Y27180
X37626Y26180
X37626Y25180
X37626Y24180
X37626Y23180
X37626Y22180
X37626Y21180
X41626Y21180
X41626Y22180
X41626Y23180
X41626Y24180
X41626Y25180
X41626Y26180
X41626Y27180
X41626Y28180
X30626Y28180
X30626Y27180
X30626Y26180
X30626Y25180
X30626Y24180
X30626Y23180
X30626Y22180
X30626Y21180
X27626Y22180
X27626Y23180
X27626Y24180
X27626Y25180
X27626Y26180
X27626Y27180
X27626Y28180
X24626Y28180
X24626Y27180
X24626Y26180
X24626Y25180
X24626Y24180
X24626Y23180
X24626Y22180
X21626Y22180
X21626Y23180
X21626Y24180
X21626Y25180
X21626Y26180
X21626Y27180
X21626Y28180
X18626Y28180
X18626Y27180
X18626Y26180
X18626Y25180
X18626Y24180
X18626Y23180
X18626Y22180
X15626Y22180
X15626Y23180
X15626Y24180
X15626Y25180
X15626Y26180
X15626Y27180
X15626Y28180
X12626Y28180
X12626Y27180
X12626Y26180
X12626Y25180
X12626Y24180
X12626Y23180
X12626Y22180
X9626Y22180
X9626Y23180
X9626Y24180
X9626Y25180
X9626Y26180
X9626Y27180
X9626Y28180
X6626Y28180
X6626Y27180
X6626Y26180
X6626Y25180
X6626Y24180
X6626Y23180
X6626Y22180
T05
X10626Y9180
X14626Y9180
X30626Y8180
X30626Y6180
X30626Y4180
X30626Y2180
X34626Y2180
X34626Y4180
X34626Y6180
X34626Y8180
T06
X12626Y13180
X12626Y14180
T07
X12626Y5180
X12626Y4180
X12626Y3180
T08
X5626Y5180
X5626Y6180
X5626Y7180
X19736Y3960
X21516Y3960
X23626Y3180
X24626Y3180
X25626Y3180
X25626Y2180
X24626Y2180
X23626Y2180
X21516Y1400
X19736Y1400
X21576Y9180
X22676Y9180
X22676Y16180
X21576Y16180
X23126Y22130
X23126Y23230
X17126Y23230
X17126Y22130
X11126Y22130
X11126Y23230
X5126Y23230
X5126Y22130
X35626Y22180
X36626Y22180
X36626Y21180
X35626Y21180
X35626Y23180
X36626Y23180
X36626Y24180
X35626Y24180
X35626Y25180
X36626Y25180
X36626Y26180
X36626Y27180
X35626Y27180
X35626Y26180
X35626Y28180
X36626Y28180
X39736Y13460
X41516Y13460
X41516Y10900
X39736Y10900
X40626Y4180
X40626Y3180
X40626Y2180
X40626Y1180
T09
X5626Y2180
X9626Y2180
T10
X28126Y2180
X40626Y17180
X5626Y19180
T11
X7157Y13180
X8338Y11330
X9519Y13180
M30
