G75*
%MOIN*%
%OFA0B0*%
%FSLAX24Y24*%
%IPPOS*%
%LPD*%
%AMOC8*
5,1,8,0,0,1.08239X$1,22.5*
%
%ADD10C,0.0080*%
%ADD11C,0.0110*%
%ADD12C,0.0040*%
%ADD13C,0.0060*%
%ADD14C,0.0100*%
%ADD15C,0.0050*%
%ADD16R,0.0240X0.0340*%
%ADD17R,0.0340X0.0240*%
%ADD18C,0.0010*%
%ADD19C,0.0008*%
%ADD20R,0.0200X0.1000*%
%ADD21R,0.0750X0.0300*%
%ADD22C,0.0020*%
D10*
X004769Y003891D02*
X004769Y008469D01*
X006482Y008469D01*
X006482Y003891D01*
X004769Y003891D01*
X006666Y004790D02*
X006736Y004720D01*
X006876Y004720D01*
X006946Y004790D01*
X006946Y005070D01*
X006876Y005140D01*
X006736Y005140D01*
X006666Y005070D01*
X006666Y004790D01*
X007126Y004720D02*
X007126Y005140D01*
X007406Y004720D01*
X007406Y005140D01*
X007503Y008220D02*
X007503Y008570D01*
X007573Y008640D01*
X007573Y008430D02*
X007433Y008430D01*
X007266Y008430D02*
X007126Y008430D01*
X007196Y008570D02*
X007196Y008220D01*
X006946Y008290D02*
X006946Y008570D01*
X006876Y008640D01*
X006736Y008640D01*
X006666Y008570D01*
X006666Y008290D01*
X006736Y008220D01*
X006876Y008220D01*
X006946Y008290D01*
X007196Y008570D02*
X007266Y008640D01*
X007297Y010470D02*
X007086Y010470D01*
X007086Y010890D01*
X007297Y010890D01*
X007367Y010820D01*
X007367Y010540D01*
X007297Y010470D01*
X006906Y010470D02*
X006906Y010890D01*
X006626Y010890D02*
X006626Y010470D01*
X006446Y010540D02*
X006446Y010680D01*
X006306Y010680D01*
X006446Y010540D02*
X006376Y010470D01*
X006236Y010470D01*
X006166Y010540D01*
X006166Y010820D01*
X006236Y010890D01*
X006376Y010890D01*
X006446Y010820D01*
X006626Y010890D02*
X006906Y010470D01*
X007393Y011408D02*
X005307Y011408D01*
X005307Y014952D01*
X009519Y014952D01*
X009519Y014125D01*
X009125Y015220D02*
X008985Y015360D01*
X008985Y015640D01*
X008805Y015640D02*
X008524Y015640D01*
X008524Y015430D01*
X008665Y015500D01*
X008735Y015500D01*
X008805Y015430D01*
X008805Y015290D01*
X008735Y015220D01*
X008595Y015220D01*
X008524Y015290D01*
X008344Y015220D02*
X008064Y015220D01*
X008204Y015220D02*
X008204Y015640D01*
X008064Y015500D01*
X007884Y015430D02*
X007604Y015430D01*
X007424Y015360D02*
X007424Y015290D01*
X007353Y015220D01*
X007213Y015220D01*
X007143Y015290D01*
X007143Y015360D01*
X007213Y015430D01*
X007353Y015430D01*
X007424Y015360D01*
X007353Y015430D02*
X007424Y015500D01*
X007424Y015570D01*
X007353Y015640D01*
X007213Y015640D01*
X007143Y015570D01*
X007143Y015500D01*
X007213Y015430D01*
X006503Y015430D02*
X006503Y015220D01*
X006503Y015430D02*
X006433Y015500D01*
X006223Y015500D01*
X006223Y015220D01*
X006056Y015220D02*
X005916Y015220D01*
X005986Y015220D02*
X005986Y015500D01*
X005916Y015500D01*
X005986Y015640D02*
X005986Y015710D01*
X009125Y015220D02*
X009265Y015360D01*
X009265Y015640D01*
X011166Y014390D02*
X011166Y014180D01*
X011306Y014250D01*
X011376Y014250D01*
X011446Y014180D01*
X011446Y014040D01*
X011376Y013970D01*
X011236Y013970D01*
X011166Y014040D01*
X011166Y014390D02*
X011446Y014390D01*
X011626Y014390D02*
X011626Y014110D01*
X011766Y013970D01*
X011906Y014110D01*
X011906Y014390D01*
X011797Y013390D02*
X011586Y013390D01*
X011586Y012970D01*
X011797Y012970D01*
X011867Y013040D01*
X011867Y013320D01*
X011797Y013390D01*
X011406Y013390D02*
X011406Y012970D01*
X011126Y013390D01*
X011126Y012970D01*
X010946Y013040D02*
X010946Y013180D01*
X010806Y013180D01*
X010946Y013040D02*
X010876Y012970D01*
X010736Y012970D01*
X010666Y013040D01*
X010666Y013320D01*
X010736Y013390D01*
X010876Y013390D01*
X010946Y013320D01*
X009519Y012235D02*
X009519Y011408D01*
X009244Y011408D01*
X011385Y009652D02*
X013866Y009652D01*
X013866Y008708D01*
X011385Y008708D01*
X011385Y009652D01*
X015126Y011480D02*
X015226Y011480D01*
X015126Y011480D02*
X015126Y013880D01*
X015226Y013880D01*
X017126Y017680D02*
X018126Y017680D01*
X018126Y019680D01*
X017126Y019680D01*
X017126Y017680D01*
X017376Y018680D02*
X017876Y018680D01*
X019126Y019680D02*
X020126Y019680D01*
X020126Y017680D01*
X019126Y017680D01*
X019126Y019680D01*
X019376Y018680D02*
X019876Y018680D01*
X019915Y022470D02*
X019915Y022750D01*
X019985Y022750D01*
X020266Y022470D01*
X020336Y022470D01*
X020125Y022930D02*
X020125Y023211D01*
X020125Y023391D02*
X020125Y023671D01*
X019915Y023671D02*
X020336Y023671D01*
X020266Y023851D02*
X020336Y023921D01*
X020336Y024061D01*
X020266Y024131D01*
X020336Y024312D02*
X020336Y024592D01*
X020336Y024452D02*
X019915Y024452D01*
X020055Y024312D01*
X019985Y024131D02*
X019915Y024061D01*
X019915Y023921D01*
X019985Y023851D01*
X020266Y023851D01*
X020336Y023391D02*
X019915Y023391D01*
X019915Y023141D02*
X020125Y022930D01*
X019915Y023141D02*
X020336Y023141D01*
X020266Y024772D02*
X020336Y024842D01*
X020336Y024982D01*
X020266Y025052D01*
X020195Y025052D01*
X020125Y024982D01*
X020125Y024772D01*
X020266Y024772D01*
X020125Y024772D02*
X019985Y024912D01*
X019915Y025052D01*
X020125Y025232D02*
X020125Y025513D01*
X019915Y025443D02*
X020336Y025443D01*
X020336Y025693D02*
X019915Y025693D01*
X020336Y025973D01*
X019915Y025973D01*
X019915Y025443D02*
X020125Y025232D01*
X025915Y025052D02*
X025985Y024912D01*
X026125Y024772D01*
X026125Y024982D01*
X026195Y025052D01*
X026266Y025052D01*
X026336Y024982D01*
X026336Y024842D01*
X026266Y024772D01*
X026125Y024772D01*
X026336Y024592D02*
X026336Y024312D01*
X026336Y024452D02*
X025915Y024452D01*
X026055Y024312D01*
X025985Y024131D02*
X025915Y024061D01*
X025915Y023921D01*
X025985Y023851D01*
X026266Y023851D01*
X026336Y023921D01*
X026336Y024061D01*
X026266Y024131D01*
X026336Y023671D02*
X025915Y023671D01*
X026125Y023671D02*
X026125Y023391D01*
X026125Y023211D02*
X026125Y022930D01*
X025915Y023141D01*
X026336Y023141D01*
X026336Y023391D02*
X025915Y023391D01*
X025915Y022750D02*
X025985Y022750D01*
X026266Y022470D01*
X026336Y022470D01*
X025915Y022470D02*
X025915Y022750D01*
X026125Y025232D02*
X026125Y025513D01*
X025915Y025443D02*
X026336Y025443D01*
X026336Y025693D02*
X025915Y025693D01*
X026336Y025973D01*
X025915Y025973D01*
X025915Y025443D02*
X026125Y025232D01*
X034022Y029790D02*
X034092Y029720D01*
X034232Y029720D01*
X034302Y029790D01*
X034482Y029790D02*
X034553Y029720D01*
X034693Y029720D01*
X034763Y029790D01*
X034763Y030140D01*
X034943Y030140D02*
X035153Y030140D01*
X035223Y030070D01*
X035223Y030000D01*
X035153Y029930D01*
X034943Y029930D01*
X034943Y029720D02*
X035153Y029720D01*
X035223Y029790D01*
X035223Y029860D01*
X035153Y029930D01*
X035403Y029930D02*
X035543Y029930D01*
X035403Y029720D02*
X035683Y029720D01*
X035403Y029720D02*
X035403Y030140D01*
X035683Y030140D01*
X036324Y030070D02*
X036324Y029790D01*
X036394Y029720D01*
X036534Y029720D01*
X036604Y029790D01*
X036784Y029790D02*
X036854Y029720D01*
X036995Y029720D01*
X037065Y029790D01*
X037065Y030070D01*
X036995Y030140D01*
X036854Y030140D01*
X036784Y030070D01*
X036784Y029790D01*
X036604Y030070D02*
X036534Y030140D01*
X036394Y030140D01*
X036324Y030070D01*
X037245Y030140D02*
X037245Y029720D01*
X037525Y029720D01*
X037705Y029790D02*
X037775Y029720D01*
X037915Y029720D01*
X037985Y029790D01*
X037985Y029860D01*
X037915Y029930D01*
X037775Y029930D01*
X037705Y030000D01*
X037705Y030070D01*
X037775Y030140D01*
X037915Y030140D01*
X037985Y030070D01*
X034943Y030140D02*
X034943Y029720D01*
X034482Y029790D02*
X034482Y030140D01*
X034302Y030070D02*
X034232Y030140D01*
X034092Y030140D01*
X034022Y030070D01*
X034022Y029790D01*
X037306Y020140D02*
X037306Y019720D01*
X037166Y019720D02*
X037446Y019720D01*
X037166Y020000D02*
X037306Y020140D01*
X040035Y017180D02*
X040037Y017228D01*
X040043Y017276D01*
X040053Y017323D01*
X040066Y017369D01*
X040084Y017414D01*
X040104Y017458D01*
X040129Y017500D01*
X040157Y017539D01*
X040187Y017576D01*
X040221Y017610D01*
X040258Y017642D01*
X040296Y017671D01*
X040337Y017696D01*
X040380Y017718D01*
X040425Y017736D01*
X040471Y017750D01*
X040518Y017761D01*
X040566Y017768D01*
X040614Y017771D01*
X040662Y017770D01*
X040710Y017765D01*
X040758Y017756D01*
X040804Y017744D01*
X040849Y017727D01*
X040893Y017707D01*
X040935Y017684D01*
X040975Y017657D01*
X041013Y017627D01*
X041048Y017594D01*
X041080Y017558D01*
X041110Y017520D01*
X041136Y017479D01*
X041158Y017436D01*
X041178Y017392D01*
X041193Y017347D01*
X041205Y017300D01*
X041213Y017252D01*
X041217Y017204D01*
X041217Y017156D01*
X041213Y017108D01*
X041205Y017060D01*
X041193Y017013D01*
X041178Y016968D01*
X041158Y016924D01*
X041136Y016881D01*
X041110Y016840D01*
X041080Y016802D01*
X041048Y016766D01*
X041013Y016733D01*
X040975Y016703D01*
X040935Y016676D01*
X040893Y016653D01*
X040849Y016633D01*
X040804Y016616D01*
X040758Y016604D01*
X040710Y016595D01*
X040662Y016590D01*
X040614Y016589D01*
X040566Y016592D01*
X040518Y016599D01*
X040471Y016610D01*
X040425Y016624D01*
X040380Y016642D01*
X040337Y016664D01*
X040296Y016689D01*
X040258Y016718D01*
X040221Y016750D01*
X040187Y016784D01*
X040157Y016821D01*
X040129Y016860D01*
X040104Y016902D01*
X040084Y016946D01*
X040066Y016991D01*
X040053Y017037D01*
X040043Y017084D01*
X040037Y017132D01*
X040035Y017180D01*
X038126Y013930D02*
X038126Y012430D01*
X039426Y013030D02*
X039426Y011330D01*
X040221Y010980D02*
X041026Y010980D01*
X041826Y011330D02*
X041826Y013030D01*
X041026Y013380D02*
X040233Y013380D01*
X039926Y012180D02*
X039928Y012232D01*
X039934Y012284D01*
X039944Y012336D01*
X039957Y012386D01*
X039974Y012436D01*
X039995Y012484D01*
X040020Y012530D01*
X040048Y012574D01*
X040079Y012616D01*
X040113Y012656D01*
X040150Y012693D01*
X040190Y012727D01*
X040232Y012758D01*
X040276Y012786D01*
X040322Y012811D01*
X040370Y012832D01*
X040420Y012849D01*
X040470Y012862D01*
X040522Y012872D01*
X040574Y012878D01*
X040626Y012880D01*
X040678Y012878D01*
X040730Y012872D01*
X040782Y012862D01*
X040832Y012849D01*
X040882Y012832D01*
X040930Y012811D01*
X040976Y012786D01*
X041020Y012758D01*
X041062Y012727D01*
X041102Y012693D01*
X041139Y012656D01*
X041173Y012616D01*
X041204Y012574D01*
X041232Y012530D01*
X041257Y012484D01*
X041278Y012436D01*
X041295Y012386D01*
X041308Y012336D01*
X041318Y012284D01*
X041324Y012232D01*
X041326Y012180D01*
X041324Y012128D01*
X041318Y012076D01*
X041308Y012024D01*
X041295Y011974D01*
X041278Y011924D01*
X041257Y011876D01*
X041232Y011830D01*
X041204Y011786D01*
X041173Y011744D01*
X041139Y011704D01*
X041102Y011667D01*
X041062Y011633D01*
X041020Y011602D01*
X040976Y011574D01*
X040930Y011549D01*
X040882Y011528D01*
X040832Y011511D01*
X040782Y011498D01*
X040730Y011488D01*
X040678Y011482D01*
X040626Y011480D01*
X040574Y011482D01*
X040522Y011488D01*
X040470Y011498D01*
X040420Y011511D01*
X040370Y011528D01*
X040322Y011549D01*
X040276Y011574D01*
X040232Y011602D01*
X040190Y011633D01*
X040150Y011667D01*
X040113Y011704D01*
X040079Y011744D01*
X040048Y011786D01*
X040020Y011830D01*
X039995Y011876D01*
X039974Y011924D01*
X039957Y011974D01*
X039944Y012024D01*
X039934Y012076D01*
X039928Y012128D01*
X039926Y012180D01*
X038126Y010930D02*
X038126Y009430D01*
X037876Y008180D02*
X037937Y008164D01*
X037997Y008146D01*
X038055Y008124D01*
X038113Y008099D01*
X038169Y008071D01*
X038224Y008040D01*
X038276Y008006D01*
X038327Y007969D01*
X038376Y007930D01*
X037876Y008180D02*
X037810Y008192D01*
X037744Y008201D01*
X037678Y008206D01*
X037611Y008207D01*
X037544Y008204D01*
X037478Y008197D01*
X037412Y008187D01*
X037347Y008173D01*
X037282Y008155D01*
X037219Y008133D01*
X037157Y008107D01*
X037097Y008079D01*
X037039Y008046D01*
X036982Y008011D01*
X036928Y007972D01*
X036876Y007930D01*
X037376Y008180D02*
X037438Y008192D01*
X037500Y008200D01*
X037563Y008205D01*
X037626Y008207D01*
X037689Y008205D01*
X037752Y008200D01*
X037814Y008192D01*
X037876Y008180D01*
X038450Y006530D02*
X036801Y006530D01*
X037876Y006180D02*
X037937Y006164D01*
X037997Y006146D01*
X038055Y006124D01*
X038113Y006099D01*
X038169Y006071D01*
X038224Y006040D01*
X038276Y006006D01*
X038327Y005969D01*
X038376Y005930D01*
X037876Y006180D02*
X037810Y006192D01*
X037744Y006201D01*
X037678Y006206D01*
X037611Y006207D01*
X037544Y006204D01*
X037478Y006197D01*
X037412Y006187D01*
X037347Y006173D01*
X037282Y006155D01*
X037219Y006133D01*
X037157Y006107D01*
X037097Y006079D01*
X037039Y006046D01*
X036982Y006011D01*
X036928Y005972D01*
X036876Y005930D01*
X037376Y006180D02*
X037438Y006192D01*
X037500Y006200D01*
X037563Y006205D01*
X037626Y006207D01*
X037689Y006205D01*
X037752Y006200D01*
X037814Y006192D01*
X037876Y006180D01*
X038450Y004530D02*
X036801Y004530D01*
X037876Y004180D02*
X037937Y004164D01*
X037997Y004146D01*
X038055Y004124D01*
X038113Y004099D01*
X038169Y004071D01*
X038224Y004040D01*
X038276Y004006D01*
X038327Y003969D01*
X038376Y003930D01*
X037876Y004180D02*
X037810Y004192D01*
X037744Y004201D01*
X037678Y004206D01*
X037611Y004207D01*
X037544Y004204D01*
X037478Y004197D01*
X037412Y004187D01*
X037347Y004173D01*
X037282Y004155D01*
X037219Y004133D01*
X037157Y004107D01*
X037097Y004079D01*
X037039Y004046D01*
X036982Y004011D01*
X036928Y003972D01*
X036876Y003930D01*
X037376Y004180D02*
X037438Y004192D01*
X037500Y004200D01*
X037563Y004205D01*
X037626Y004207D01*
X037689Y004205D01*
X037752Y004200D01*
X037814Y004192D01*
X037876Y004180D01*
X038450Y002530D02*
X036801Y002530D01*
X037876Y002180D02*
X037937Y002164D01*
X037997Y002146D01*
X038055Y002124D01*
X038113Y002099D01*
X038169Y002071D01*
X038224Y002040D01*
X038276Y002006D01*
X038327Y001969D01*
X038376Y001930D01*
X037876Y002180D02*
X037810Y002192D01*
X037744Y002201D01*
X037678Y002206D01*
X037611Y002207D01*
X037544Y002204D01*
X037478Y002197D01*
X037412Y002187D01*
X037347Y002173D01*
X037282Y002155D01*
X037219Y002133D01*
X037157Y002107D01*
X037097Y002079D01*
X037039Y002046D01*
X036982Y002011D01*
X036928Y001972D01*
X036876Y001930D01*
X037376Y002180D02*
X037438Y002192D01*
X037500Y002200D01*
X037563Y002205D01*
X037626Y002207D01*
X037689Y002205D01*
X037752Y002200D01*
X037814Y002192D01*
X037876Y002180D01*
X039666Y001000D02*
X039806Y001140D01*
X039806Y000720D01*
X039666Y000720D02*
X039946Y000720D01*
X040126Y000930D02*
X040376Y000680D01*
X040876Y000680D01*
X041126Y000930D01*
X041126Y001430D01*
X040876Y001680D01*
X041126Y001930D01*
X041126Y002430D01*
X040876Y002680D01*
X041126Y002930D01*
X041126Y003430D01*
X040876Y003680D01*
X041126Y003930D01*
X041126Y004430D01*
X040876Y004680D01*
X040376Y004680D01*
X040126Y004430D01*
X040126Y003930D01*
X040376Y003680D01*
X040126Y003430D01*
X040126Y002930D01*
X040376Y002680D01*
X040126Y002430D01*
X040126Y001930D01*
X040376Y001680D01*
X040126Y001430D01*
X040126Y000930D01*
X041415Y001040D02*
X041485Y000970D01*
X041766Y000970D01*
X041836Y001040D01*
X041836Y001180D01*
X041766Y001250D01*
X041766Y001430D02*
X041415Y001430D01*
X041485Y001250D02*
X041415Y001180D01*
X041415Y001040D01*
X041766Y001430D02*
X041836Y001500D01*
X041836Y001641D01*
X041766Y001711D01*
X041415Y001711D01*
X041415Y001891D02*
X041415Y002101D01*
X041485Y002171D01*
X041555Y002171D01*
X041625Y002101D01*
X041625Y001891D01*
X041415Y001891D02*
X041836Y001891D01*
X041836Y002101D01*
X041766Y002171D01*
X041695Y002171D01*
X041625Y002101D01*
X041625Y002351D02*
X041625Y002491D01*
X041415Y002351D02*
X041836Y002351D01*
X041836Y002631D01*
X041415Y002631D02*
X041415Y002351D01*
X041415Y003272D02*
X041836Y003272D01*
X041836Y003552D01*
X041836Y003732D02*
X041555Y003732D01*
X041415Y003872D01*
X041555Y004013D01*
X041836Y004013D01*
X041625Y004013D02*
X041625Y003732D01*
X041485Y004193D02*
X041625Y004333D01*
X041836Y004333D01*
X041625Y004333D02*
X041485Y004473D01*
X041415Y004473D01*
X041415Y004653D02*
X041836Y004653D01*
X041836Y004933D01*
X041836Y005114D02*
X041415Y005114D01*
X041415Y005324D01*
X041485Y005394D01*
X041625Y005394D01*
X041695Y005324D01*
X041695Y005114D01*
X041695Y005254D02*
X041836Y005394D01*
X041766Y005574D02*
X041836Y005644D01*
X041836Y005784D01*
X041766Y005854D01*
X041695Y005854D01*
X041625Y005784D01*
X041625Y005644D01*
X041555Y005574D01*
X041485Y005574D01*
X041415Y005644D01*
X041415Y005784D01*
X041485Y005854D01*
X041415Y004933D02*
X041415Y004653D01*
X041625Y004653D02*
X041625Y004793D01*
X041485Y004193D02*
X041415Y004193D01*
X038450Y000530D02*
X036801Y000530D01*
X033866Y001708D02*
X033866Y002652D01*
X031385Y002652D01*
X031385Y001708D01*
X033866Y001708D01*
X033866Y003708D02*
X031385Y003708D01*
X031385Y004652D01*
X033866Y004652D01*
X033866Y003708D01*
X033866Y005708D02*
X031385Y005708D01*
X031385Y006652D01*
X033866Y006652D01*
X033866Y005708D01*
X033866Y007708D02*
X031385Y007708D01*
X031385Y008652D01*
X033866Y008652D01*
X033866Y007708D01*
X029126Y011480D02*
X029026Y011480D01*
X029126Y011480D02*
X029126Y012180D01*
X029082Y012182D01*
X029039Y012188D01*
X028997Y012197D01*
X028955Y012210D01*
X028915Y012227D01*
X028876Y012247D01*
X028839Y012270D01*
X028805Y012297D01*
X028772Y012326D01*
X028743Y012359D01*
X028716Y012393D01*
X028693Y012430D01*
X028673Y012469D01*
X028656Y012509D01*
X028643Y012551D01*
X028634Y012593D01*
X028628Y012636D01*
X028626Y012680D01*
X028628Y012724D01*
X028634Y012767D01*
X028643Y012809D01*
X028656Y012851D01*
X028673Y012891D01*
X028693Y012930D01*
X028716Y012967D01*
X028743Y013001D01*
X028772Y013034D01*
X028805Y013063D01*
X028839Y013090D01*
X028876Y013113D01*
X028915Y013133D01*
X028955Y013150D01*
X028997Y013163D01*
X029039Y013172D01*
X029082Y013178D01*
X029126Y013180D01*
X029126Y013880D01*
X029026Y013880D01*
X024339Y012820D02*
X024339Y012680D01*
X024269Y012610D01*
X024059Y012610D01*
X024059Y012470D02*
X024059Y012890D01*
X024269Y012890D01*
X024339Y012820D01*
X023879Y012820D02*
X023879Y012750D01*
X023809Y012680D01*
X023669Y012680D01*
X023599Y012750D01*
X023599Y012820D01*
X023669Y012890D01*
X023809Y012890D01*
X023879Y012820D01*
X023809Y012680D02*
X023879Y012610D01*
X023879Y012540D01*
X023809Y012470D01*
X023669Y012470D01*
X023599Y012540D01*
X023599Y012610D01*
X023669Y012680D01*
X023419Y012750D02*
X023419Y012820D01*
X023349Y012890D01*
X023208Y012890D01*
X023138Y012820D01*
X022958Y012820D02*
X022958Y012750D01*
X022888Y012680D01*
X022958Y012610D01*
X022958Y012540D01*
X022888Y012470D01*
X022748Y012470D01*
X022678Y012540D01*
X022498Y012470D02*
X022498Y012750D01*
X022358Y012890D01*
X022218Y012750D01*
X022218Y012470D01*
X022037Y012540D02*
X022037Y012680D01*
X021897Y012680D01*
X021757Y012820D02*
X021757Y012540D01*
X021827Y012470D01*
X021967Y012470D01*
X022037Y012540D01*
X022218Y012680D02*
X022498Y012680D01*
X022678Y012820D02*
X022748Y012890D01*
X022888Y012890D01*
X022958Y012820D01*
X022888Y012680D02*
X022818Y012680D01*
X023138Y012470D02*
X023419Y012750D01*
X023419Y012470D02*
X023138Y012470D01*
X022037Y012820D02*
X021967Y012890D01*
X021827Y012890D01*
X021757Y012820D01*
X021577Y012890D02*
X021297Y012890D01*
X021297Y012470D01*
X021577Y012470D01*
X021437Y012680D02*
X021297Y012680D01*
X021117Y012890D02*
X021117Y012470D01*
X020836Y012470D02*
X020836Y012890D01*
X020976Y012750D01*
X021117Y012890D01*
X020656Y012890D02*
X020376Y012890D01*
X020516Y012890D02*
X020516Y012470D01*
X020196Y012470D02*
X020196Y012750D01*
X020056Y012890D01*
X019916Y012750D01*
X019916Y012470D01*
X019916Y012680D02*
X020196Y012680D01*
X015142Y008180D02*
X015144Y008242D01*
X015150Y008305D01*
X015160Y008366D01*
X015174Y008427D01*
X015191Y008487D01*
X015212Y008546D01*
X015238Y008603D01*
X015266Y008658D01*
X015298Y008712D01*
X015334Y008763D01*
X015372Y008813D01*
X015414Y008859D01*
X015458Y008903D01*
X015506Y008944D01*
X015555Y008982D01*
X015607Y009016D01*
X015661Y009047D01*
X015717Y009075D01*
X015775Y009099D01*
X015834Y009120D01*
X015894Y009136D01*
X015955Y009149D01*
X016017Y009158D01*
X016079Y009163D01*
X016142Y009164D01*
X016204Y009161D01*
X016266Y009154D01*
X016328Y009143D01*
X016388Y009128D01*
X016448Y009110D01*
X016506Y009088D01*
X016563Y009062D01*
X016618Y009032D01*
X016671Y008999D01*
X016722Y008963D01*
X016770Y008924D01*
X016816Y008881D01*
X016859Y008836D01*
X016899Y008788D01*
X016936Y008738D01*
X016970Y008685D01*
X017001Y008631D01*
X017027Y008575D01*
X017051Y008517D01*
X017070Y008457D01*
X017086Y008397D01*
X017098Y008335D01*
X017106Y008274D01*
X017110Y008211D01*
X017110Y008149D01*
X017106Y008086D01*
X017098Y008025D01*
X017086Y007963D01*
X017070Y007903D01*
X017051Y007843D01*
X017027Y007785D01*
X017001Y007729D01*
X016970Y007675D01*
X016936Y007622D01*
X016899Y007572D01*
X016859Y007524D01*
X016816Y007479D01*
X016770Y007436D01*
X016722Y007397D01*
X016671Y007361D01*
X016618Y007328D01*
X016563Y007298D01*
X016506Y007272D01*
X016448Y007250D01*
X016388Y007232D01*
X016328Y007217D01*
X016266Y007206D01*
X016204Y007199D01*
X016142Y007196D01*
X016079Y007197D01*
X016017Y007202D01*
X015955Y007211D01*
X015894Y007224D01*
X015834Y007240D01*
X015775Y007261D01*
X015717Y007285D01*
X015661Y007313D01*
X015607Y007344D01*
X015555Y007378D01*
X015506Y007416D01*
X015458Y007457D01*
X015414Y007501D01*
X015372Y007547D01*
X015334Y007597D01*
X015298Y007648D01*
X015266Y007702D01*
X015238Y007757D01*
X015212Y007814D01*
X015191Y007873D01*
X015174Y007933D01*
X015160Y007994D01*
X015150Y008055D01*
X015144Y008118D01*
X015142Y008180D01*
X016426Y007630D02*
X016826Y007630D01*
X017126Y005430D02*
X017126Y004930D01*
X014476Y004180D02*
X014478Y004272D01*
X014484Y004365D01*
X014494Y004457D01*
X014508Y004548D01*
X014526Y004639D01*
X014547Y004729D01*
X014573Y004818D01*
X014602Y004906D01*
X014635Y004992D01*
X014672Y005077D01*
X014712Y005160D01*
X014756Y005242D01*
X014804Y005321D01*
X014855Y005398D01*
X014909Y005473D01*
X014966Y005546D01*
X015026Y005616D01*
X015089Y005684D01*
X015156Y005749D01*
X015224Y005810D01*
X015296Y005869D01*
X015370Y005925D01*
X015446Y005977D01*
X015524Y006026D01*
X015605Y006072D01*
X015687Y006114D01*
X015771Y006153D01*
X015857Y006188D01*
X015944Y006219D01*
X016032Y006246D01*
X016122Y006270D01*
X016212Y006290D01*
X016303Y006306D01*
X016395Y006318D01*
X016487Y006326D01*
X016580Y006330D01*
X016672Y006330D01*
X016765Y006326D01*
X016857Y006318D01*
X016949Y006306D01*
X017040Y006290D01*
X017130Y006270D01*
X017220Y006246D01*
X017308Y006219D01*
X017395Y006188D01*
X017481Y006153D01*
X017565Y006114D01*
X017647Y006072D01*
X017728Y006026D01*
X017806Y005977D01*
X017882Y005925D01*
X017956Y005869D01*
X018028Y005810D01*
X018096Y005749D01*
X018163Y005684D01*
X018226Y005616D01*
X018286Y005546D01*
X018343Y005473D01*
X018397Y005398D01*
X018448Y005321D01*
X018496Y005242D01*
X018540Y005160D01*
X018580Y005077D01*
X018617Y004992D01*
X018650Y004906D01*
X018679Y004818D01*
X018705Y004729D01*
X018726Y004639D01*
X018744Y004548D01*
X018758Y004457D01*
X018768Y004365D01*
X018774Y004272D01*
X018776Y004180D01*
X018774Y004088D01*
X018768Y003995D01*
X018758Y003903D01*
X018744Y003812D01*
X018726Y003721D01*
X018705Y003631D01*
X018679Y003542D01*
X018650Y003454D01*
X018617Y003368D01*
X018580Y003283D01*
X018540Y003200D01*
X018496Y003118D01*
X018448Y003039D01*
X018397Y002962D01*
X018343Y002887D01*
X018286Y002814D01*
X018226Y002744D01*
X018163Y002676D01*
X018096Y002611D01*
X018028Y002550D01*
X017956Y002491D01*
X017882Y002435D01*
X017806Y002383D01*
X017728Y002334D01*
X017647Y002288D01*
X017565Y002246D01*
X017481Y002207D01*
X017395Y002172D01*
X017308Y002141D01*
X017220Y002114D01*
X017130Y002090D01*
X017040Y002070D01*
X016949Y002054D01*
X016857Y002042D01*
X016765Y002034D01*
X016672Y002030D01*
X016580Y002030D01*
X016487Y002034D01*
X016395Y002042D01*
X016303Y002054D01*
X016212Y002070D01*
X016122Y002090D01*
X016032Y002114D01*
X015944Y002141D01*
X015857Y002172D01*
X015771Y002207D01*
X015687Y002246D01*
X015605Y002288D01*
X015524Y002334D01*
X015446Y002383D01*
X015370Y002435D01*
X015296Y002491D01*
X015224Y002550D01*
X015156Y002611D01*
X015089Y002676D01*
X015026Y002744D01*
X014966Y002814D01*
X014909Y002887D01*
X014855Y002962D01*
X014804Y003039D01*
X014756Y003118D01*
X014712Y003200D01*
X014672Y003283D01*
X014635Y003368D01*
X014602Y003454D01*
X014573Y003542D01*
X014547Y003631D01*
X014526Y003721D01*
X014508Y003812D01*
X014494Y003903D01*
X014484Y003995D01*
X014478Y004088D01*
X014476Y004180D01*
X015576Y003200D02*
X015416Y003040D01*
X015576Y003200D02*
X015576Y002720D01*
X015416Y002720D02*
X015736Y002720D01*
X015931Y002800D02*
X016252Y003120D01*
X016252Y002800D01*
X016171Y002720D01*
X016011Y002720D01*
X015931Y002800D01*
X015931Y003120D01*
X016011Y003200D01*
X016171Y003200D01*
X016252Y003120D01*
X016447Y003120D02*
X016447Y002800D01*
X016767Y003120D01*
X016767Y002800D01*
X016687Y002720D01*
X016527Y002720D01*
X016447Y002800D01*
X016447Y003120D02*
X016527Y003200D01*
X016687Y003200D01*
X016767Y003120D01*
X016963Y003120D02*
X017043Y003200D01*
X017203Y003200D01*
X017283Y003120D01*
X016963Y002800D01*
X017043Y002720D01*
X017203Y002720D01*
X017283Y002800D01*
X017283Y003120D01*
X017478Y003040D02*
X017478Y002800D01*
X017558Y002720D01*
X017798Y002720D01*
X017798Y003040D01*
X016963Y003120D02*
X016963Y002800D01*
X019426Y003530D02*
X019426Y001830D01*
X020221Y001480D02*
X021026Y001480D01*
X021826Y001830D02*
X021826Y003530D01*
X021026Y003880D02*
X020233Y003880D01*
X019926Y002680D02*
X019928Y002732D01*
X019934Y002784D01*
X019944Y002836D01*
X019957Y002886D01*
X019974Y002936D01*
X019995Y002984D01*
X020020Y003030D01*
X020048Y003074D01*
X020079Y003116D01*
X020113Y003156D01*
X020150Y003193D01*
X020190Y003227D01*
X020232Y003258D01*
X020276Y003286D01*
X020322Y003311D01*
X020370Y003332D01*
X020420Y003349D01*
X020470Y003362D01*
X020522Y003372D01*
X020574Y003378D01*
X020626Y003380D01*
X020678Y003378D01*
X020730Y003372D01*
X020782Y003362D01*
X020832Y003349D01*
X020882Y003332D01*
X020930Y003311D01*
X020976Y003286D01*
X021020Y003258D01*
X021062Y003227D01*
X021102Y003193D01*
X021139Y003156D01*
X021173Y003116D01*
X021204Y003074D01*
X021232Y003030D01*
X021257Y002984D01*
X021278Y002936D01*
X021295Y002886D01*
X021308Y002836D01*
X021318Y002784D01*
X021324Y002732D01*
X021326Y002680D01*
X021324Y002628D01*
X021318Y002576D01*
X021308Y002524D01*
X021295Y002474D01*
X021278Y002424D01*
X021257Y002376D01*
X021232Y002330D01*
X021204Y002286D01*
X021173Y002244D01*
X021139Y002204D01*
X021102Y002167D01*
X021062Y002133D01*
X021020Y002102D01*
X020976Y002074D01*
X020930Y002049D01*
X020882Y002028D01*
X020832Y002011D01*
X020782Y001998D01*
X020730Y001988D01*
X020678Y001982D01*
X020626Y001980D01*
X020574Y001982D01*
X020522Y001988D01*
X020470Y001998D01*
X020420Y002011D01*
X020370Y002028D01*
X020322Y002049D01*
X020276Y002074D01*
X020232Y002102D01*
X020190Y002133D01*
X020150Y002167D01*
X020113Y002204D01*
X020079Y002244D01*
X020048Y002286D01*
X020020Y002330D01*
X019995Y002376D01*
X019974Y002424D01*
X019957Y002474D01*
X019944Y002524D01*
X019934Y002576D01*
X019928Y002628D01*
X019926Y002680D01*
X019824Y000890D02*
X019614Y000890D01*
X019614Y000470D01*
X019614Y000610D02*
X019824Y000610D01*
X019894Y000680D01*
X019894Y000820D01*
X019824Y000890D01*
X020074Y000890D02*
X020074Y000470D01*
X020354Y000470D01*
X020534Y000540D02*
X020604Y000470D01*
X020745Y000470D01*
X020815Y000540D01*
X020815Y000610D01*
X020745Y000680D01*
X020604Y000680D01*
X020534Y000750D01*
X020534Y000820D01*
X020604Y000890D01*
X020745Y000890D01*
X020815Y000820D01*
X020995Y000890D02*
X020995Y000470D01*
X021275Y000470D01*
X021135Y000680D02*
X020995Y000680D01*
X020995Y000890D02*
X021275Y000890D01*
X021455Y000890D02*
X021735Y000890D01*
X021595Y000890D02*
X021595Y000470D01*
X020354Y000890D02*
X020074Y000890D01*
X020074Y000680D02*
X020214Y000680D01*
X019894Y000470D02*
X019754Y000610D01*
X023126Y001930D02*
X023126Y003430D01*
X023376Y003680D01*
X023876Y003680D01*
X024126Y003430D01*
X024126Y001930D01*
X024376Y001680D01*
X024876Y001680D01*
X025126Y001930D01*
X025126Y003430D01*
X025376Y003680D01*
X025876Y003680D01*
X026126Y003430D01*
X026126Y001930D01*
X025876Y001680D01*
X025376Y001680D01*
X025126Y001930D01*
X024126Y001930D02*
X023876Y001680D01*
X023376Y001680D01*
X023126Y001930D01*
X023376Y001548D02*
X023876Y001548D01*
X024166Y000950D02*
X024326Y000950D01*
X024246Y000950D02*
X024246Y000470D01*
X024166Y000470D02*
X024326Y000470D01*
X024509Y000550D02*
X024589Y000470D01*
X024750Y000470D01*
X024830Y000550D01*
X024830Y000630D01*
X024750Y000710D01*
X024589Y000710D01*
X024509Y000790D01*
X024509Y000870D01*
X024589Y000950D01*
X024750Y000950D01*
X024830Y000870D01*
X025025Y000950D02*
X025265Y000950D01*
X025345Y000870D01*
X025345Y000710D01*
X025265Y000630D01*
X025025Y000630D01*
X025025Y000470D02*
X025025Y000950D01*
X025126Y003430D02*
X024876Y003680D01*
X024376Y003680D01*
X024126Y003430D01*
X027535Y002180D02*
X027537Y002228D01*
X027543Y002276D01*
X027553Y002323D01*
X027566Y002369D01*
X027584Y002414D01*
X027604Y002458D01*
X027629Y002500D01*
X027657Y002539D01*
X027687Y002576D01*
X027721Y002610D01*
X027758Y002642D01*
X027796Y002671D01*
X027837Y002696D01*
X027880Y002718D01*
X027925Y002736D01*
X027971Y002750D01*
X028018Y002761D01*
X028066Y002768D01*
X028114Y002771D01*
X028162Y002770D01*
X028210Y002765D01*
X028258Y002756D01*
X028304Y002744D01*
X028349Y002727D01*
X028393Y002707D01*
X028435Y002684D01*
X028475Y002657D01*
X028513Y002627D01*
X028548Y002594D01*
X028580Y002558D01*
X028610Y002520D01*
X028636Y002479D01*
X028658Y002436D01*
X028678Y002392D01*
X028693Y002347D01*
X028705Y002300D01*
X028713Y002252D01*
X028717Y002204D01*
X028717Y002156D01*
X028713Y002108D01*
X028705Y002060D01*
X028693Y002013D01*
X028678Y001968D01*
X028658Y001924D01*
X028636Y001881D01*
X028610Y001840D01*
X028580Y001802D01*
X028548Y001766D01*
X028513Y001733D01*
X028475Y001703D01*
X028435Y001676D01*
X028393Y001653D01*
X028349Y001633D01*
X028304Y001616D01*
X028258Y001604D01*
X028210Y001595D01*
X028162Y001590D01*
X028114Y001589D01*
X028066Y001592D01*
X028018Y001599D01*
X027971Y001610D01*
X027925Y001624D01*
X027880Y001642D01*
X027837Y001664D01*
X027796Y001689D01*
X027758Y001718D01*
X027721Y001750D01*
X027687Y001784D01*
X027657Y001821D01*
X027629Y001860D01*
X027604Y001902D01*
X027584Y001946D01*
X027566Y001991D01*
X027553Y002037D01*
X027543Y002084D01*
X027537Y002132D01*
X027535Y002180D01*
X013376Y002180D02*
X011876Y002180D01*
X011876Y006180D01*
X013376Y006180D01*
X013376Y002180D01*
X011876Y002180D02*
X011626Y002180D01*
X011626Y006180D01*
X011876Y006180D01*
X005035Y019180D02*
X005037Y019228D01*
X005043Y019276D01*
X005053Y019323D01*
X005066Y019369D01*
X005084Y019414D01*
X005104Y019458D01*
X005129Y019500D01*
X005157Y019539D01*
X005187Y019576D01*
X005221Y019610D01*
X005258Y019642D01*
X005296Y019671D01*
X005337Y019696D01*
X005380Y019718D01*
X005425Y019736D01*
X005471Y019750D01*
X005518Y019761D01*
X005566Y019768D01*
X005614Y019771D01*
X005662Y019770D01*
X005710Y019765D01*
X005758Y019756D01*
X005804Y019744D01*
X005849Y019727D01*
X005893Y019707D01*
X005935Y019684D01*
X005975Y019657D01*
X006013Y019627D01*
X006048Y019594D01*
X006080Y019558D01*
X006110Y019520D01*
X006136Y019479D01*
X006158Y019436D01*
X006178Y019392D01*
X006193Y019347D01*
X006205Y019300D01*
X006213Y019252D01*
X006217Y019204D01*
X006217Y019156D01*
X006213Y019108D01*
X006205Y019060D01*
X006193Y019013D01*
X006178Y018968D01*
X006158Y018924D01*
X006136Y018881D01*
X006110Y018840D01*
X006080Y018802D01*
X006048Y018766D01*
X006013Y018733D01*
X005975Y018703D01*
X005935Y018676D01*
X005893Y018653D01*
X005849Y018633D01*
X005804Y018616D01*
X005758Y018604D01*
X005710Y018595D01*
X005662Y018590D01*
X005614Y018589D01*
X005566Y018592D01*
X005518Y018599D01*
X005471Y018610D01*
X005425Y018624D01*
X005380Y018642D01*
X005337Y018664D01*
X005296Y018689D01*
X005258Y018718D01*
X005221Y018750D01*
X005187Y018784D01*
X005157Y018821D01*
X005129Y018860D01*
X005104Y018902D01*
X005084Y018946D01*
X005066Y018991D01*
X005053Y019037D01*
X005043Y019084D01*
X005037Y019132D01*
X005035Y019180D01*
X007915Y022470D02*
X007915Y022750D01*
X007985Y022750D01*
X008266Y022470D01*
X008336Y022470D01*
X008125Y022930D02*
X008125Y023211D01*
X008125Y023391D02*
X008125Y023671D01*
X007915Y023671D02*
X008336Y023671D01*
X008266Y023851D02*
X008336Y023921D01*
X008336Y024061D01*
X008266Y024131D01*
X008336Y024312D02*
X008336Y024592D01*
X008336Y024452D02*
X007915Y024452D01*
X008055Y024312D01*
X007985Y024131D02*
X007915Y024061D01*
X007915Y023921D01*
X007985Y023851D01*
X008266Y023851D01*
X008336Y023391D02*
X007915Y023391D01*
X007915Y023141D02*
X008125Y022930D01*
X007915Y023141D02*
X008336Y023141D01*
X008266Y024772D02*
X008125Y024772D01*
X008125Y024982D01*
X008195Y025052D01*
X008266Y025052D01*
X008336Y024982D01*
X008336Y024842D01*
X008266Y024772D01*
X008125Y024772D02*
X007985Y024912D01*
X007915Y025052D01*
X008125Y025232D02*
X008125Y025513D01*
X007915Y025443D02*
X008125Y025232D01*
X007915Y025443D02*
X008336Y025443D01*
X008336Y025693D02*
X007915Y025693D01*
X008336Y025973D01*
X007915Y025973D01*
X013915Y025973D02*
X014336Y025973D01*
X013915Y025693D01*
X014336Y025693D01*
X014336Y025443D02*
X013915Y025443D01*
X014125Y025232D01*
X014125Y025513D01*
X014195Y025052D02*
X014125Y024982D01*
X014125Y024772D01*
X014266Y024772D01*
X014336Y024842D01*
X014336Y024982D01*
X014266Y025052D01*
X014195Y025052D01*
X013985Y024912D02*
X014125Y024772D01*
X013985Y024912D02*
X013915Y025052D01*
X013915Y024452D02*
X014336Y024452D01*
X014336Y024312D02*
X014336Y024592D01*
X014055Y024312D02*
X013915Y024452D01*
X013985Y024131D02*
X013915Y024061D01*
X013915Y023921D01*
X013985Y023851D01*
X014266Y023851D01*
X014336Y023921D01*
X014336Y024061D01*
X014266Y024131D01*
X014336Y023671D02*
X013915Y023671D01*
X014125Y023671D02*
X014125Y023391D01*
X014125Y023211D02*
X014125Y022930D01*
X013915Y023141D01*
X014336Y023141D01*
X014336Y023391D02*
X013915Y023391D01*
X013915Y022750D02*
X013985Y022750D01*
X014266Y022470D01*
X014336Y022470D01*
X013915Y022470D02*
X013915Y022750D01*
D11*
X010613Y007326D02*
X010613Y006735D01*
X010417Y006932D01*
X010220Y006735D01*
X010220Y007326D01*
X009969Y007227D02*
X009870Y007326D01*
X009674Y007326D01*
X009575Y007227D01*
X009575Y006833D01*
X009674Y006735D01*
X009870Y006735D01*
X009969Y006833D01*
X009969Y007227D01*
X009324Y007227D02*
X009324Y007030D01*
X009226Y006932D01*
X008931Y006932D01*
X008931Y006735D02*
X008931Y007326D01*
X009226Y007326D01*
X009324Y007227D01*
D12*
X015396Y009450D02*
X015743Y009450D01*
X015569Y009450D02*
X015569Y009970D01*
X015396Y009797D01*
X015911Y009884D02*
X015998Y009970D01*
X016171Y009970D01*
X016258Y009884D01*
X015911Y009537D01*
X015998Y009450D01*
X016171Y009450D01*
X016258Y009537D01*
X016258Y009884D01*
X016427Y009797D02*
X016427Y009537D01*
X016514Y009450D01*
X016774Y009450D01*
X016774Y009797D01*
X015911Y009884D02*
X015911Y009537D01*
X021534Y008334D02*
X021534Y008027D01*
X021841Y008334D01*
X021841Y008027D01*
X021764Y007950D01*
X021611Y007950D01*
X021534Y008027D01*
X021534Y008334D02*
X021611Y008410D01*
X021764Y008410D01*
X021841Y008334D01*
X021995Y008027D02*
X022071Y008027D01*
X022071Y007950D01*
X021995Y007950D01*
X021995Y008027D01*
X022225Y007950D02*
X022532Y007950D01*
X022378Y007950D02*
X022378Y008410D01*
X022225Y008257D01*
X022685Y008257D02*
X022685Y008027D01*
X022762Y007950D01*
X022992Y007950D01*
X022992Y008257D01*
X023625Y007297D02*
X023779Y007297D01*
X023856Y007220D01*
X023856Y006990D01*
X024009Y006990D02*
X023549Y006990D01*
X023549Y007220D01*
X023625Y007297D01*
X023549Y006836D02*
X023856Y006836D01*
X023856Y006606D01*
X023779Y006529D01*
X023549Y006529D01*
X023395Y006299D02*
X023856Y006299D01*
X023856Y006222D02*
X023856Y006376D01*
X023856Y006069D02*
X023856Y005915D01*
X023856Y005992D02*
X023395Y005992D01*
X023395Y005915D01*
X023549Y005762D02*
X023856Y005762D01*
X023856Y005532D01*
X023779Y005455D01*
X023549Y005455D01*
X023625Y005301D02*
X023779Y005301D01*
X023856Y005225D01*
X023856Y004995D01*
X024009Y004995D02*
X023549Y004995D01*
X023549Y005225D01*
X023625Y005301D01*
X024395Y005577D02*
X024916Y005577D01*
X024916Y005750D02*
X024916Y005403D01*
X024569Y005403D02*
X024395Y005577D01*
X024482Y005919D02*
X024395Y006005D01*
X024395Y006179D01*
X024482Y006266D01*
X024829Y005919D01*
X024916Y006005D01*
X024916Y006179D01*
X024829Y006266D01*
X024482Y006266D01*
X024395Y006434D02*
X024916Y006434D01*
X024742Y006434D02*
X024395Y006781D01*
X024655Y006521D02*
X024916Y006781D01*
X024829Y005919D02*
X024482Y005919D01*
X023395Y006222D02*
X023395Y006299D01*
X036146Y007700D02*
X036453Y007700D01*
X036299Y007930D02*
X036146Y007930D01*
X036146Y008160D02*
X036146Y007700D01*
X036146Y008160D02*
X036453Y008160D01*
X037396Y008160D02*
X037396Y007700D01*
X037626Y007700D01*
X037703Y007777D01*
X037703Y007853D01*
X037626Y007930D01*
X037396Y007930D01*
X037626Y007930D02*
X037703Y008007D01*
X037703Y008084D01*
X037626Y008160D01*
X037396Y008160D01*
X038646Y008084D02*
X038646Y007777D01*
X038722Y007700D01*
X038876Y007700D01*
X038953Y007777D01*
X038953Y008084D02*
X038876Y008160D01*
X038722Y008160D01*
X038646Y008084D01*
X035453Y019700D02*
X035146Y019700D01*
X035453Y020007D01*
X035453Y020084D01*
X035376Y020160D01*
X035222Y020160D01*
X035146Y020084D01*
X035086Y028950D02*
X035163Y029027D01*
X035163Y029103D01*
X035086Y029180D01*
X034856Y029180D01*
X034856Y029027D01*
X034933Y028950D01*
X035086Y028950D01*
X034856Y029180D02*
X035009Y029334D01*
X035163Y029410D01*
X034549Y029410D02*
X034549Y028950D01*
X034396Y028950D02*
X034703Y028950D01*
X034396Y029257D02*
X034549Y029410D01*
X020373Y020180D02*
X020373Y020027D01*
X020297Y019950D01*
X020066Y019950D01*
X019913Y019950D02*
X019606Y019950D01*
X019913Y020257D01*
X019913Y020334D01*
X019836Y020410D01*
X019683Y020410D01*
X019606Y020334D01*
X019453Y020334D02*
X019376Y020410D01*
X019222Y020410D01*
X019146Y020334D01*
X019453Y020334D02*
X019453Y020257D01*
X019146Y019950D01*
X019453Y019950D01*
X020066Y019797D02*
X020066Y020257D01*
X020297Y020257D01*
X020373Y020180D01*
X018373Y020180D02*
X018373Y020027D01*
X018297Y019950D01*
X018066Y019950D01*
X017913Y019950D02*
X017606Y019950D01*
X017913Y020257D01*
X017913Y020334D01*
X017836Y020410D01*
X017683Y020410D01*
X017606Y020334D01*
X017453Y020334D02*
X017376Y020410D01*
X017222Y020410D01*
X017146Y020334D01*
X017453Y020334D02*
X017453Y020257D01*
X017146Y019950D01*
X017453Y019950D01*
X018066Y019797D02*
X018066Y020257D01*
X018297Y020257D01*
X018373Y020180D01*
X021534Y017334D02*
X021611Y017410D01*
X021764Y017410D01*
X021841Y017334D01*
X021534Y017027D01*
X021611Y016950D01*
X021764Y016950D01*
X021841Y017027D01*
X021841Y017334D01*
X021534Y017334D02*
X021534Y017027D01*
X021995Y017027D02*
X022071Y017027D01*
X022071Y016950D01*
X021995Y016950D01*
X021995Y017027D01*
X022225Y016950D02*
X022532Y016950D01*
X022378Y016950D02*
X022378Y017410D01*
X022225Y017257D01*
X022685Y017257D02*
X022685Y017027D01*
X022762Y016950D01*
X022992Y016950D01*
X022992Y017257D01*
D13*
X019976Y017080D02*
X017276Y017080D01*
X017217Y017078D01*
X017159Y017072D01*
X017100Y017063D01*
X017043Y017049D01*
X016987Y017032D01*
X016932Y017011D01*
X016878Y016987D01*
X016826Y016959D01*
X016776Y016928D01*
X016728Y016894D01*
X016683Y016857D01*
X016640Y016816D01*
X016599Y016773D01*
X016562Y016728D01*
X016528Y016680D01*
X016497Y016630D01*
X016469Y016578D01*
X016445Y016524D01*
X016424Y016469D01*
X016407Y016413D01*
X016393Y016356D01*
X016384Y016297D01*
X016378Y016239D01*
X016376Y016180D01*
X016378Y016121D01*
X016384Y016063D01*
X016393Y016004D01*
X016407Y015947D01*
X016424Y015891D01*
X016445Y015836D01*
X016469Y015782D01*
X016497Y015730D01*
X016528Y015680D01*
X016562Y015632D01*
X016599Y015587D01*
X016640Y015544D01*
X016683Y015503D01*
X016728Y015466D01*
X016776Y015432D01*
X016826Y015401D01*
X016878Y015373D01*
X016932Y015349D01*
X016987Y015328D01*
X017043Y015311D01*
X017100Y015297D01*
X017159Y015288D01*
X017217Y015282D01*
X017276Y015280D01*
X019976Y015280D01*
X020035Y015282D01*
X020093Y015288D01*
X020152Y015297D01*
X020209Y015311D01*
X020265Y015328D01*
X020320Y015349D01*
X020374Y015373D01*
X020426Y015401D01*
X020476Y015432D01*
X020524Y015466D01*
X020569Y015503D01*
X020612Y015544D01*
X020653Y015587D01*
X020690Y015632D01*
X020724Y015680D01*
X020755Y015730D01*
X020783Y015782D01*
X020807Y015836D01*
X020828Y015891D01*
X020845Y015947D01*
X020859Y016004D01*
X020868Y016063D01*
X020874Y016121D01*
X020876Y016180D01*
X020874Y016239D01*
X020868Y016297D01*
X020859Y016356D01*
X020845Y016413D01*
X020828Y016469D01*
X020807Y016524D01*
X020783Y016578D01*
X020755Y016630D01*
X020724Y016680D01*
X020690Y016728D01*
X020653Y016773D01*
X020612Y016816D01*
X020569Y016857D01*
X020524Y016894D01*
X020476Y016928D01*
X020426Y016959D01*
X020374Y016987D01*
X020320Y017011D01*
X020265Y017032D01*
X020209Y017049D01*
X020152Y017063D01*
X020093Y017072D01*
X020035Y017078D01*
X019976Y017080D01*
X019726Y021680D02*
X019728Y021719D01*
X019734Y021758D01*
X019743Y021796D01*
X019756Y021833D01*
X019773Y021869D01*
X019793Y021902D01*
X019817Y021934D01*
X019843Y021963D01*
X019872Y021989D01*
X019904Y022013D01*
X019937Y022033D01*
X019973Y022050D01*
X020010Y022063D01*
X020048Y022072D01*
X020087Y022078D01*
X020126Y022080D01*
X020165Y022078D01*
X020204Y022072D01*
X020242Y022063D01*
X020279Y022050D01*
X020315Y022033D01*
X020348Y022013D01*
X020380Y021989D01*
X020409Y021963D01*
X020435Y021934D01*
X020459Y021902D01*
X020479Y021869D01*
X020496Y021833D01*
X020509Y021796D01*
X020518Y021758D01*
X020524Y021719D01*
X020526Y021680D01*
X021276Y021680D01*
X021276Y028680D01*
X018976Y028680D01*
X018976Y021680D01*
X019726Y021680D01*
X015276Y021680D02*
X014526Y021680D01*
X014524Y021719D01*
X014518Y021758D01*
X014509Y021796D01*
X014496Y021833D01*
X014479Y021869D01*
X014459Y021902D01*
X014435Y021934D01*
X014409Y021963D01*
X014380Y021989D01*
X014348Y022013D01*
X014315Y022033D01*
X014279Y022050D01*
X014242Y022063D01*
X014204Y022072D01*
X014165Y022078D01*
X014126Y022080D01*
X014087Y022078D01*
X014048Y022072D01*
X014010Y022063D01*
X013973Y022050D01*
X013937Y022033D01*
X013904Y022013D01*
X013872Y021989D01*
X013843Y021963D01*
X013817Y021934D01*
X013793Y021902D01*
X013773Y021869D01*
X013756Y021833D01*
X013743Y021796D01*
X013734Y021758D01*
X013728Y021719D01*
X013726Y021680D01*
X012976Y021680D01*
X012976Y028680D01*
X015276Y028680D01*
X015276Y021680D01*
X009276Y021680D02*
X008526Y021680D01*
X008524Y021719D01*
X008518Y021758D01*
X008509Y021796D01*
X008496Y021833D01*
X008479Y021869D01*
X008459Y021902D01*
X008435Y021934D01*
X008409Y021963D01*
X008380Y021989D01*
X008348Y022013D01*
X008315Y022033D01*
X008279Y022050D01*
X008242Y022063D01*
X008204Y022072D01*
X008165Y022078D01*
X008126Y022080D01*
X008087Y022078D01*
X008048Y022072D01*
X008010Y022063D01*
X007973Y022050D01*
X007937Y022033D01*
X007904Y022013D01*
X007872Y021989D01*
X007843Y021963D01*
X007817Y021934D01*
X007793Y021902D01*
X007773Y021869D01*
X007756Y021833D01*
X007743Y021796D01*
X007734Y021758D01*
X007728Y021719D01*
X007726Y021680D01*
X006976Y021680D01*
X006976Y028680D01*
X009276Y028680D01*
X009276Y021680D01*
X004476Y019180D02*
X004478Y019247D01*
X004484Y019315D01*
X004494Y019382D01*
X004508Y019448D01*
X004525Y019513D01*
X004547Y019577D01*
X004572Y019640D01*
X004601Y019701D01*
X004633Y019760D01*
X004669Y019817D01*
X004708Y019872D01*
X004750Y019925D01*
X004795Y019975D01*
X004843Y020022D01*
X004894Y020067D01*
X004947Y020108D01*
X005003Y020147D01*
X005061Y020182D01*
X005121Y020213D01*
X005182Y020241D01*
X005245Y020265D01*
X005309Y020286D01*
X005375Y020302D01*
X005441Y020315D01*
X005508Y020324D01*
X005575Y020329D01*
X005643Y020330D01*
X005710Y020327D01*
X005777Y020320D01*
X005844Y020309D01*
X005910Y020294D01*
X005975Y020276D01*
X006039Y020253D01*
X006101Y020227D01*
X006162Y020198D01*
X006220Y020164D01*
X006277Y020128D01*
X006332Y020088D01*
X006384Y020045D01*
X006433Y019999D01*
X006480Y019950D01*
X006524Y019899D01*
X006564Y019845D01*
X006602Y019789D01*
X006636Y019730D01*
X006666Y019670D01*
X006693Y019608D01*
X006717Y019545D01*
X006736Y019480D01*
X006752Y019415D01*
X006764Y019348D01*
X006772Y019281D01*
X006776Y019214D01*
X006776Y019146D01*
X006772Y019079D01*
X006764Y019012D01*
X006752Y018945D01*
X006736Y018880D01*
X006717Y018815D01*
X006693Y018752D01*
X006666Y018690D01*
X006636Y018630D01*
X006602Y018571D01*
X006564Y018515D01*
X006524Y018461D01*
X006480Y018410D01*
X006433Y018361D01*
X006384Y018315D01*
X006332Y018272D01*
X006277Y018232D01*
X006220Y018196D01*
X006162Y018162D01*
X006101Y018133D01*
X006039Y018107D01*
X005975Y018084D01*
X005910Y018066D01*
X005844Y018051D01*
X005777Y018040D01*
X005710Y018033D01*
X005643Y018030D01*
X005575Y018031D01*
X005508Y018036D01*
X005441Y018045D01*
X005375Y018058D01*
X005309Y018074D01*
X005245Y018095D01*
X005182Y018119D01*
X005121Y018147D01*
X005061Y018178D01*
X005003Y018213D01*
X004947Y018252D01*
X004894Y018293D01*
X004843Y018338D01*
X004795Y018385D01*
X004750Y018435D01*
X004708Y018488D01*
X004669Y018543D01*
X004633Y018600D01*
X004601Y018659D01*
X004572Y018720D01*
X004547Y018783D01*
X004525Y018847D01*
X004508Y018912D01*
X004494Y018978D01*
X004484Y019045D01*
X004478Y019113D01*
X004476Y019180D01*
X012126Y014580D02*
X012126Y013780D01*
X012226Y013680D01*
X012126Y013580D01*
X012126Y012780D01*
X012226Y012680D01*
X013026Y012680D01*
X013126Y012780D01*
X013126Y013580D01*
X013026Y013680D01*
X013126Y013780D01*
X013126Y014580D01*
X013026Y014680D01*
X012226Y014680D01*
X012126Y014580D01*
X024176Y007330D02*
X024176Y007180D01*
X024226Y007130D01*
X024226Y005230D01*
X024176Y005180D01*
X024176Y005030D01*
X024178Y005013D01*
X024182Y004996D01*
X024189Y004980D01*
X024199Y004966D01*
X024212Y004953D01*
X024226Y004943D01*
X024242Y004936D01*
X024259Y004932D01*
X024276Y004930D01*
X024976Y004930D01*
X024993Y004932D01*
X025010Y004936D01*
X025026Y004943D01*
X025040Y004953D01*
X025053Y004966D01*
X025063Y004980D01*
X025070Y004996D01*
X025074Y005013D01*
X025076Y005030D01*
X025076Y005180D01*
X025026Y005230D01*
X025026Y007130D01*
X025076Y007180D01*
X025076Y007330D01*
X025074Y007347D01*
X025070Y007364D01*
X025063Y007380D01*
X025053Y007394D01*
X025040Y007407D01*
X025026Y007417D01*
X025010Y007424D01*
X024993Y007428D01*
X024976Y007430D01*
X024276Y007430D01*
X024259Y007428D01*
X024242Y007424D01*
X024226Y007417D01*
X024212Y007407D01*
X024199Y007394D01*
X024189Y007380D01*
X024182Y007364D01*
X024178Y007347D01*
X024176Y007330D01*
X026976Y002180D02*
X026978Y002247D01*
X026984Y002315D01*
X026994Y002382D01*
X027008Y002448D01*
X027025Y002513D01*
X027047Y002577D01*
X027072Y002640D01*
X027101Y002701D01*
X027133Y002760D01*
X027169Y002817D01*
X027208Y002872D01*
X027250Y002925D01*
X027295Y002975D01*
X027343Y003022D01*
X027394Y003067D01*
X027447Y003108D01*
X027503Y003147D01*
X027561Y003182D01*
X027621Y003213D01*
X027682Y003241D01*
X027745Y003265D01*
X027809Y003286D01*
X027875Y003302D01*
X027941Y003315D01*
X028008Y003324D01*
X028075Y003329D01*
X028143Y003330D01*
X028210Y003327D01*
X028277Y003320D01*
X028344Y003309D01*
X028410Y003294D01*
X028475Y003276D01*
X028539Y003253D01*
X028601Y003227D01*
X028662Y003198D01*
X028720Y003164D01*
X028777Y003128D01*
X028832Y003088D01*
X028884Y003045D01*
X028933Y002999D01*
X028980Y002950D01*
X029024Y002899D01*
X029064Y002845D01*
X029102Y002789D01*
X029136Y002730D01*
X029166Y002670D01*
X029193Y002608D01*
X029217Y002545D01*
X029236Y002480D01*
X029252Y002415D01*
X029264Y002348D01*
X029272Y002281D01*
X029276Y002214D01*
X029276Y002146D01*
X029272Y002079D01*
X029264Y002012D01*
X029252Y001945D01*
X029236Y001880D01*
X029217Y001815D01*
X029193Y001752D01*
X029166Y001690D01*
X029136Y001630D01*
X029102Y001571D01*
X029064Y001515D01*
X029024Y001461D01*
X028980Y001410D01*
X028933Y001361D01*
X028884Y001315D01*
X028832Y001272D01*
X028777Y001232D01*
X028720Y001196D01*
X028662Y001162D01*
X028601Y001133D01*
X028539Y001107D01*
X028475Y001084D01*
X028410Y001066D01*
X028344Y001051D01*
X028277Y001040D01*
X028210Y001033D01*
X028143Y001030D01*
X028075Y001031D01*
X028008Y001036D01*
X027941Y001045D01*
X027875Y001058D01*
X027809Y001074D01*
X027745Y001095D01*
X027682Y001119D01*
X027621Y001147D01*
X027561Y001178D01*
X027503Y001213D01*
X027447Y001252D01*
X027394Y001293D01*
X027343Y001338D01*
X027295Y001385D01*
X027250Y001435D01*
X027208Y001488D01*
X027169Y001543D01*
X027133Y001600D01*
X027101Y001659D01*
X027072Y001720D01*
X027047Y001783D01*
X027025Y001847D01*
X027008Y001912D01*
X026994Y001978D01*
X026984Y002045D01*
X026978Y002113D01*
X026976Y002180D01*
X031476Y009730D02*
X031626Y009730D01*
X031676Y009780D01*
X033576Y009780D01*
X033626Y009730D01*
X033776Y009730D01*
X033793Y009732D01*
X033810Y009736D01*
X033826Y009743D01*
X033840Y009753D01*
X033853Y009766D01*
X033863Y009780D01*
X033870Y009796D01*
X033874Y009813D01*
X033876Y009830D01*
X033876Y010530D01*
X033874Y010547D01*
X033870Y010564D01*
X033863Y010580D01*
X033853Y010594D01*
X033840Y010607D01*
X033826Y010617D01*
X033810Y010624D01*
X033793Y010628D01*
X033776Y010630D01*
X033626Y010630D01*
X033576Y010580D01*
X031676Y010580D01*
X031626Y010630D01*
X031476Y010630D01*
X031459Y010628D01*
X031442Y010624D01*
X031426Y010617D01*
X031412Y010607D01*
X031399Y010594D01*
X031389Y010580D01*
X031382Y010564D01*
X031378Y010547D01*
X031376Y010530D01*
X031376Y009830D01*
X031378Y009813D01*
X031382Y009796D01*
X031389Y009780D01*
X031399Y009766D01*
X031412Y009753D01*
X031426Y009743D01*
X031442Y009736D01*
X031459Y009732D01*
X031476Y009730D01*
X031476Y012730D02*
X031626Y012730D01*
X031676Y012780D01*
X033576Y012780D01*
X033626Y012730D01*
X033776Y012730D01*
X033793Y012732D01*
X033810Y012736D01*
X033826Y012743D01*
X033840Y012753D01*
X033853Y012766D01*
X033863Y012780D01*
X033870Y012796D01*
X033874Y012813D01*
X033876Y012830D01*
X033876Y013530D01*
X033874Y013547D01*
X033870Y013564D01*
X033863Y013580D01*
X033853Y013594D01*
X033840Y013607D01*
X033826Y013617D01*
X033810Y013624D01*
X033793Y013628D01*
X033776Y013630D01*
X033626Y013630D01*
X033576Y013580D01*
X031676Y013580D01*
X031626Y013630D01*
X031476Y013630D01*
X031459Y013628D01*
X031442Y013624D01*
X031426Y013617D01*
X031412Y013607D01*
X031399Y013594D01*
X031389Y013580D01*
X031382Y013564D01*
X031378Y013547D01*
X031376Y013530D01*
X031376Y012830D01*
X031378Y012813D01*
X031382Y012796D01*
X031389Y012780D01*
X031399Y012766D01*
X031412Y012753D01*
X031426Y012743D01*
X031442Y012736D01*
X031459Y012732D01*
X031476Y012730D01*
X036126Y013180D02*
X036128Y013243D01*
X036134Y013305D01*
X036144Y013367D01*
X036157Y013429D01*
X036175Y013489D01*
X036196Y013548D01*
X036221Y013606D01*
X036250Y013662D01*
X036282Y013716D01*
X036317Y013768D01*
X036355Y013817D01*
X036397Y013865D01*
X036441Y013909D01*
X036489Y013951D01*
X036538Y013989D01*
X036590Y014024D01*
X036644Y014056D01*
X036700Y014085D01*
X036758Y014110D01*
X036817Y014131D01*
X036877Y014149D01*
X036939Y014162D01*
X037001Y014172D01*
X037063Y014178D01*
X037126Y014180D01*
X037189Y014178D01*
X037251Y014172D01*
X037313Y014162D01*
X037375Y014149D01*
X037435Y014131D01*
X037494Y014110D01*
X037552Y014085D01*
X037608Y014056D01*
X037662Y014024D01*
X037714Y013989D01*
X037763Y013951D01*
X037811Y013909D01*
X037855Y013865D01*
X037897Y013817D01*
X037935Y013768D01*
X037970Y013716D01*
X038002Y013662D01*
X038031Y013606D01*
X038056Y013548D01*
X038077Y013489D01*
X038095Y013429D01*
X038108Y013367D01*
X038118Y013305D01*
X038124Y013243D01*
X038126Y013180D01*
X038124Y013117D01*
X038118Y013055D01*
X038108Y012993D01*
X038095Y012931D01*
X038077Y012871D01*
X038056Y012812D01*
X038031Y012754D01*
X038002Y012698D01*
X037970Y012644D01*
X037935Y012592D01*
X037897Y012543D01*
X037855Y012495D01*
X037811Y012451D01*
X037763Y012409D01*
X037714Y012371D01*
X037662Y012336D01*
X037608Y012304D01*
X037552Y012275D01*
X037494Y012250D01*
X037435Y012229D01*
X037375Y012211D01*
X037313Y012198D01*
X037251Y012188D01*
X037189Y012182D01*
X037126Y012180D01*
X037063Y012182D01*
X037001Y012188D01*
X036939Y012198D01*
X036877Y012211D01*
X036817Y012229D01*
X036758Y012250D01*
X036700Y012275D01*
X036644Y012304D01*
X036590Y012336D01*
X036538Y012371D01*
X036489Y012409D01*
X036441Y012451D01*
X036397Y012495D01*
X036355Y012543D01*
X036317Y012592D01*
X036282Y012644D01*
X036250Y012698D01*
X036221Y012754D01*
X036196Y012812D01*
X036175Y012871D01*
X036157Y012931D01*
X036144Y012993D01*
X036134Y013055D01*
X036128Y013117D01*
X036126Y013180D01*
X036126Y010180D02*
X036128Y010243D01*
X036134Y010305D01*
X036144Y010367D01*
X036157Y010429D01*
X036175Y010489D01*
X036196Y010548D01*
X036221Y010606D01*
X036250Y010662D01*
X036282Y010716D01*
X036317Y010768D01*
X036355Y010817D01*
X036397Y010865D01*
X036441Y010909D01*
X036489Y010951D01*
X036538Y010989D01*
X036590Y011024D01*
X036644Y011056D01*
X036700Y011085D01*
X036758Y011110D01*
X036817Y011131D01*
X036877Y011149D01*
X036939Y011162D01*
X037001Y011172D01*
X037063Y011178D01*
X037126Y011180D01*
X037189Y011178D01*
X037251Y011172D01*
X037313Y011162D01*
X037375Y011149D01*
X037435Y011131D01*
X037494Y011110D01*
X037552Y011085D01*
X037608Y011056D01*
X037662Y011024D01*
X037714Y010989D01*
X037763Y010951D01*
X037811Y010909D01*
X037855Y010865D01*
X037897Y010817D01*
X037935Y010768D01*
X037970Y010716D01*
X038002Y010662D01*
X038031Y010606D01*
X038056Y010548D01*
X038077Y010489D01*
X038095Y010429D01*
X038108Y010367D01*
X038118Y010305D01*
X038124Y010243D01*
X038126Y010180D01*
X038124Y010117D01*
X038118Y010055D01*
X038108Y009993D01*
X038095Y009931D01*
X038077Y009871D01*
X038056Y009812D01*
X038031Y009754D01*
X038002Y009698D01*
X037970Y009644D01*
X037935Y009592D01*
X037897Y009543D01*
X037855Y009495D01*
X037811Y009451D01*
X037763Y009409D01*
X037714Y009371D01*
X037662Y009336D01*
X037608Y009304D01*
X037552Y009275D01*
X037494Y009250D01*
X037435Y009229D01*
X037375Y009211D01*
X037313Y009198D01*
X037251Y009188D01*
X037189Y009182D01*
X037126Y009180D01*
X037063Y009182D01*
X037001Y009188D01*
X036939Y009198D01*
X036877Y009211D01*
X036817Y009229D01*
X036758Y009250D01*
X036700Y009275D01*
X036644Y009304D01*
X036590Y009336D01*
X036538Y009371D01*
X036489Y009409D01*
X036441Y009451D01*
X036397Y009495D01*
X036355Y009543D01*
X036317Y009592D01*
X036282Y009644D01*
X036250Y009698D01*
X036221Y009754D01*
X036196Y009812D01*
X036175Y009871D01*
X036157Y009931D01*
X036144Y009993D01*
X036134Y010055D01*
X036128Y010117D01*
X036126Y010180D01*
X039476Y017180D02*
X039478Y017247D01*
X039484Y017315D01*
X039494Y017382D01*
X039508Y017448D01*
X039525Y017513D01*
X039547Y017577D01*
X039572Y017640D01*
X039601Y017701D01*
X039633Y017760D01*
X039669Y017817D01*
X039708Y017872D01*
X039750Y017925D01*
X039795Y017975D01*
X039843Y018022D01*
X039894Y018067D01*
X039947Y018108D01*
X040003Y018147D01*
X040061Y018182D01*
X040121Y018213D01*
X040182Y018241D01*
X040245Y018265D01*
X040309Y018286D01*
X040375Y018302D01*
X040441Y018315D01*
X040508Y018324D01*
X040575Y018329D01*
X040643Y018330D01*
X040710Y018327D01*
X040777Y018320D01*
X040844Y018309D01*
X040910Y018294D01*
X040975Y018276D01*
X041039Y018253D01*
X041101Y018227D01*
X041162Y018198D01*
X041220Y018164D01*
X041277Y018128D01*
X041332Y018088D01*
X041384Y018045D01*
X041433Y017999D01*
X041480Y017950D01*
X041524Y017899D01*
X041564Y017845D01*
X041602Y017789D01*
X041636Y017730D01*
X041666Y017670D01*
X041693Y017608D01*
X041717Y017545D01*
X041736Y017480D01*
X041752Y017415D01*
X041764Y017348D01*
X041772Y017281D01*
X041776Y017214D01*
X041776Y017146D01*
X041772Y017079D01*
X041764Y017012D01*
X041752Y016945D01*
X041736Y016880D01*
X041717Y016815D01*
X041693Y016752D01*
X041666Y016690D01*
X041636Y016630D01*
X041602Y016571D01*
X041564Y016515D01*
X041524Y016461D01*
X041480Y016410D01*
X041433Y016361D01*
X041384Y016315D01*
X041332Y016272D01*
X041277Y016232D01*
X041220Y016196D01*
X041162Y016162D01*
X041101Y016133D01*
X041039Y016107D01*
X040975Y016084D01*
X040910Y016066D01*
X040844Y016051D01*
X040777Y016040D01*
X040710Y016033D01*
X040643Y016030D01*
X040575Y016031D01*
X040508Y016036D01*
X040441Y016045D01*
X040375Y016058D01*
X040309Y016074D01*
X040245Y016095D01*
X040182Y016119D01*
X040121Y016147D01*
X040061Y016178D01*
X040003Y016213D01*
X039947Y016252D01*
X039894Y016293D01*
X039843Y016338D01*
X039795Y016385D01*
X039750Y016435D01*
X039708Y016488D01*
X039669Y016543D01*
X039633Y016600D01*
X039601Y016659D01*
X039572Y016720D01*
X039547Y016783D01*
X039525Y016847D01*
X039508Y016912D01*
X039494Y016978D01*
X039484Y017045D01*
X039478Y017113D01*
X039476Y017180D01*
X038626Y020730D02*
X038476Y020730D01*
X038459Y020732D01*
X038442Y020736D01*
X038426Y020743D01*
X038412Y020753D01*
X038399Y020766D01*
X038389Y020780D01*
X038382Y020796D01*
X038378Y020813D01*
X038376Y020830D01*
X038376Y021530D01*
X038378Y021547D01*
X038382Y021564D01*
X038389Y021580D01*
X038399Y021594D01*
X038412Y021607D01*
X038426Y021617D01*
X038442Y021624D01*
X038459Y021628D01*
X038476Y021630D01*
X038626Y021630D01*
X038676Y021580D01*
X040576Y021580D01*
X040626Y021630D01*
X040776Y021630D01*
X040776Y021730D02*
X040626Y021730D01*
X040576Y021780D01*
X038676Y021780D01*
X038626Y021730D01*
X038476Y021730D01*
X038459Y021732D01*
X038442Y021736D01*
X038426Y021743D01*
X038412Y021753D01*
X038399Y021766D01*
X038389Y021780D01*
X038382Y021796D01*
X038378Y021813D01*
X038376Y021830D01*
X038376Y022530D01*
X038378Y022547D01*
X038382Y022564D01*
X038389Y022580D01*
X038399Y022594D01*
X038412Y022607D01*
X038426Y022617D01*
X038442Y022624D01*
X038459Y022628D01*
X038476Y022630D01*
X038626Y022630D01*
X038676Y022580D01*
X040576Y022580D01*
X040626Y022630D01*
X040776Y022630D01*
X040776Y022730D02*
X040626Y022730D01*
X040576Y022780D01*
X038676Y022780D01*
X038626Y022730D01*
X038476Y022730D01*
X038459Y022732D01*
X038442Y022736D01*
X038426Y022743D01*
X038412Y022753D01*
X038399Y022766D01*
X038389Y022780D01*
X038382Y022796D01*
X038378Y022813D01*
X038376Y022830D01*
X038376Y023530D01*
X038378Y023547D01*
X038382Y023564D01*
X038389Y023580D01*
X038399Y023594D01*
X038412Y023607D01*
X038426Y023617D01*
X038442Y023624D01*
X038459Y023628D01*
X038476Y023630D01*
X038626Y023630D01*
X038676Y023580D01*
X040576Y023580D01*
X040626Y023630D01*
X040776Y023630D01*
X040793Y023628D01*
X040810Y023624D01*
X040826Y023617D01*
X040840Y023607D01*
X040853Y023594D01*
X040863Y023580D01*
X040870Y023564D01*
X040874Y023547D01*
X040876Y023530D01*
X040876Y022830D01*
X040874Y022813D01*
X040870Y022796D01*
X040863Y022780D01*
X040853Y022766D01*
X040840Y022753D01*
X040826Y022743D01*
X040810Y022736D01*
X040793Y022732D01*
X040776Y022730D01*
X040776Y022630D02*
X040793Y022628D01*
X040810Y022624D01*
X040826Y022617D01*
X040840Y022607D01*
X040853Y022594D01*
X040863Y022580D01*
X040870Y022564D01*
X040874Y022547D01*
X040876Y022530D01*
X040876Y021830D01*
X040874Y021813D01*
X040870Y021796D01*
X040863Y021780D01*
X040853Y021766D01*
X040840Y021753D01*
X040826Y021743D01*
X040810Y021736D01*
X040793Y021732D01*
X040776Y021730D01*
X040776Y021630D02*
X040793Y021628D01*
X040810Y021624D01*
X040826Y021617D01*
X040840Y021607D01*
X040853Y021594D01*
X040863Y021580D01*
X040870Y021564D01*
X040874Y021547D01*
X040876Y021530D01*
X040876Y020830D01*
X040874Y020813D01*
X040870Y020796D01*
X040863Y020780D01*
X040853Y020766D01*
X040840Y020753D01*
X040826Y020743D01*
X040810Y020736D01*
X040793Y020732D01*
X040776Y020730D01*
X040626Y020730D01*
X040576Y020780D01*
X038676Y020780D01*
X038626Y020730D01*
X037126Y020930D02*
X036876Y020680D01*
X035376Y020680D01*
X035126Y020930D01*
X035126Y021430D01*
X035376Y021680D01*
X036876Y021680D01*
X037126Y021930D01*
X037126Y022430D01*
X036876Y022680D01*
X035376Y022680D01*
X035126Y022930D01*
X035126Y023430D01*
X035376Y023680D01*
X036876Y023680D01*
X037126Y023930D01*
X037126Y024430D01*
X036876Y024680D01*
X035376Y024680D01*
X035126Y024930D01*
X035126Y025430D01*
X035376Y025680D01*
X036876Y025680D01*
X037126Y025930D01*
X037126Y026430D01*
X036876Y026680D01*
X035376Y026680D01*
X035126Y026930D01*
X035126Y027430D01*
X035376Y027680D01*
X036876Y027680D01*
X037126Y027430D01*
X037126Y026930D01*
X036876Y026680D01*
X036876Y025680D02*
X037126Y025430D01*
X037126Y024930D01*
X036876Y024680D01*
X036876Y023680D02*
X037126Y023430D01*
X037126Y022930D01*
X036876Y022680D01*
X036876Y021680D02*
X037126Y021430D01*
X037126Y020930D01*
X035376Y021680D02*
X035126Y021930D01*
X035126Y022430D01*
X035376Y022680D01*
X035376Y023680D02*
X035126Y023930D01*
X035126Y024430D01*
X035376Y024680D01*
X035376Y025680D02*
X035126Y025930D01*
X035126Y026430D01*
X035376Y026680D01*
X035376Y027680D02*
X035126Y027930D01*
X035126Y028430D01*
X035376Y028680D01*
X036876Y028680D01*
X037126Y028430D01*
X037126Y027930D01*
X036876Y027680D01*
X038376Y027530D02*
X038376Y026830D01*
X038378Y026813D01*
X038382Y026796D01*
X038389Y026780D01*
X038399Y026766D01*
X038412Y026753D01*
X038426Y026743D01*
X038442Y026736D01*
X038459Y026732D01*
X038476Y026730D01*
X038626Y026730D01*
X038676Y026780D01*
X040576Y026780D01*
X040626Y026730D01*
X040776Y026730D01*
X040793Y026732D01*
X040810Y026736D01*
X040826Y026743D01*
X040840Y026753D01*
X040853Y026766D01*
X040863Y026780D01*
X040870Y026796D01*
X040874Y026813D01*
X040876Y026830D01*
X040876Y027530D01*
X040874Y027547D01*
X040870Y027564D01*
X040863Y027580D01*
X040853Y027594D01*
X040840Y027607D01*
X040826Y027617D01*
X040810Y027624D01*
X040793Y027628D01*
X040776Y027630D01*
X040626Y027630D01*
X040576Y027580D01*
X038676Y027580D01*
X038626Y027630D01*
X038476Y027630D01*
X038476Y027730D02*
X038626Y027730D01*
X038676Y027780D01*
X040576Y027780D01*
X040626Y027730D01*
X040776Y027730D01*
X040793Y027732D01*
X040810Y027736D01*
X040826Y027743D01*
X040840Y027753D01*
X040853Y027766D01*
X040863Y027780D01*
X040870Y027796D01*
X040874Y027813D01*
X040876Y027830D01*
X040876Y028530D01*
X040874Y028547D01*
X040870Y028564D01*
X040863Y028580D01*
X040853Y028594D01*
X040840Y028607D01*
X040826Y028617D01*
X040810Y028624D01*
X040793Y028628D01*
X040776Y028630D01*
X040626Y028630D01*
X040576Y028580D01*
X038676Y028580D01*
X038626Y028630D01*
X038476Y028630D01*
X038459Y028628D01*
X038442Y028624D01*
X038426Y028617D01*
X038412Y028607D01*
X038399Y028594D01*
X038389Y028580D01*
X038382Y028564D01*
X038378Y028547D01*
X038376Y028530D01*
X038376Y027830D01*
X038378Y027813D01*
X038382Y027796D01*
X038389Y027780D01*
X038399Y027766D01*
X038412Y027753D01*
X038426Y027743D01*
X038442Y027736D01*
X038459Y027732D01*
X038476Y027730D01*
X038476Y027630D02*
X038459Y027628D01*
X038442Y027624D01*
X038426Y027617D01*
X038412Y027607D01*
X038399Y027594D01*
X038389Y027580D01*
X038382Y027564D01*
X038378Y027547D01*
X038376Y027530D01*
X038476Y026630D02*
X038626Y026630D01*
X038676Y026580D01*
X040576Y026580D01*
X040626Y026630D01*
X040776Y026630D01*
X040793Y026628D01*
X040810Y026624D01*
X040826Y026617D01*
X040840Y026607D01*
X040853Y026594D01*
X040863Y026580D01*
X040870Y026564D01*
X040874Y026547D01*
X040876Y026530D01*
X040876Y025830D01*
X040874Y025813D01*
X040870Y025796D01*
X040863Y025780D01*
X040853Y025766D01*
X040840Y025753D01*
X040826Y025743D01*
X040810Y025736D01*
X040793Y025732D01*
X040776Y025730D01*
X040626Y025730D01*
X040576Y025780D01*
X038676Y025780D01*
X038626Y025730D01*
X038476Y025730D01*
X038476Y025630D02*
X038626Y025630D01*
X038676Y025580D01*
X040576Y025580D01*
X040626Y025630D01*
X040776Y025630D01*
X040793Y025628D01*
X040810Y025624D01*
X040826Y025617D01*
X040840Y025607D01*
X040853Y025594D01*
X040863Y025580D01*
X040870Y025564D01*
X040874Y025547D01*
X040876Y025530D01*
X040876Y024830D01*
X040874Y024813D01*
X040870Y024796D01*
X040863Y024780D01*
X040853Y024766D01*
X040840Y024753D01*
X040826Y024743D01*
X040810Y024736D01*
X040793Y024732D01*
X040776Y024730D01*
X040626Y024730D01*
X040576Y024780D01*
X038676Y024780D01*
X038626Y024730D01*
X038476Y024730D01*
X038459Y024732D01*
X038442Y024736D01*
X038426Y024743D01*
X038412Y024753D01*
X038399Y024766D01*
X038389Y024780D01*
X038382Y024796D01*
X038378Y024813D01*
X038376Y024830D01*
X038376Y025530D01*
X038378Y025547D01*
X038382Y025564D01*
X038389Y025580D01*
X038399Y025594D01*
X038412Y025607D01*
X038426Y025617D01*
X038442Y025624D01*
X038459Y025628D01*
X038476Y025630D01*
X038476Y025730D02*
X038459Y025732D01*
X038442Y025736D01*
X038426Y025743D01*
X038412Y025753D01*
X038399Y025766D01*
X038389Y025780D01*
X038382Y025796D01*
X038378Y025813D01*
X038376Y025830D01*
X038376Y026530D01*
X038378Y026547D01*
X038382Y026564D01*
X038389Y026580D01*
X038399Y026594D01*
X038412Y026607D01*
X038426Y026617D01*
X038442Y026624D01*
X038459Y026628D01*
X038476Y026630D01*
X038476Y024630D02*
X038626Y024630D01*
X038676Y024580D01*
X040576Y024580D01*
X040626Y024630D01*
X040776Y024630D01*
X040793Y024628D01*
X040810Y024624D01*
X040826Y024617D01*
X040840Y024607D01*
X040853Y024594D01*
X040863Y024580D01*
X040870Y024564D01*
X040874Y024547D01*
X040876Y024530D01*
X040876Y023830D01*
X040874Y023813D01*
X040870Y023796D01*
X040863Y023780D01*
X040853Y023766D01*
X040840Y023753D01*
X040826Y023743D01*
X040810Y023736D01*
X040793Y023732D01*
X040776Y023730D01*
X040626Y023730D01*
X040576Y023780D01*
X038676Y023780D01*
X038626Y023730D01*
X038476Y023730D01*
X038459Y023732D01*
X038442Y023736D01*
X038426Y023743D01*
X038412Y023753D01*
X038399Y023766D01*
X038389Y023780D01*
X038382Y023796D01*
X038378Y023813D01*
X038376Y023830D01*
X038376Y024530D01*
X038378Y024547D01*
X038382Y024564D01*
X038389Y024580D01*
X038399Y024594D01*
X038412Y024607D01*
X038426Y024617D01*
X038442Y024624D01*
X038459Y024628D01*
X038476Y024630D01*
X033876Y024530D02*
X033876Y023830D01*
X033874Y023813D01*
X033870Y023796D01*
X033863Y023780D01*
X033853Y023766D01*
X033840Y023753D01*
X033826Y023743D01*
X033810Y023736D01*
X033793Y023732D01*
X033776Y023730D01*
X033626Y023730D01*
X033576Y023780D01*
X031676Y023780D01*
X031626Y023730D01*
X031476Y023730D01*
X031459Y023732D01*
X031442Y023736D01*
X031426Y023743D01*
X031412Y023753D01*
X031399Y023766D01*
X031389Y023780D01*
X031382Y023796D01*
X031378Y023813D01*
X031376Y023830D01*
X031376Y024530D01*
X031378Y024547D01*
X031382Y024564D01*
X031389Y024580D01*
X031399Y024594D01*
X031412Y024607D01*
X031426Y024617D01*
X031442Y024624D01*
X031459Y024628D01*
X031476Y024630D01*
X031626Y024630D01*
X031676Y024580D01*
X033576Y024580D01*
X033626Y024630D01*
X033776Y024630D01*
X033793Y024628D01*
X033810Y024624D01*
X033826Y024617D01*
X033840Y024607D01*
X033853Y024594D01*
X033863Y024580D01*
X033870Y024564D01*
X033874Y024547D01*
X033876Y024530D01*
X033776Y024730D02*
X033626Y024730D01*
X033576Y024780D01*
X031676Y024780D01*
X031626Y024730D01*
X031476Y024730D01*
X031459Y024732D01*
X031442Y024736D01*
X031426Y024743D01*
X031412Y024753D01*
X031399Y024766D01*
X031389Y024780D01*
X031382Y024796D01*
X031378Y024813D01*
X031376Y024830D01*
X031376Y025530D01*
X031378Y025547D01*
X031382Y025564D01*
X031389Y025580D01*
X031399Y025594D01*
X031412Y025607D01*
X031426Y025617D01*
X031442Y025624D01*
X031459Y025628D01*
X031476Y025630D01*
X031626Y025630D01*
X031676Y025580D01*
X033576Y025580D01*
X033626Y025630D01*
X033776Y025630D01*
X033793Y025628D01*
X033810Y025624D01*
X033826Y025617D01*
X033840Y025607D01*
X033853Y025594D01*
X033863Y025580D01*
X033870Y025564D01*
X033874Y025547D01*
X033876Y025530D01*
X033876Y024830D01*
X033874Y024813D01*
X033870Y024796D01*
X033863Y024780D01*
X033853Y024766D01*
X033840Y024753D01*
X033826Y024743D01*
X033810Y024736D01*
X033793Y024732D01*
X033776Y024730D01*
X033776Y025730D02*
X033626Y025730D01*
X033576Y025780D01*
X031676Y025780D01*
X031626Y025730D01*
X031476Y025730D01*
X031459Y025732D01*
X031442Y025736D01*
X031426Y025743D01*
X031412Y025753D01*
X031399Y025766D01*
X031389Y025780D01*
X031382Y025796D01*
X031378Y025813D01*
X031376Y025830D01*
X031376Y026530D01*
X031378Y026547D01*
X031382Y026564D01*
X031389Y026580D01*
X031399Y026594D01*
X031412Y026607D01*
X031426Y026617D01*
X031442Y026624D01*
X031459Y026628D01*
X031476Y026630D01*
X031626Y026630D01*
X031676Y026580D01*
X033576Y026580D01*
X033626Y026630D01*
X033776Y026630D01*
X033793Y026628D01*
X033810Y026624D01*
X033826Y026617D01*
X033840Y026607D01*
X033853Y026594D01*
X033863Y026580D01*
X033870Y026564D01*
X033874Y026547D01*
X033876Y026530D01*
X033876Y025830D01*
X033874Y025813D01*
X033870Y025796D01*
X033863Y025780D01*
X033853Y025766D01*
X033840Y025753D01*
X033826Y025743D01*
X033810Y025736D01*
X033793Y025732D01*
X033776Y025730D01*
X033776Y026730D02*
X033626Y026730D01*
X033576Y026780D01*
X031676Y026780D01*
X031626Y026730D01*
X031476Y026730D01*
X031459Y026732D01*
X031442Y026736D01*
X031426Y026743D01*
X031412Y026753D01*
X031399Y026766D01*
X031389Y026780D01*
X031382Y026796D01*
X031378Y026813D01*
X031376Y026830D01*
X031376Y027530D01*
X031378Y027547D01*
X031382Y027564D01*
X031389Y027580D01*
X031399Y027594D01*
X031412Y027607D01*
X031426Y027617D01*
X031442Y027624D01*
X031459Y027628D01*
X031476Y027630D01*
X031626Y027630D01*
X031676Y027580D01*
X033576Y027580D01*
X033626Y027630D01*
X033776Y027630D01*
X033776Y027730D02*
X033626Y027730D01*
X033576Y027780D01*
X031676Y027780D01*
X031626Y027730D01*
X031476Y027730D01*
X031459Y027732D01*
X031442Y027736D01*
X031426Y027743D01*
X031412Y027753D01*
X031399Y027766D01*
X031389Y027780D01*
X031382Y027796D01*
X031378Y027813D01*
X031376Y027830D01*
X031376Y028530D01*
X031378Y028547D01*
X031382Y028564D01*
X031389Y028580D01*
X031399Y028594D01*
X031412Y028607D01*
X031426Y028617D01*
X031442Y028624D01*
X031459Y028628D01*
X031476Y028630D01*
X031626Y028630D01*
X031676Y028580D01*
X033576Y028580D01*
X033626Y028630D01*
X033776Y028630D01*
X033793Y028628D01*
X033810Y028624D01*
X033826Y028617D01*
X033840Y028607D01*
X033853Y028594D01*
X033863Y028580D01*
X033870Y028564D01*
X033874Y028547D01*
X033876Y028530D01*
X033876Y027830D01*
X033874Y027813D01*
X033870Y027796D01*
X033863Y027780D01*
X033853Y027766D01*
X033840Y027753D01*
X033826Y027743D01*
X033810Y027736D01*
X033793Y027732D01*
X033776Y027730D01*
X033776Y027630D02*
X033793Y027628D01*
X033810Y027624D01*
X033826Y027617D01*
X033840Y027607D01*
X033853Y027594D01*
X033863Y027580D01*
X033870Y027564D01*
X033874Y027547D01*
X033876Y027530D01*
X033876Y026830D01*
X033874Y026813D01*
X033870Y026796D01*
X033863Y026780D01*
X033853Y026766D01*
X033840Y026753D01*
X033826Y026743D01*
X033810Y026736D01*
X033793Y026732D01*
X033776Y026730D01*
X033776Y023630D02*
X033626Y023630D01*
X033576Y023580D01*
X031676Y023580D01*
X031626Y023630D01*
X031476Y023630D01*
X031459Y023628D01*
X031442Y023624D01*
X031426Y023617D01*
X031412Y023607D01*
X031399Y023594D01*
X031389Y023580D01*
X031382Y023564D01*
X031378Y023547D01*
X031376Y023530D01*
X031376Y022830D01*
X031378Y022813D01*
X031382Y022796D01*
X031389Y022780D01*
X031399Y022766D01*
X031412Y022753D01*
X031426Y022743D01*
X031442Y022736D01*
X031459Y022732D01*
X031476Y022730D01*
X031626Y022730D01*
X031676Y022780D01*
X033576Y022780D01*
X033626Y022730D01*
X033776Y022730D01*
X033793Y022732D01*
X033810Y022736D01*
X033826Y022743D01*
X033840Y022753D01*
X033853Y022766D01*
X033863Y022780D01*
X033870Y022796D01*
X033874Y022813D01*
X033876Y022830D01*
X033876Y023530D01*
X033874Y023547D01*
X033870Y023564D01*
X033863Y023580D01*
X033853Y023594D01*
X033840Y023607D01*
X033826Y023617D01*
X033810Y023624D01*
X033793Y023628D01*
X033776Y023630D01*
X033776Y022630D02*
X033626Y022630D01*
X033576Y022580D01*
X031676Y022580D01*
X031626Y022630D01*
X031476Y022630D01*
X031459Y022628D01*
X031442Y022624D01*
X031426Y022617D01*
X031412Y022607D01*
X031399Y022594D01*
X031389Y022580D01*
X031382Y022564D01*
X031378Y022547D01*
X031376Y022530D01*
X031376Y021830D01*
X031378Y021813D01*
X031382Y021796D01*
X031389Y021780D01*
X031399Y021766D01*
X031412Y021753D01*
X031426Y021743D01*
X031442Y021736D01*
X031459Y021732D01*
X031476Y021730D01*
X031626Y021730D01*
X031676Y021780D01*
X033576Y021780D01*
X033626Y021730D01*
X033776Y021730D01*
X033793Y021732D01*
X033810Y021736D01*
X033826Y021743D01*
X033840Y021753D01*
X033853Y021766D01*
X033863Y021780D01*
X033870Y021796D01*
X033874Y021813D01*
X033876Y021830D01*
X033876Y022530D01*
X033874Y022547D01*
X033870Y022564D01*
X033863Y022580D01*
X033853Y022594D01*
X033840Y022607D01*
X033826Y022617D01*
X033810Y022624D01*
X033793Y022628D01*
X033776Y022630D01*
X033776Y021630D02*
X033626Y021630D01*
X033576Y021580D01*
X031676Y021580D01*
X031626Y021630D01*
X031476Y021630D01*
X031459Y021628D01*
X031442Y021624D01*
X031426Y021617D01*
X031412Y021607D01*
X031399Y021594D01*
X031389Y021580D01*
X031382Y021564D01*
X031378Y021547D01*
X031376Y021530D01*
X031376Y020830D01*
X031378Y020813D01*
X031382Y020796D01*
X031389Y020780D01*
X031399Y020766D01*
X031412Y020753D01*
X031426Y020743D01*
X031442Y020736D01*
X031459Y020732D01*
X031476Y020730D01*
X031626Y020730D01*
X031676Y020780D01*
X033576Y020780D01*
X033626Y020730D01*
X033776Y020730D01*
X033793Y020732D01*
X033810Y020736D01*
X033826Y020743D01*
X033840Y020753D01*
X033853Y020766D01*
X033863Y020780D01*
X033870Y020796D01*
X033874Y020813D01*
X033876Y020830D01*
X033876Y021530D01*
X033874Y021547D01*
X033870Y021564D01*
X033863Y021580D01*
X033853Y021594D01*
X033840Y021607D01*
X033826Y021617D01*
X033810Y021624D01*
X033793Y021628D01*
X033776Y021630D01*
X027276Y021680D02*
X026526Y021680D01*
X026524Y021719D01*
X026518Y021758D01*
X026509Y021796D01*
X026496Y021833D01*
X026479Y021869D01*
X026459Y021902D01*
X026435Y021934D01*
X026409Y021963D01*
X026380Y021989D01*
X026348Y022013D01*
X026315Y022033D01*
X026279Y022050D01*
X026242Y022063D01*
X026204Y022072D01*
X026165Y022078D01*
X026126Y022080D01*
X026087Y022078D01*
X026048Y022072D01*
X026010Y022063D01*
X025973Y022050D01*
X025937Y022033D01*
X025904Y022013D01*
X025872Y021989D01*
X025843Y021963D01*
X025817Y021934D01*
X025793Y021902D01*
X025773Y021869D01*
X025756Y021833D01*
X025743Y021796D01*
X025734Y021758D01*
X025728Y021719D01*
X025726Y021680D01*
X024976Y021680D01*
X024976Y028680D01*
X027276Y028680D01*
X027276Y021680D01*
X008426Y002680D02*
X006826Y002680D01*
X006826Y001680D01*
X008426Y001680D01*
X008426Y002680D01*
X007876Y002180D02*
X007626Y002180D01*
X007626Y002430D01*
X007626Y002180D02*
X007626Y001930D01*
X007626Y002180D02*
X007026Y002180D01*
X007226Y002430D02*
X007626Y002180D01*
X007226Y001930D01*
X007226Y002430D01*
D14*
X009116Y005060D02*
X009296Y005060D01*
X009936Y005060D02*
X010136Y005060D01*
X021076Y008680D02*
X021076Y009680D01*
X023176Y009680D01*
X023176Y008680D01*
X021076Y008680D01*
X022126Y008930D02*
X022126Y009430D01*
X023176Y015680D02*
X021076Y015680D01*
X021076Y016680D01*
X023176Y016680D01*
X023176Y015680D01*
X022126Y015930D02*
X022126Y016430D01*
X022626Y021630D02*
X023626Y021630D01*
X023626Y023730D01*
X022626Y023730D01*
X022626Y021630D01*
X022876Y022680D02*
X023376Y022680D01*
X017626Y021630D02*
X016626Y021630D01*
X016626Y023730D01*
X017626Y023730D01*
X017626Y021630D01*
X017376Y022680D02*
X016876Y022680D01*
X011626Y021630D02*
X010626Y021630D01*
X010626Y023730D01*
X011626Y023730D01*
X011626Y021630D01*
X011376Y022680D02*
X010876Y022680D01*
X005626Y021630D02*
X004626Y021630D01*
X004626Y023730D01*
X005626Y023730D01*
X005626Y021630D01*
X005376Y022680D02*
X004876Y022680D01*
D15*
X011796Y009325D02*
X011886Y009325D01*
X011931Y009280D01*
X011931Y009235D01*
X011886Y009190D01*
X011931Y009145D01*
X011931Y009100D01*
X011886Y009055D01*
X011796Y009055D01*
X011751Y009100D01*
X011841Y009190D02*
X011886Y009190D01*
X011751Y009280D02*
X011796Y009325D01*
X012045Y009280D02*
X012090Y009325D01*
X012180Y009325D01*
X012225Y009280D01*
X012225Y009235D01*
X012180Y009190D01*
X012225Y009145D01*
X012225Y009100D01*
X012180Y009055D01*
X012090Y009055D01*
X012045Y009100D01*
X012135Y009190D02*
X012180Y009190D01*
X012340Y009100D02*
X012340Y009280D01*
X012385Y009325D01*
X012475Y009325D01*
X012520Y009280D01*
X012340Y009100D01*
X012385Y009055D01*
X012475Y009055D01*
X012520Y009100D01*
X012520Y009280D01*
X031751Y008280D02*
X031796Y008325D01*
X031886Y008325D01*
X031931Y008280D01*
X031931Y008235D01*
X031751Y008055D01*
X031931Y008055D01*
X032045Y008055D02*
X032045Y008325D01*
X032180Y008235D02*
X032045Y008145D01*
X032180Y008055D01*
X032291Y008055D02*
X032471Y008235D01*
X032471Y008280D01*
X032426Y008325D01*
X032336Y008325D01*
X032291Y008280D01*
X032291Y008055D02*
X032471Y008055D01*
X032426Y006325D02*
X032336Y006325D01*
X032291Y006280D01*
X032180Y006235D02*
X032045Y006145D01*
X032180Y006055D01*
X032291Y006055D02*
X032471Y006235D01*
X032471Y006280D01*
X032426Y006325D01*
X032471Y006055D02*
X032291Y006055D01*
X032045Y006055D02*
X032045Y006325D01*
X031931Y006280D02*
X031886Y006325D01*
X031796Y006325D01*
X031751Y006280D01*
X031931Y006280D02*
X031931Y006235D01*
X031751Y006055D01*
X031931Y006055D01*
X031886Y004325D02*
X031796Y004325D01*
X031751Y004280D01*
X031886Y004325D02*
X031931Y004280D01*
X031931Y004235D01*
X031751Y004055D01*
X031931Y004055D01*
X032045Y004055D02*
X032045Y004325D01*
X032180Y004235D02*
X032045Y004145D01*
X032180Y004055D01*
X032291Y004055D02*
X032471Y004235D01*
X032471Y004280D01*
X032426Y004325D01*
X032336Y004325D01*
X032291Y004280D01*
X032291Y004055D02*
X032471Y004055D01*
X032426Y002325D02*
X032336Y002325D01*
X032291Y002280D01*
X032180Y002235D02*
X032045Y002145D01*
X032180Y002055D01*
X032291Y002055D02*
X032471Y002235D01*
X032471Y002280D01*
X032426Y002325D01*
X032471Y002055D02*
X032291Y002055D01*
X032045Y002055D02*
X032045Y002325D01*
X031931Y002280D02*
X031886Y002325D01*
X031796Y002325D01*
X031751Y002280D01*
X031931Y002280D02*
X031931Y002235D01*
X031751Y002055D01*
X031931Y002055D01*
D16*
X024626Y004760D03*
X024626Y007600D03*
D17*
X031206Y010180D03*
X034046Y010180D03*
X034046Y013180D03*
X031206Y013180D03*
X031206Y021180D03*
X031206Y022180D03*
X031206Y023180D03*
X031206Y024180D03*
X031206Y025180D03*
X031206Y026180D03*
X031206Y027180D03*
X031206Y028180D03*
X034046Y028180D03*
X034046Y027180D03*
X034046Y026180D03*
X034046Y025180D03*
X034046Y024180D03*
X034046Y023180D03*
X034046Y022180D03*
X034046Y021180D03*
X038206Y021180D03*
X038206Y022180D03*
X038206Y023180D03*
X038206Y024180D03*
X038206Y025180D03*
X038206Y026180D03*
X038206Y027180D03*
X038206Y028180D03*
X041046Y028180D03*
X041046Y027180D03*
X041046Y026180D03*
X041046Y025180D03*
X041046Y024180D03*
X041046Y023180D03*
X041046Y022180D03*
X041046Y021180D03*
D18*
X038158Y013960D02*
X038086Y013906D01*
X038087Y013907D02*
X038044Y013960D01*
X037999Y014011D01*
X037950Y014059D01*
X037899Y014104D01*
X037845Y014147D01*
X037789Y014186D01*
X037731Y014222D01*
X037671Y014255D01*
X037610Y014284D01*
X037546Y014309D01*
X037482Y014331D01*
X037416Y014350D01*
X037349Y014364D01*
X037282Y014375D01*
X037214Y014382D01*
X037146Y014385D01*
X037077Y014384D01*
X037009Y014379D01*
X036941Y014371D01*
X036874Y014358D01*
X036808Y014342D01*
X036743Y014322D01*
X036678Y014299D01*
X036616Y014272D01*
X036555Y014241D01*
X036496Y014207D01*
X036438Y014170D01*
X036383Y014129D01*
X036331Y014085D01*
X036281Y014039D01*
X036234Y013990D01*
X036189Y013938D01*
X036148Y013884D01*
X036109Y013827D01*
X036074Y013768D01*
X036043Y013708D01*
X036015Y013646D01*
X035990Y013582D01*
X035969Y013517D01*
X035952Y013451D01*
X035938Y013384D01*
X035929Y013316D01*
X035923Y013248D01*
X035921Y013180D01*
X035923Y013112D01*
X035929Y013044D01*
X035938Y012976D01*
X035952Y012909D01*
X035969Y012843D01*
X035990Y012778D01*
X036015Y012714D01*
X036043Y012652D01*
X036074Y012592D01*
X036109Y012533D01*
X036148Y012476D01*
X036189Y012422D01*
X036234Y012370D01*
X036281Y012321D01*
X036331Y012275D01*
X036383Y012231D01*
X036438Y012190D01*
X036496Y012153D01*
X036555Y012119D01*
X036616Y012088D01*
X036678Y012061D01*
X036743Y012038D01*
X036808Y012018D01*
X036874Y012002D01*
X036941Y011989D01*
X037009Y011981D01*
X037077Y011976D01*
X037146Y011975D01*
X037214Y011978D01*
X037282Y011985D01*
X037349Y011996D01*
X037416Y012010D01*
X037482Y012029D01*
X037546Y012051D01*
X037610Y012076D01*
X037671Y012105D01*
X037731Y012138D01*
X037789Y012174D01*
X037845Y012213D01*
X037899Y012256D01*
X037950Y012301D01*
X037999Y012349D01*
X038044Y012400D01*
X038087Y012453D01*
X038158Y012400D01*
X038159Y012399D01*
X038115Y012344D01*
X038067Y012291D01*
X038017Y012240D01*
X037964Y012193D01*
X037909Y012149D01*
X037851Y012107D01*
X037791Y012069D01*
X037730Y012034D01*
X037666Y012003D01*
X037601Y011975D01*
X037534Y011951D01*
X037466Y011930D01*
X037397Y011914D01*
X037327Y011901D01*
X037257Y011892D01*
X037186Y011886D01*
X037115Y011885D01*
X037044Y011888D01*
X036973Y011894D01*
X036903Y011904D01*
X036834Y011918D01*
X036765Y011936D01*
X036697Y011958D01*
X036631Y011983D01*
X036566Y012012D01*
X036503Y012045D01*
X036442Y012081D01*
X036383Y012120D01*
X036326Y012162D01*
X036271Y012207D01*
X036219Y012256D01*
X036170Y012307D01*
X036123Y012360D01*
X036080Y012417D01*
X036040Y012475D01*
X036003Y012536D01*
X035969Y012598D01*
X035939Y012662D01*
X035912Y012728D01*
X035889Y012795D01*
X035870Y012864D01*
X035855Y012933D01*
X035843Y013003D01*
X035835Y013074D01*
X035831Y013145D01*
X035831Y013215D01*
X035835Y013286D01*
X035843Y013357D01*
X035855Y013427D01*
X035870Y013496D01*
X035889Y013565D01*
X035912Y013632D01*
X035939Y013698D01*
X035969Y013762D01*
X036003Y013824D01*
X036040Y013885D01*
X036080Y013943D01*
X036123Y014000D01*
X036170Y014053D01*
X036219Y014104D01*
X036271Y014153D01*
X036326Y014198D01*
X036383Y014240D01*
X036442Y014279D01*
X036503Y014315D01*
X036566Y014348D01*
X036631Y014377D01*
X036697Y014402D01*
X036765Y014424D01*
X036834Y014442D01*
X036903Y014456D01*
X036973Y014466D01*
X037044Y014472D01*
X037115Y014475D01*
X037186Y014474D01*
X037257Y014468D01*
X037327Y014459D01*
X037397Y014446D01*
X037466Y014430D01*
X037534Y014409D01*
X037601Y014385D01*
X037666Y014357D01*
X037730Y014326D01*
X037791Y014291D01*
X037851Y014253D01*
X037909Y014211D01*
X037964Y014167D01*
X038017Y014120D01*
X038067Y014069D01*
X038115Y014016D01*
X038159Y013961D01*
X038152Y013956D01*
X038107Y014011D01*
X038060Y014064D01*
X038009Y014115D01*
X037956Y014162D01*
X037900Y014207D01*
X037842Y014248D01*
X037782Y014286D01*
X037720Y014321D01*
X037656Y014352D01*
X037590Y014379D01*
X037523Y014403D01*
X037454Y014423D01*
X037385Y014440D01*
X037315Y014452D01*
X037244Y014461D01*
X037173Y014465D01*
X037102Y014466D01*
X037031Y014462D01*
X036960Y014455D01*
X036889Y014444D01*
X036820Y014429D01*
X036751Y014410D01*
X036683Y014387D01*
X036617Y014361D01*
X036552Y014331D01*
X036490Y014297D01*
X036429Y014261D01*
X036370Y014220D01*
X036313Y014177D01*
X036259Y014130D01*
X036208Y014081D01*
X036160Y014028D01*
X036114Y013974D01*
X036072Y013916D01*
X036033Y013857D01*
X035997Y013795D01*
X035964Y013732D01*
X035936Y013667D01*
X035910Y013600D01*
X035889Y013532D01*
X035871Y013463D01*
X035858Y013393D01*
X035848Y013322D01*
X035842Y013251D01*
X035840Y013180D01*
X035842Y013109D01*
X035848Y013038D01*
X035858Y012967D01*
X035871Y012897D01*
X035889Y012828D01*
X035910Y012760D01*
X035936Y012693D01*
X035964Y012628D01*
X035997Y012565D01*
X036033Y012503D01*
X036072Y012444D01*
X036114Y012386D01*
X036160Y012332D01*
X036208Y012279D01*
X036259Y012230D01*
X036313Y012183D01*
X036370Y012140D01*
X036429Y012099D01*
X036490Y012063D01*
X036552Y012029D01*
X036617Y011999D01*
X036683Y011973D01*
X036751Y011950D01*
X036820Y011931D01*
X036889Y011916D01*
X036960Y011905D01*
X037031Y011898D01*
X037102Y011894D01*
X037173Y011895D01*
X037244Y011899D01*
X037315Y011908D01*
X037385Y011920D01*
X037454Y011937D01*
X037523Y011957D01*
X037590Y011981D01*
X037656Y012008D01*
X037720Y012039D01*
X037782Y012074D01*
X037842Y012112D01*
X037900Y012153D01*
X037956Y012198D01*
X038009Y012245D01*
X038060Y012296D01*
X038107Y012349D01*
X038152Y012404D01*
X038145Y012410D01*
X038100Y012355D01*
X038053Y012302D01*
X038003Y012252D01*
X037950Y012205D01*
X037895Y012161D01*
X037837Y012119D01*
X037778Y012082D01*
X037716Y012047D01*
X037652Y012016D01*
X037587Y011989D01*
X037520Y011965D01*
X037452Y011945D01*
X037383Y011929D01*
X037314Y011917D01*
X037243Y011908D01*
X037173Y011904D01*
X037102Y011903D01*
X037031Y011907D01*
X036961Y011914D01*
X036891Y011925D01*
X036822Y011940D01*
X036754Y011959D01*
X036686Y011981D01*
X036621Y012007D01*
X036556Y012037D01*
X036494Y012070D01*
X036434Y012107D01*
X036375Y012147D01*
X036319Y012190D01*
X036265Y012236D01*
X036215Y012286D01*
X036166Y012337D01*
X036121Y012392D01*
X036079Y012449D01*
X036040Y012508D01*
X036005Y012569D01*
X035972Y012632D01*
X035944Y012697D01*
X035919Y012763D01*
X035898Y012831D01*
X035880Y012899D01*
X035867Y012969D01*
X035857Y013039D01*
X035851Y013109D01*
X035849Y013180D01*
X035851Y013251D01*
X035857Y013321D01*
X035867Y013391D01*
X035880Y013461D01*
X035898Y013529D01*
X035919Y013597D01*
X035944Y013663D01*
X035972Y013728D01*
X036005Y013791D01*
X036040Y013852D01*
X036079Y013911D01*
X036121Y013968D01*
X036166Y014023D01*
X036215Y014074D01*
X036265Y014124D01*
X036319Y014170D01*
X036375Y014213D01*
X036434Y014253D01*
X036494Y014290D01*
X036556Y014323D01*
X036621Y014353D01*
X036686Y014379D01*
X036754Y014401D01*
X036822Y014420D01*
X036891Y014435D01*
X036961Y014446D01*
X037031Y014453D01*
X037102Y014457D01*
X037173Y014456D01*
X037243Y014452D01*
X037314Y014443D01*
X037383Y014431D01*
X037452Y014415D01*
X037520Y014395D01*
X037587Y014371D01*
X037652Y014344D01*
X037716Y014313D01*
X037778Y014278D01*
X037837Y014241D01*
X037895Y014199D01*
X037950Y014155D01*
X038003Y014108D01*
X038053Y014058D01*
X038100Y014005D01*
X038145Y013950D01*
X038137Y013945D01*
X038093Y014000D01*
X038045Y014053D01*
X037995Y014103D01*
X037942Y014151D01*
X037886Y014195D01*
X037828Y014236D01*
X037768Y014273D01*
X037706Y014308D01*
X037642Y014338D01*
X037576Y014365D01*
X037509Y014389D01*
X037441Y014408D01*
X037371Y014424D01*
X037301Y014436D01*
X037231Y014444D01*
X037160Y014448D01*
X037089Y014447D01*
X037018Y014443D01*
X036947Y014435D01*
X036877Y014423D01*
X036808Y014407D01*
X036740Y014388D01*
X036672Y014364D01*
X036607Y014337D01*
X036543Y014306D01*
X036481Y014272D01*
X036421Y014234D01*
X036363Y014192D01*
X036307Y014148D01*
X036254Y014101D01*
X036204Y014050D01*
X036157Y013997D01*
X036112Y013942D01*
X036071Y013884D01*
X036034Y013824D01*
X035999Y013761D01*
X035968Y013697D01*
X035941Y013632D01*
X035918Y013565D01*
X035898Y013496D01*
X035882Y013427D01*
X035870Y013357D01*
X035862Y013286D01*
X035858Y013216D01*
X035858Y013144D01*
X035862Y013074D01*
X035870Y013003D01*
X035882Y012933D01*
X035898Y012864D01*
X035918Y012795D01*
X035941Y012728D01*
X035968Y012663D01*
X035999Y012599D01*
X036034Y012536D01*
X036071Y012476D01*
X036112Y012418D01*
X036157Y012363D01*
X036204Y012310D01*
X036254Y012259D01*
X036307Y012212D01*
X036363Y012168D01*
X036421Y012126D01*
X036481Y012088D01*
X036543Y012054D01*
X036607Y012023D01*
X036672Y011996D01*
X036740Y011972D01*
X036808Y011953D01*
X036877Y011937D01*
X036947Y011925D01*
X037018Y011917D01*
X037089Y011913D01*
X037160Y011912D01*
X037231Y011916D01*
X037301Y011924D01*
X037371Y011936D01*
X037441Y011952D01*
X037509Y011971D01*
X037576Y011995D01*
X037642Y012022D01*
X037706Y012052D01*
X037768Y012087D01*
X037828Y012124D01*
X037886Y012165D01*
X037942Y012209D01*
X037995Y012257D01*
X038045Y012307D01*
X038093Y012360D01*
X038137Y012415D01*
X038130Y012421D01*
X038086Y012366D01*
X038039Y012313D01*
X037989Y012263D01*
X037936Y012216D01*
X037881Y012172D01*
X037823Y012132D01*
X037764Y012094D01*
X037702Y012060D01*
X037638Y012030D01*
X037573Y012003D01*
X037506Y011980D01*
X037438Y011960D01*
X037370Y011945D01*
X037300Y011933D01*
X037230Y011925D01*
X037159Y011921D01*
X037089Y011922D01*
X037018Y011926D01*
X036948Y011934D01*
X036879Y011946D01*
X036810Y011961D01*
X036742Y011981D01*
X036676Y012004D01*
X036611Y012031D01*
X036547Y012062D01*
X036485Y012096D01*
X036426Y012134D01*
X036368Y012175D01*
X036313Y012219D01*
X036260Y012266D01*
X036211Y012316D01*
X036164Y012368D01*
X036120Y012424D01*
X036079Y012481D01*
X036041Y012541D01*
X036007Y012603D01*
X035977Y012666D01*
X035950Y012731D01*
X035926Y012798D01*
X035907Y012866D01*
X035891Y012935D01*
X035879Y013004D01*
X035871Y013074D01*
X035867Y013145D01*
X035867Y013215D01*
X035871Y013286D01*
X035879Y013356D01*
X035891Y013425D01*
X035907Y013494D01*
X035926Y013562D01*
X035950Y013629D01*
X035977Y013694D01*
X036007Y013757D01*
X036041Y013819D01*
X036079Y013879D01*
X036120Y013936D01*
X036164Y013992D01*
X036211Y014044D01*
X036260Y014094D01*
X036313Y014141D01*
X036368Y014185D01*
X036426Y014226D01*
X036485Y014264D01*
X036547Y014298D01*
X036611Y014329D01*
X036676Y014356D01*
X036742Y014379D01*
X036810Y014399D01*
X036879Y014414D01*
X036948Y014426D01*
X037018Y014434D01*
X037089Y014438D01*
X037159Y014439D01*
X037230Y014435D01*
X037300Y014427D01*
X037370Y014415D01*
X037438Y014400D01*
X037506Y014380D01*
X037573Y014357D01*
X037638Y014330D01*
X037702Y014300D01*
X037764Y014266D01*
X037823Y014228D01*
X037881Y014188D01*
X037936Y014144D01*
X037989Y014097D01*
X038039Y014047D01*
X038086Y013994D01*
X038130Y013939D01*
X038123Y013934D01*
X038079Y013989D01*
X038032Y014041D01*
X037983Y014090D01*
X037930Y014137D01*
X037876Y014180D01*
X037818Y014221D01*
X037759Y014258D01*
X037698Y014292D01*
X037634Y014322D01*
X037570Y014349D01*
X037503Y014372D01*
X037436Y014391D01*
X037368Y014406D01*
X037299Y014418D01*
X037229Y014426D01*
X037159Y014430D01*
X037089Y014429D01*
X037019Y014425D01*
X036950Y014417D01*
X036881Y014406D01*
X036812Y014390D01*
X036745Y014371D01*
X036679Y014347D01*
X036614Y014320D01*
X036551Y014290D01*
X036490Y014256D01*
X036431Y014219D01*
X036373Y014178D01*
X036319Y014134D01*
X036267Y014088D01*
X036217Y014038D01*
X036170Y013986D01*
X036127Y013931D01*
X036086Y013874D01*
X036049Y013815D01*
X036015Y013753D01*
X035985Y013690D01*
X035958Y013625D01*
X035935Y013559D01*
X035916Y013492D01*
X035900Y013424D01*
X035888Y013355D01*
X035880Y013285D01*
X035876Y013215D01*
X035876Y013145D01*
X035880Y013075D01*
X035888Y013005D01*
X035900Y012936D01*
X035916Y012868D01*
X035935Y012801D01*
X035958Y012735D01*
X035985Y012670D01*
X036015Y012607D01*
X036049Y012545D01*
X036086Y012486D01*
X036127Y012429D01*
X036170Y012374D01*
X036217Y012322D01*
X036267Y012272D01*
X036319Y012226D01*
X036373Y012182D01*
X036431Y012141D01*
X036490Y012104D01*
X036551Y012070D01*
X036614Y012040D01*
X036679Y012013D01*
X036745Y011989D01*
X036812Y011970D01*
X036881Y011954D01*
X036950Y011943D01*
X037019Y011935D01*
X037089Y011931D01*
X037159Y011930D01*
X037229Y011934D01*
X037299Y011942D01*
X037368Y011954D01*
X037436Y011969D01*
X037503Y011988D01*
X037570Y012011D01*
X037634Y012038D01*
X037698Y012068D01*
X037759Y012102D01*
X037818Y012139D01*
X037876Y012180D01*
X037930Y012223D01*
X037983Y012270D01*
X038032Y012319D01*
X038079Y012371D01*
X038123Y012426D01*
X038116Y012431D01*
X038072Y012377D01*
X038026Y012325D01*
X037977Y012276D01*
X037925Y012230D01*
X037870Y012187D01*
X037813Y012147D01*
X037754Y012110D01*
X037693Y012076D01*
X037631Y012046D01*
X037566Y012020D01*
X037501Y011997D01*
X037434Y011978D01*
X037366Y011962D01*
X037297Y011951D01*
X037228Y011943D01*
X037159Y011939D01*
X037089Y011940D01*
X037020Y011944D01*
X036951Y011951D01*
X036882Y011963D01*
X036815Y011979D01*
X036748Y011998D01*
X036682Y012021D01*
X036618Y012048D01*
X036555Y012078D01*
X036494Y012112D01*
X036436Y012149D01*
X036379Y012189D01*
X036325Y012232D01*
X036273Y012279D01*
X036224Y012328D01*
X036177Y012380D01*
X036134Y012434D01*
X036094Y012491D01*
X036057Y012550D01*
X036023Y012611D01*
X035993Y012674D01*
X035966Y012738D01*
X035943Y012803D01*
X035924Y012870D01*
X035909Y012938D01*
X035897Y013007D01*
X035889Y013076D01*
X035885Y013145D01*
X035885Y013215D01*
X035889Y013284D01*
X035897Y013353D01*
X035909Y013422D01*
X035924Y013490D01*
X035943Y013557D01*
X035966Y013622D01*
X035993Y013686D01*
X036023Y013749D01*
X036057Y013810D01*
X036094Y013869D01*
X036134Y013926D01*
X036177Y013980D01*
X036224Y014032D01*
X036273Y014081D01*
X036325Y014128D01*
X036379Y014171D01*
X036436Y014211D01*
X036494Y014248D01*
X036555Y014282D01*
X036618Y014312D01*
X036682Y014339D01*
X036748Y014362D01*
X036815Y014381D01*
X036882Y014397D01*
X036951Y014409D01*
X037020Y014416D01*
X037089Y014420D01*
X037159Y014421D01*
X037228Y014417D01*
X037297Y014409D01*
X037366Y014398D01*
X037434Y014382D01*
X037501Y014363D01*
X037566Y014340D01*
X037631Y014314D01*
X037693Y014284D01*
X037754Y014250D01*
X037813Y014213D01*
X037870Y014173D01*
X037925Y014130D01*
X037977Y014084D01*
X038026Y014035D01*
X038072Y013983D01*
X038116Y013929D01*
X038109Y013923D01*
X038065Y013977D01*
X038019Y014028D01*
X037970Y014077D01*
X037919Y014123D01*
X037865Y014166D01*
X037808Y014206D01*
X037750Y014242D01*
X037689Y014276D01*
X037627Y014306D01*
X037563Y014332D01*
X037498Y014354D01*
X037432Y014373D01*
X037364Y014389D01*
X037296Y014400D01*
X037228Y014408D01*
X037159Y014412D01*
X037090Y014411D01*
X037021Y014407D01*
X036952Y014400D01*
X036884Y014388D01*
X036817Y014373D01*
X036750Y014353D01*
X036685Y014330D01*
X036622Y014304D01*
X036559Y014274D01*
X036499Y014241D01*
X036441Y014204D01*
X036384Y014164D01*
X036330Y014121D01*
X036279Y014075D01*
X036230Y014026D01*
X036184Y013974D01*
X036141Y013920D01*
X036101Y013864D01*
X036065Y013805D01*
X036031Y013745D01*
X036001Y013683D01*
X035975Y013619D01*
X035952Y013554D01*
X035933Y013487D01*
X035918Y013420D01*
X035906Y013352D01*
X035898Y013283D01*
X035894Y013215D01*
X035894Y013145D01*
X035898Y013077D01*
X035906Y013008D01*
X035918Y012940D01*
X035933Y012873D01*
X035952Y012806D01*
X035975Y012741D01*
X036001Y012677D01*
X036031Y012615D01*
X036065Y012555D01*
X036101Y012496D01*
X036141Y012440D01*
X036184Y012386D01*
X036230Y012334D01*
X036279Y012285D01*
X036330Y012239D01*
X036384Y012196D01*
X036441Y012156D01*
X036499Y012119D01*
X036559Y012086D01*
X036622Y012056D01*
X036685Y012030D01*
X036750Y012007D01*
X036817Y011987D01*
X036884Y011972D01*
X036952Y011960D01*
X037021Y011953D01*
X037090Y011949D01*
X037159Y011948D01*
X037228Y011952D01*
X037296Y011960D01*
X037364Y011971D01*
X037432Y011987D01*
X037498Y012006D01*
X037563Y012028D01*
X037627Y012054D01*
X037689Y012084D01*
X037750Y012118D01*
X037808Y012154D01*
X037865Y012194D01*
X037919Y012237D01*
X037970Y012283D01*
X038019Y012332D01*
X038065Y012383D01*
X038109Y012437D01*
X038101Y012442D01*
X038058Y012388D01*
X038012Y012337D01*
X037962Y012288D01*
X037911Y012242D01*
X037856Y012199D01*
X037799Y012159D01*
X037741Y012123D01*
X037680Y012089D01*
X037617Y012060D01*
X037553Y012034D01*
X037487Y012012D01*
X037420Y011993D01*
X037353Y011978D01*
X037284Y011967D01*
X037215Y011960D01*
X037146Y011957D01*
X037077Y011958D01*
X037007Y011963D01*
X036939Y011971D01*
X036871Y011984D01*
X036803Y012000D01*
X036737Y012021D01*
X036672Y012044D01*
X036608Y012072D01*
X036546Y012103D01*
X036486Y012138D01*
X036428Y012176D01*
X036372Y012217D01*
X036319Y012261D01*
X036268Y012308D01*
X036220Y012358D01*
X036175Y012411D01*
X036133Y012466D01*
X036094Y012523D01*
X036059Y012583D01*
X036027Y012644D01*
X035998Y012707D01*
X035973Y012772D01*
X035952Y012838D01*
X035934Y012905D01*
X035921Y012973D01*
X035911Y013042D01*
X035905Y013111D01*
X035903Y013180D01*
X035905Y013249D01*
X035911Y013318D01*
X035921Y013387D01*
X035934Y013455D01*
X035952Y013522D01*
X035973Y013588D01*
X035998Y013653D01*
X036027Y013716D01*
X036059Y013777D01*
X036094Y013837D01*
X036133Y013894D01*
X036175Y013949D01*
X036220Y014002D01*
X036268Y014052D01*
X036319Y014099D01*
X036372Y014143D01*
X036428Y014184D01*
X036486Y014222D01*
X036546Y014257D01*
X036608Y014288D01*
X036672Y014316D01*
X036737Y014339D01*
X036803Y014360D01*
X036871Y014376D01*
X036939Y014389D01*
X037007Y014397D01*
X037077Y014402D01*
X037146Y014403D01*
X037215Y014400D01*
X037284Y014393D01*
X037353Y014382D01*
X037420Y014367D01*
X037487Y014348D01*
X037553Y014326D01*
X037617Y014300D01*
X037680Y014271D01*
X037741Y014237D01*
X037799Y014201D01*
X037856Y014161D01*
X037911Y014118D01*
X037962Y014072D01*
X038012Y014023D01*
X038058Y013972D01*
X038101Y013918D01*
X038094Y013912D01*
X038051Y013966D01*
X038005Y014017D01*
X037956Y014066D01*
X037905Y014111D01*
X037851Y014154D01*
X037794Y014193D01*
X037736Y014230D01*
X037676Y014263D01*
X037613Y014292D01*
X037550Y014318D01*
X037484Y014340D01*
X037418Y014358D01*
X037351Y014373D01*
X037283Y014384D01*
X037214Y014391D01*
X037146Y014394D01*
X037077Y014393D01*
X037008Y014388D01*
X036940Y014380D01*
X036872Y014367D01*
X036806Y014351D01*
X036740Y014331D01*
X036675Y014307D01*
X036612Y014280D01*
X036551Y014249D01*
X036491Y014215D01*
X036433Y014177D01*
X036378Y014136D01*
X036325Y014092D01*
X036275Y014045D01*
X036227Y013996D01*
X036182Y013944D01*
X036140Y013889D01*
X036102Y013832D01*
X036067Y013773D01*
X036035Y013712D01*
X036006Y013649D01*
X035982Y013585D01*
X035960Y013519D01*
X035943Y013453D01*
X035930Y013385D01*
X035920Y013317D01*
X035914Y013249D01*
X035912Y013180D01*
X035914Y013111D01*
X035920Y013043D01*
X035930Y012975D01*
X035943Y012907D01*
X035960Y012841D01*
X035982Y012775D01*
X036006Y012711D01*
X036035Y012648D01*
X036067Y012587D01*
X036102Y012528D01*
X036140Y012471D01*
X036182Y012416D01*
X036227Y012364D01*
X036275Y012315D01*
X036325Y012268D01*
X036378Y012224D01*
X036433Y012183D01*
X036491Y012145D01*
X036551Y012111D01*
X036612Y012080D01*
X036675Y012053D01*
X036740Y012029D01*
X036806Y012009D01*
X036872Y011993D01*
X036940Y011980D01*
X037008Y011972D01*
X037077Y011967D01*
X037146Y011966D01*
X037214Y011969D01*
X037283Y011976D01*
X037351Y011987D01*
X037418Y012002D01*
X037484Y012020D01*
X037550Y012042D01*
X037613Y012068D01*
X037676Y012097D01*
X037736Y012130D01*
X037794Y012167D01*
X037851Y012206D01*
X037905Y012249D01*
X037956Y012294D01*
X038005Y012343D01*
X038051Y012394D01*
X038094Y012448D01*
X038158Y010960D02*
X038086Y010906D01*
X038087Y010907D02*
X038044Y010960D01*
X037999Y011011D01*
X037950Y011059D01*
X037899Y011104D01*
X037845Y011147D01*
X037789Y011186D01*
X037731Y011222D01*
X037671Y011255D01*
X037610Y011284D01*
X037546Y011309D01*
X037482Y011331D01*
X037416Y011350D01*
X037349Y011364D01*
X037282Y011375D01*
X037214Y011382D01*
X037146Y011385D01*
X037077Y011384D01*
X037009Y011379D01*
X036941Y011371D01*
X036874Y011358D01*
X036808Y011342D01*
X036743Y011322D01*
X036678Y011299D01*
X036616Y011272D01*
X036555Y011241D01*
X036496Y011207D01*
X036438Y011170D01*
X036383Y011129D01*
X036331Y011085D01*
X036281Y011039D01*
X036234Y010990D01*
X036189Y010938D01*
X036148Y010884D01*
X036109Y010827D01*
X036074Y010768D01*
X036043Y010708D01*
X036015Y010646D01*
X035990Y010582D01*
X035969Y010517D01*
X035952Y010451D01*
X035938Y010384D01*
X035929Y010316D01*
X035923Y010248D01*
X035921Y010180D01*
X035923Y010112D01*
X035929Y010044D01*
X035938Y009976D01*
X035952Y009909D01*
X035969Y009843D01*
X035990Y009778D01*
X036015Y009714D01*
X036043Y009652D01*
X036074Y009592D01*
X036109Y009533D01*
X036148Y009476D01*
X036189Y009422D01*
X036234Y009370D01*
X036281Y009321D01*
X036331Y009275D01*
X036383Y009231D01*
X036438Y009190D01*
X036496Y009153D01*
X036555Y009119D01*
X036616Y009088D01*
X036678Y009061D01*
X036743Y009038D01*
X036808Y009018D01*
X036874Y009002D01*
X036941Y008989D01*
X037009Y008981D01*
X037077Y008976D01*
X037146Y008975D01*
X037214Y008978D01*
X037282Y008985D01*
X037349Y008996D01*
X037416Y009010D01*
X037482Y009029D01*
X037546Y009051D01*
X037610Y009076D01*
X037671Y009105D01*
X037731Y009138D01*
X037789Y009174D01*
X037845Y009213D01*
X037899Y009256D01*
X037950Y009301D01*
X037999Y009349D01*
X038044Y009400D01*
X038087Y009453D01*
X038158Y009400D01*
X038159Y009399D01*
X038115Y009344D01*
X038067Y009291D01*
X038017Y009240D01*
X037964Y009193D01*
X037909Y009149D01*
X037851Y009107D01*
X037791Y009069D01*
X037730Y009034D01*
X037666Y009003D01*
X037601Y008975D01*
X037534Y008951D01*
X037466Y008930D01*
X037397Y008914D01*
X037327Y008901D01*
X037257Y008892D01*
X037186Y008886D01*
X037115Y008885D01*
X037044Y008888D01*
X036973Y008894D01*
X036903Y008904D01*
X036834Y008918D01*
X036765Y008936D01*
X036697Y008958D01*
X036631Y008983D01*
X036566Y009012D01*
X036503Y009045D01*
X036442Y009081D01*
X036383Y009120D01*
X036326Y009162D01*
X036271Y009207D01*
X036219Y009256D01*
X036170Y009307D01*
X036123Y009360D01*
X036080Y009417D01*
X036040Y009475D01*
X036003Y009536D01*
X035969Y009598D01*
X035939Y009662D01*
X035912Y009728D01*
X035889Y009795D01*
X035870Y009864D01*
X035855Y009933D01*
X035843Y010003D01*
X035835Y010074D01*
X035831Y010145D01*
X035831Y010215D01*
X035835Y010286D01*
X035843Y010357D01*
X035855Y010427D01*
X035870Y010496D01*
X035889Y010565D01*
X035912Y010632D01*
X035939Y010698D01*
X035969Y010762D01*
X036003Y010824D01*
X036040Y010885D01*
X036080Y010943D01*
X036123Y011000D01*
X036170Y011053D01*
X036219Y011104D01*
X036271Y011153D01*
X036326Y011198D01*
X036383Y011240D01*
X036442Y011279D01*
X036503Y011315D01*
X036566Y011348D01*
X036631Y011377D01*
X036697Y011402D01*
X036765Y011424D01*
X036834Y011442D01*
X036903Y011456D01*
X036973Y011466D01*
X037044Y011472D01*
X037115Y011475D01*
X037186Y011474D01*
X037257Y011468D01*
X037327Y011459D01*
X037397Y011446D01*
X037466Y011430D01*
X037534Y011409D01*
X037601Y011385D01*
X037666Y011357D01*
X037730Y011326D01*
X037791Y011291D01*
X037851Y011253D01*
X037909Y011211D01*
X037964Y011167D01*
X038017Y011120D01*
X038067Y011069D01*
X038115Y011016D01*
X038159Y010961D01*
X038152Y010956D01*
X038107Y011011D01*
X038060Y011064D01*
X038009Y011115D01*
X037956Y011162D01*
X037900Y011207D01*
X037842Y011248D01*
X037782Y011286D01*
X037720Y011321D01*
X037656Y011352D01*
X037590Y011379D01*
X037523Y011403D01*
X037454Y011423D01*
X037385Y011440D01*
X037315Y011452D01*
X037244Y011461D01*
X037173Y011465D01*
X037102Y011466D01*
X037031Y011462D01*
X036960Y011455D01*
X036889Y011444D01*
X036820Y011429D01*
X036751Y011410D01*
X036683Y011387D01*
X036617Y011361D01*
X036552Y011331D01*
X036490Y011297D01*
X036429Y011261D01*
X036370Y011220D01*
X036313Y011177D01*
X036259Y011130D01*
X036208Y011081D01*
X036160Y011028D01*
X036114Y010974D01*
X036072Y010916D01*
X036033Y010857D01*
X035997Y010795D01*
X035964Y010732D01*
X035936Y010667D01*
X035910Y010600D01*
X035889Y010532D01*
X035871Y010463D01*
X035858Y010393D01*
X035848Y010322D01*
X035842Y010251D01*
X035840Y010180D01*
X035842Y010109D01*
X035848Y010038D01*
X035858Y009967D01*
X035871Y009897D01*
X035889Y009828D01*
X035910Y009760D01*
X035936Y009693D01*
X035964Y009628D01*
X035997Y009565D01*
X036033Y009503D01*
X036072Y009444D01*
X036114Y009386D01*
X036160Y009332D01*
X036208Y009279D01*
X036259Y009230D01*
X036313Y009183D01*
X036370Y009140D01*
X036429Y009099D01*
X036490Y009063D01*
X036552Y009029D01*
X036617Y008999D01*
X036683Y008973D01*
X036751Y008950D01*
X036820Y008931D01*
X036889Y008916D01*
X036960Y008905D01*
X037031Y008898D01*
X037102Y008894D01*
X037173Y008895D01*
X037244Y008899D01*
X037315Y008908D01*
X037385Y008920D01*
X037454Y008937D01*
X037523Y008957D01*
X037590Y008981D01*
X037656Y009008D01*
X037720Y009039D01*
X037782Y009074D01*
X037842Y009112D01*
X037900Y009153D01*
X037956Y009198D01*
X038009Y009245D01*
X038060Y009296D01*
X038107Y009349D01*
X038152Y009404D01*
X038145Y009410D01*
X038100Y009355D01*
X038053Y009302D01*
X038003Y009252D01*
X037950Y009205D01*
X037895Y009161D01*
X037837Y009119D01*
X037778Y009082D01*
X037716Y009047D01*
X037652Y009016D01*
X037587Y008989D01*
X037520Y008965D01*
X037452Y008945D01*
X037383Y008929D01*
X037314Y008917D01*
X037243Y008908D01*
X037173Y008904D01*
X037102Y008903D01*
X037031Y008907D01*
X036961Y008914D01*
X036891Y008925D01*
X036822Y008940D01*
X036754Y008959D01*
X036686Y008981D01*
X036621Y009007D01*
X036556Y009037D01*
X036494Y009070D01*
X036434Y009107D01*
X036375Y009147D01*
X036319Y009190D01*
X036265Y009236D01*
X036215Y009286D01*
X036166Y009337D01*
X036121Y009392D01*
X036079Y009449D01*
X036040Y009508D01*
X036005Y009569D01*
X035972Y009632D01*
X035944Y009697D01*
X035919Y009763D01*
X035898Y009831D01*
X035880Y009899D01*
X035867Y009969D01*
X035857Y010039D01*
X035851Y010109D01*
X035849Y010180D01*
X035851Y010251D01*
X035857Y010321D01*
X035867Y010391D01*
X035880Y010461D01*
X035898Y010529D01*
X035919Y010597D01*
X035944Y010663D01*
X035972Y010728D01*
X036005Y010791D01*
X036040Y010852D01*
X036079Y010911D01*
X036121Y010968D01*
X036166Y011023D01*
X036215Y011074D01*
X036265Y011124D01*
X036319Y011170D01*
X036375Y011213D01*
X036434Y011253D01*
X036494Y011290D01*
X036556Y011323D01*
X036621Y011353D01*
X036686Y011379D01*
X036754Y011401D01*
X036822Y011420D01*
X036891Y011435D01*
X036961Y011446D01*
X037031Y011453D01*
X037102Y011457D01*
X037173Y011456D01*
X037243Y011452D01*
X037314Y011443D01*
X037383Y011431D01*
X037452Y011415D01*
X037520Y011395D01*
X037587Y011371D01*
X037652Y011344D01*
X037716Y011313D01*
X037778Y011278D01*
X037837Y011241D01*
X037895Y011199D01*
X037950Y011155D01*
X038003Y011108D01*
X038053Y011058D01*
X038100Y011005D01*
X038145Y010950D01*
X038137Y010945D01*
X038093Y011000D01*
X038045Y011053D01*
X037995Y011103D01*
X037942Y011151D01*
X037886Y011195D01*
X037828Y011236D01*
X037768Y011273D01*
X037706Y011308D01*
X037642Y011338D01*
X037576Y011365D01*
X037509Y011389D01*
X037441Y011408D01*
X037371Y011424D01*
X037301Y011436D01*
X037231Y011444D01*
X037160Y011448D01*
X037089Y011447D01*
X037018Y011443D01*
X036947Y011435D01*
X036877Y011423D01*
X036808Y011407D01*
X036740Y011388D01*
X036672Y011364D01*
X036607Y011337D01*
X036543Y011306D01*
X036481Y011272D01*
X036421Y011234D01*
X036363Y011192D01*
X036307Y011148D01*
X036254Y011101D01*
X036204Y011050D01*
X036157Y010997D01*
X036112Y010942D01*
X036071Y010884D01*
X036034Y010824D01*
X035999Y010761D01*
X035968Y010697D01*
X035941Y010632D01*
X035918Y010565D01*
X035898Y010496D01*
X035882Y010427D01*
X035870Y010357D01*
X035862Y010286D01*
X035858Y010216D01*
X035858Y010144D01*
X035862Y010074D01*
X035870Y010003D01*
X035882Y009933D01*
X035898Y009864D01*
X035918Y009795D01*
X035941Y009728D01*
X035968Y009663D01*
X035999Y009599D01*
X036034Y009536D01*
X036071Y009476D01*
X036112Y009418D01*
X036157Y009363D01*
X036204Y009310D01*
X036254Y009259D01*
X036307Y009212D01*
X036363Y009168D01*
X036421Y009126D01*
X036481Y009088D01*
X036543Y009054D01*
X036607Y009023D01*
X036672Y008996D01*
X036740Y008972D01*
X036808Y008953D01*
X036877Y008937D01*
X036947Y008925D01*
X037018Y008917D01*
X037089Y008913D01*
X037160Y008912D01*
X037231Y008916D01*
X037301Y008924D01*
X037371Y008936D01*
X037441Y008952D01*
X037509Y008971D01*
X037576Y008995D01*
X037642Y009022D01*
X037706Y009052D01*
X037768Y009087D01*
X037828Y009124D01*
X037886Y009165D01*
X037942Y009209D01*
X037995Y009257D01*
X038045Y009307D01*
X038093Y009360D01*
X038137Y009415D01*
X038130Y009421D01*
X038086Y009366D01*
X038039Y009313D01*
X037989Y009263D01*
X037936Y009216D01*
X037881Y009172D01*
X037823Y009132D01*
X037764Y009094D01*
X037702Y009060D01*
X037638Y009030D01*
X037573Y009003D01*
X037506Y008980D01*
X037438Y008960D01*
X037370Y008945D01*
X037300Y008933D01*
X037230Y008925D01*
X037159Y008921D01*
X037089Y008922D01*
X037018Y008926D01*
X036948Y008934D01*
X036879Y008946D01*
X036810Y008961D01*
X036742Y008981D01*
X036676Y009004D01*
X036611Y009031D01*
X036547Y009062D01*
X036485Y009096D01*
X036426Y009134D01*
X036368Y009175D01*
X036313Y009219D01*
X036260Y009266D01*
X036211Y009316D01*
X036164Y009368D01*
X036120Y009424D01*
X036079Y009481D01*
X036041Y009541D01*
X036007Y009603D01*
X035977Y009666D01*
X035950Y009731D01*
X035926Y009798D01*
X035907Y009866D01*
X035891Y009935D01*
X035879Y010004D01*
X035871Y010074D01*
X035867Y010145D01*
X035867Y010215D01*
X035871Y010286D01*
X035879Y010356D01*
X035891Y010425D01*
X035907Y010494D01*
X035926Y010562D01*
X035950Y010629D01*
X035977Y010694D01*
X036007Y010757D01*
X036041Y010819D01*
X036079Y010879D01*
X036120Y010936D01*
X036164Y010992D01*
X036211Y011044D01*
X036260Y011094D01*
X036313Y011141D01*
X036368Y011185D01*
X036426Y011226D01*
X036485Y011264D01*
X036547Y011298D01*
X036611Y011329D01*
X036676Y011356D01*
X036742Y011379D01*
X036810Y011399D01*
X036879Y011414D01*
X036948Y011426D01*
X037018Y011434D01*
X037089Y011438D01*
X037159Y011439D01*
X037230Y011435D01*
X037300Y011427D01*
X037370Y011415D01*
X037438Y011400D01*
X037506Y011380D01*
X037573Y011357D01*
X037638Y011330D01*
X037702Y011300D01*
X037764Y011266D01*
X037823Y011228D01*
X037881Y011188D01*
X037936Y011144D01*
X037989Y011097D01*
X038039Y011047D01*
X038086Y010994D01*
X038130Y010939D01*
X038123Y010934D01*
X038079Y010989D01*
X038032Y011041D01*
X037983Y011090D01*
X037930Y011137D01*
X037876Y011180D01*
X037818Y011221D01*
X037759Y011258D01*
X037698Y011292D01*
X037634Y011322D01*
X037570Y011349D01*
X037503Y011372D01*
X037436Y011391D01*
X037368Y011406D01*
X037299Y011418D01*
X037229Y011426D01*
X037159Y011430D01*
X037089Y011429D01*
X037019Y011425D01*
X036950Y011417D01*
X036881Y011406D01*
X036812Y011390D01*
X036745Y011371D01*
X036679Y011347D01*
X036614Y011320D01*
X036551Y011290D01*
X036490Y011256D01*
X036431Y011219D01*
X036373Y011178D01*
X036319Y011134D01*
X036267Y011088D01*
X036217Y011038D01*
X036170Y010986D01*
X036127Y010931D01*
X036086Y010874D01*
X036049Y010815D01*
X036015Y010753D01*
X035985Y010690D01*
X035958Y010625D01*
X035935Y010559D01*
X035916Y010492D01*
X035900Y010424D01*
X035888Y010355D01*
X035880Y010285D01*
X035876Y010215D01*
X035876Y010145D01*
X035880Y010075D01*
X035888Y010005D01*
X035900Y009936D01*
X035916Y009868D01*
X035935Y009801D01*
X035958Y009735D01*
X035985Y009670D01*
X036015Y009607D01*
X036049Y009545D01*
X036086Y009486D01*
X036127Y009429D01*
X036170Y009374D01*
X036217Y009322D01*
X036267Y009272D01*
X036319Y009226D01*
X036373Y009182D01*
X036431Y009141D01*
X036490Y009104D01*
X036551Y009070D01*
X036614Y009040D01*
X036679Y009013D01*
X036745Y008989D01*
X036812Y008970D01*
X036881Y008954D01*
X036950Y008943D01*
X037019Y008935D01*
X037089Y008931D01*
X037159Y008930D01*
X037229Y008934D01*
X037299Y008942D01*
X037368Y008954D01*
X037436Y008969D01*
X037503Y008988D01*
X037570Y009011D01*
X037634Y009038D01*
X037698Y009068D01*
X037759Y009102D01*
X037818Y009139D01*
X037876Y009180D01*
X037930Y009223D01*
X037983Y009270D01*
X038032Y009319D01*
X038079Y009371D01*
X038123Y009426D01*
X038116Y009431D01*
X038072Y009377D01*
X038026Y009325D01*
X037977Y009276D01*
X037925Y009230D01*
X037870Y009187D01*
X037813Y009147D01*
X037754Y009110D01*
X037693Y009076D01*
X037631Y009046D01*
X037566Y009020D01*
X037501Y008997D01*
X037434Y008978D01*
X037366Y008962D01*
X037297Y008951D01*
X037228Y008943D01*
X037159Y008939D01*
X037089Y008940D01*
X037020Y008944D01*
X036951Y008951D01*
X036882Y008963D01*
X036815Y008979D01*
X036748Y008998D01*
X036682Y009021D01*
X036618Y009048D01*
X036555Y009078D01*
X036494Y009112D01*
X036436Y009149D01*
X036379Y009189D01*
X036325Y009232D01*
X036273Y009279D01*
X036224Y009328D01*
X036177Y009380D01*
X036134Y009434D01*
X036094Y009491D01*
X036057Y009550D01*
X036023Y009611D01*
X035993Y009674D01*
X035966Y009738D01*
X035943Y009803D01*
X035924Y009870D01*
X035909Y009938D01*
X035897Y010007D01*
X035889Y010076D01*
X035885Y010145D01*
X035885Y010215D01*
X035889Y010284D01*
X035897Y010353D01*
X035909Y010422D01*
X035924Y010490D01*
X035943Y010557D01*
X035966Y010622D01*
X035993Y010686D01*
X036023Y010749D01*
X036057Y010810D01*
X036094Y010869D01*
X036134Y010926D01*
X036177Y010980D01*
X036224Y011032D01*
X036273Y011081D01*
X036325Y011128D01*
X036379Y011171D01*
X036436Y011211D01*
X036494Y011248D01*
X036555Y011282D01*
X036618Y011312D01*
X036682Y011339D01*
X036748Y011362D01*
X036815Y011381D01*
X036882Y011397D01*
X036951Y011409D01*
X037020Y011416D01*
X037089Y011420D01*
X037159Y011421D01*
X037228Y011417D01*
X037297Y011409D01*
X037366Y011398D01*
X037434Y011382D01*
X037501Y011363D01*
X037566Y011340D01*
X037631Y011314D01*
X037693Y011284D01*
X037754Y011250D01*
X037813Y011213D01*
X037870Y011173D01*
X037925Y011130D01*
X037977Y011084D01*
X038026Y011035D01*
X038072Y010983D01*
X038116Y010929D01*
X038109Y010923D01*
X038065Y010977D01*
X038019Y011028D01*
X037970Y011077D01*
X037919Y011123D01*
X037865Y011166D01*
X037808Y011206D01*
X037750Y011242D01*
X037689Y011276D01*
X037627Y011306D01*
X037563Y011332D01*
X037498Y011354D01*
X037432Y011373D01*
X037364Y011389D01*
X037296Y011400D01*
X037228Y011408D01*
X037159Y011412D01*
X037090Y011411D01*
X037021Y011407D01*
X036952Y011400D01*
X036884Y011388D01*
X036817Y011373D01*
X036750Y011353D01*
X036685Y011330D01*
X036622Y011304D01*
X036559Y011274D01*
X036499Y011241D01*
X036441Y011204D01*
X036384Y011164D01*
X036330Y011121D01*
X036279Y011075D01*
X036230Y011026D01*
X036184Y010974D01*
X036141Y010920D01*
X036101Y010864D01*
X036065Y010805D01*
X036031Y010745D01*
X036001Y010683D01*
X035975Y010619D01*
X035952Y010554D01*
X035933Y010487D01*
X035918Y010420D01*
X035906Y010352D01*
X035898Y010283D01*
X035894Y010215D01*
X035894Y010145D01*
X035898Y010077D01*
X035906Y010008D01*
X035918Y009940D01*
X035933Y009873D01*
X035952Y009806D01*
X035975Y009741D01*
X036001Y009677D01*
X036031Y009615D01*
X036065Y009555D01*
X036101Y009496D01*
X036141Y009440D01*
X036184Y009386D01*
X036230Y009334D01*
X036279Y009285D01*
X036330Y009239D01*
X036384Y009196D01*
X036441Y009156D01*
X036499Y009119D01*
X036559Y009086D01*
X036622Y009056D01*
X036685Y009030D01*
X036750Y009007D01*
X036817Y008987D01*
X036884Y008972D01*
X036952Y008960D01*
X037021Y008953D01*
X037090Y008949D01*
X037159Y008948D01*
X037228Y008952D01*
X037296Y008960D01*
X037364Y008971D01*
X037432Y008987D01*
X037498Y009006D01*
X037563Y009028D01*
X037627Y009054D01*
X037689Y009084D01*
X037750Y009118D01*
X037808Y009154D01*
X037865Y009194D01*
X037919Y009237D01*
X037970Y009283D01*
X038019Y009332D01*
X038065Y009383D01*
X038109Y009437D01*
X038101Y009442D01*
X038058Y009388D01*
X038012Y009337D01*
X037962Y009288D01*
X037911Y009242D01*
X037856Y009199D01*
X037799Y009159D01*
X037741Y009123D01*
X037680Y009089D01*
X037617Y009060D01*
X037553Y009034D01*
X037487Y009012D01*
X037420Y008993D01*
X037353Y008978D01*
X037284Y008967D01*
X037215Y008960D01*
X037146Y008957D01*
X037077Y008958D01*
X037007Y008963D01*
X036939Y008971D01*
X036871Y008984D01*
X036803Y009000D01*
X036737Y009021D01*
X036672Y009044D01*
X036608Y009072D01*
X036546Y009103D01*
X036486Y009138D01*
X036428Y009176D01*
X036372Y009217D01*
X036319Y009261D01*
X036268Y009308D01*
X036220Y009358D01*
X036175Y009411D01*
X036133Y009466D01*
X036094Y009523D01*
X036059Y009583D01*
X036027Y009644D01*
X035998Y009707D01*
X035973Y009772D01*
X035952Y009838D01*
X035934Y009905D01*
X035921Y009973D01*
X035911Y010042D01*
X035905Y010111D01*
X035903Y010180D01*
X035905Y010249D01*
X035911Y010318D01*
X035921Y010387D01*
X035934Y010455D01*
X035952Y010522D01*
X035973Y010588D01*
X035998Y010653D01*
X036027Y010716D01*
X036059Y010777D01*
X036094Y010837D01*
X036133Y010894D01*
X036175Y010949D01*
X036220Y011002D01*
X036268Y011052D01*
X036319Y011099D01*
X036372Y011143D01*
X036428Y011184D01*
X036486Y011222D01*
X036546Y011257D01*
X036608Y011288D01*
X036672Y011316D01*
X036737Y011339D01*
X036803Y011360D01*
X036871Y011376D01*
X036939Y011389D01*
X037007Y011397D01*
X037077Y011402D01*
X037146Y011403D01*
X037215Y011400D01*
X037284Y011393D01*
X037353Y011382D01*
X037420Y011367D01*
X037487Y011348D01*
X037553Y011326D01*
X037617Y011300D01*
X037680Y011271D01*
X037741Y011237D01*
X037799Y011201D01*
X037856Y011161D01*
X037911Y011118D01*
X037962Y011072D01*
X038012Y011023D01*
X038058Y010972D01*
X038101Y010918D01*
X038094Y010912D01*
X038051Y010966D01*
X038005Y011017D01*
X037956Y011066D01*
X037905Y011111D01*
X037851Y011154D01*
X037794Y011193D01*
X037736Y011230D01*
X037676Y011263D01*
X037613Y011292D01*
X037550Y011318D01*
X037484Y011340D01*
X037418Y011358D01*
X037351Y011373D01*
X037283Y011384D01*
X037214Y011391D01*
X037146Y011394D01*
X037077Y011393D01*
X037008Y011388D01*
X036940Y011380D01*
X036872Y011367D01*
X036806Y011351D01*
X036740Y011331D01*
X036675Y011307D01*
X036612Y011280D01*
X036551Y011249D01*
X036491Y011215D01*
X036433Y011177D01*
X036378Y011136D01*
X036325Y011092D01*
X036275Y011045D01*
X036227Y010996D01*
X036182Y010944D01*
X036140Y010889D01*
X036102Y010832D01*
X036067Y010773D01*
X036035Y010712D01*
X036006Y010649D01*
X035982Y010585D01*
X035960Y010519D01*
X035943Y010453D01*
X035930Y010385D01*
X035920Y010317D01*
X035914Y010249D01*
X035912Y010180D01*
X035914Y010111D01*
X035920Y010043D01*
X035930Y009975D01*
X035943Y009907D01*
X035960Y009841D01*
X035982Y009775D01*
X036006Y009711D01*
X036035Y009648D01*
X036067Y009587D01*
X036102Y009528D01*
X036140Y009471D01*
X036182Y009416D01*
X036227Y009364D01*
X036275Y009315D01*
X036325Y009268D01*
X036378Y009224D01*
X036433Y009183D01*
X036491Y009145D01*
X036551Y009111D01*
X036612Y009080D01*
X036675Y009053D01*
X036740Y009029D01*
X036806Y009009D01*
X036872Y008993D01*
X036940Y008980D01*
X037008Y008972D01*
X037077Y008967D01*
X037146Y008966D01*
X037214Y008969D01*
X037283Y008976D01*
X037351Y008987D01*
X037418Y009002D01*
X037484Y009020D01*
X037550Y009042D01*
X037613Y009068D01*
X037676Y009097D01*
X037736Y009130D01*
X037794Y009167D01*
X037851Y009206D01*
X037905Y009249D01*
X037956Y009294D01*
X038005Y009343D01*
X038051Y009394D01*
X038094Y009448D01*
X009203Y006411D02*
X009248Y006333D01*
X009247Y006333D02*
X009203Y006305D01*
X009161Y006274D01*
X009121Y006241D01*
X009083Y006205D01*
X009048Y006166D01*
X009016Y006125D01*
X008986Y006081D01*
X008960Y006036D01*
X008937Y005989D01*
X008917Y005941D01*
X008901Y005891D01*
X008888Y005841D01*
X008879Y005789D01*
X008873Y005737D01*
X008871Y005685D01*
X008782Y005684D01*
X008781Y005685D01*
X008783Y005740D01*
X008789Y005794D01*
X008798Y005849D01*
X008811Y005902D01*
X008827Y005954D01*
X008846Y006006D01*
X008869Y006056D01*
X008895Y006104D01*
X008924Y006151D01*
X008956Y006195D01*
X008991Y006238D01*
X009029Y006278D01*
X009069Y006315D01*
X009111Y006350D01*
X009156Y006382D01*
X009202Y006411D01*
X009207Y006403D01*
X009161Y006375D01*
X009117Y006343D01*
X009075Y006308D01*
X009035Y006271D01*
X008998Y006232D01*
X008963Y006190D01*
X008932Y006146D01*
X008903Y006100D01*
X008877Y006052D01*
X008855Y006002D01*
X008835Y005952D01*
X008819Y005900D01*
X008807Y005847D01*
X008798Y005793D01*
X008792Y005739D01*
X008790Y005685D01*
X008799Y005685D01*
X008801Y005739D01*
X008807Y005792D01*
X008816Y005845D01*
X008828Y005897D01*
X008844Y005949D01*
X008863Y005999D01*
X008885Y006048D01*
X008911Y006095D01*
X008939Y006141D01*
X008971Y006184D01*
X009005Y006226D01*
X009041Y006265D01*
X009081Y006302D01*
X009122Y006336D01*
X009166Y006367D01*
X009211Y006396D01*
X009216Y006388D01*
X009168Y006358D01*
X009122Y006324D01*
X009079Y006288D01*
X009038Y006248D01*
X009000Y006206D01*
X008965Y006162D01*
X008933Y006115D01*
X008905Y006066D01*
X008880Y006015D01*
X008858Y005962D01*
X008841Y005909D01*
X008827Y005854D01*
X008817Y005798D01*
X008810Y005742D01*
X008808Y005685D01*
X008817Y005685D01*
X008819Y005741D01*
X008825Y005797D01*
X008835Y005852D01*
X008849Y005906D01*
X008867Y005959D01*
X008888Y006011D01*
X008913Y006062D01*
X008941Y006110D01*
X008972Y006156D01*
X009007Y006201D01*
X009044Y006242D01*
X009085Y006281D01*
X009127Y006317D01*
X009173Y006350D01*
X009220Y006380D01*
X009225Y006372D01*
X009178Y006343D01*
X009133Y006310D01*
X009091Y006274D01*
X009051Y006236D01*
X009014Y006195D01*
X008979Y006151D01*
X008948Y006105D01*
X008921Y006057D01*
X008896Y006008D01*
X008875Y005956D01*
X008858Y005904D01*
X008844Y005850D01*
X008834Y005795D01*
X008828Y005740D01*
X008826Y005685D01*
X008835Y005685D01*
X008837Y005740D01*
X008843Y005794D01*
X008853Y005848D01*
X008867Y005901D01*
X008884Y005953D01*
X008904Y006004D01*
X008929Y006053D01*
X008956Y006100D01*
X008987Y006146D01*
X009020Y006189D01*
X009057Y006230D01*
X009097Y006268D01*
X009139Y006303D01*
X009183Y006335D01*
X009229Y006364D01*
X009234Y006356D01*
X009188Y006328D01*
X009144Y006296D01*
X009103Y006261D01*
X009064Y006223D01*
X009027Y006183D01*
X008994Y006141D01*
X008964Y006096D01*
X008936Y006049D01*
X008913Y006000D01*
X008892Y005950D01*
X008875Y005899D01*
X008862Y005846D01*
X008852Y005793D01*
X008846Y005739D01*
X008844Y005685D01*
X008853Y005685D01*
X008855Y005738D01*
X008861Y005792D01*
X008871Y005844D01*
X008884Y005896D01*
X008901Y005947D01*
X008921Y005997D01*
X008944Y006045D01*
X008971Y006091D01*
X009001Y006135D01*
X009034Y006177D01*
X009070Y006217D01*
X009109Y006254D01*
X009150Y006289D01*
X009193Y006320D01*
X009238Y006349D01*
X009243Y006341D01*
X009198Y006313D01*
X009155Y006282D01*
X009115Y006248D01*
X009077Y006211D01*
X009041Y006172D01*
X009009Y006130D01*
X008979Y006086D01*
X008952Y006040D01*
X008929Y005993D01*
X008909Y005944D01*
X008892Y005894D01*
X008879Y005842D01*
X008870Y005790D01*
X008864Y005738D01*
X008862Y005685D01*
X010470Y005685D02*
X010380Y005685D01*
X010381Y005685D02*
X010379Y005739D01*
X010373Y005792D01*
X010363Y005845D01*
X010349Y005897D01*
X010332Y005948D01*
X010311Y005997D01*
X010287Y006045D01*
X010259Y006091D01*
X010228Y006135D01*
X010194Y006177D01*
X010158Y006216D01*
X010118Y006253D01*
X010076Y006286D01*
X010032Y006317D01*
X009986Y006344D01*
X010028Y006423D01*
X010077Y006395D01*
X010123Y006363D01*
X010168Y006328D01*
X010210Y006291D01*
X010250Y006250D01*
X010286Y006207D01*
X010320Y006162D01*
X010351Y006115D01*
X010378Y006065D01*
X010402Y006014D01*
X010423Y005962D01*
X010440Y005908D01*
X010453Y005853D01*
X010463Y005798D01*
X010469Y005741D01*
X010471Y005685D01*
X010462Y005685D01*
X010460Y005741D01*
X010454Y005796D01*
X010444Y005851D01*
X010431Y005906D01*
X010414Y005959D01*
X010394Y006011D01*
X010370Y006061D01*
X010343Y006110D01*
X010313Y006157D01*
X010279Y006202D01*
X010243Y006244D01*
X010204Y006284D01*
X010162Y006321D01*
X010118Y006356D01*
X010072Y006387D01*
X010024Y006415D01*
X010020Y006407D01*
X010067Y006379D01*
X010113Y006348D01*
X010156Y006314D01*
X010198Y006278D01*
X010236Y006238D01*
X010272Y006196D01*
X010305Y006152D01*
X010335Y006106D01*
X010362Y006057D01*
X010385Y006007D01*
X010406Y005956D01*
X010422Y005903D01*
X010435Y005850D01*
X010445Y005795D01*
X010451Y005740D01*
X010453Y005685D01*
X010444Y005685D01*
X010442Y005740D01*
X010436Y005794D01*
X010427Y005848D01*
X010414Y005901D01*
X010397Y005953D01*
X010377Y006004D01*
X010354Y006053D01*
X010327Y006101D01*
X010298Y006147D01*
X010265Y006191D01*
X010230Y006232D01*
X010191Y006271D01*
X010151Y006308D01*
X010108Y006341D01*
X010062Y006372D01*
X010015Y006399D01*
X010011Y006391D01*
X010058Y006364D01*
X010102Y006334D01*
X010145Y006301D01*
X010185Y006265D01*
X010223Y006226D01*
X010258Y006185D01*
X010290Y006142D01*
X010320Y006096D01*
X010346Y006049D01*
X010369Y006000D01*
X010389Y005950D01*
X010405Y005898D01*
X010418Y005846D01*
X010427Y005793D01*
X010433Y005739D01*
X010435Y005685D01*
X010426Y005685D01*
X010424Y005738D01*
X010418Y005791D01*
X010409Y005844D01*
X010396Y005896D01*
X010380Y005947D01*
X010361Y005997D01*
X010338Y006045D01*
X010312Y006092D01*
X010283Y006136D01*
X010251Y006179D01*
X010216Y006220D01*
X010179Y006258D01*
X010139Y006294D01*
X010097Y006327D01*
X010053Y006357D01*
X010007Y006384D01*
X010003Y006376D01*
X010048Y006349D01*
X010092Y006319D01*
X010133Y006287D01*
X010173Y006252D01*
X010210Y006214D01*
X010244Y006174D01*
X010276Y006131D01*
X010304Y006087D01*
X010330Y006041D01*
X010352Y005993D01*
X010372Y005944D01*
X010388Y005894D01*
X010400Y005842D01*
X010409Y005790D01*
X010415Y005738D01*
X010417Y005685D01*
X010408Y005685D01*
X010406Y005741D01*
X010399Y005796D01*
X010389Y005851D01*
X010375Y005905D01*
X010357Y005957D01*
X010336Y006009D01*
X010310Y006058D01*
X010282Y006106D01*
X010250Y006152D01*
X010215Y006195D01*
X010177Y006235D01*
X010136Y006273D01*
X010092Y006308D01*
X010046Y006339D01*
X009998Y006368D01*
X009994Y006360D01*
X010042Y006332D01*
X010087Y006301D01*
X010130Y006266D01*
X010170Y006229D01*
X010208Y006189D01*
X010243Y006146D01*
X010274Y006101D01*
X010303Y006054D01*
X010327Y006005D01*
X010349Y005954D01*
X010366Y005902D01*
X010380Y005849D01*
X010390Y005795D01*
X010397Y005740D01*
X010399Y005685D01*
X010390Y005685D01*
X010388Y005739D01*
X010382Y005793D01*
X010372Y005847D01*
X010358Y005899D01*
X010340Y005951D01*
X010319Y006001D01*
X010295Y006050D01*
X010267Y006096D01*
X010235Y006141D01*
X010201Y006183D01*
X010164Y006222D01*
X010124Y006259D01*
X010082Y006293D01*
X010037Y006324D01*
X009990Y006352D01*
X010170Y005035D02*
X010113Y005104D01*
X010113Y005103D02*
X010153Y005140D01*
X010191Y005179D01*
X010225Y005221D01*
X010257Y005265D01*
X010285Y005311D01*
X010310Y005360D01*
X010331Y005410D01*
X010349Y005461D01*
X010362Y005514D01*
X010372Y005567D01*
X010379Y005621D01*
X010381Y005675D01*
X010470Y005676D01*
X010471Y005675D01*
X010469Y005619D01*
X010463Y005563D01*
X010453Y005508D01*
X010440Y005453D01*
X010423Y005400D01*
X010403Y005347D01*
X010379Y005296D01*
X010352Y005247D01*
X010321Y005200D01*
X010288Y005155D01*
X010252Y005112D01*
X010213Y005072D01*
X010171Y005034D01*
X010165Y005041D01*
X010206Y005078D01*
X010245Y005118D01*
X010281Y005160D01*
X010314Y005205D01*
X010344Y005252D01*
X010371Y005300D01*
X010394Y005351D01*
X010415Y005403D01*
X010431Y005456D01*
X010444Y005510D01*
X010454Y005564D01*
X010460Y005619D01*
X010462Y005675D01*
X010453Y005675D01*
X010451Y005620D01*
X010445Y005565D01*
X010436Y005511D01*
X010423Y005458D01*
X010406Y005406D01*
X010386Y005354D01*
X010363Y005305D01*
X010336Y005256D01*
X010307Y005210D01*
X010274Y005166D01*
X010238Y005124D01*
X010200Y005085D01*
X010159Y005048D01*
X010154Y005055D01*
X010194Y005091D01*
X010232Y005130D01*
X010267Y005172D01*
X010299Y005215D01*
X010329Y005261D01*
X010355Y005309D01*
X010378Y005358D01*
X010398Y005408D01*
X010414Y005460D01*
X010427Y005513D01*
X010436Y005567D01*
X010442Y005621D01*
X010444Y005675D01*
X010435Y005675D01*
X010433Y005621D01*
X010427Y005568D01*
X010418Y005515D01*
X010405Y005463D01*
X010389Y005411D01*
X010370Y005361D01*
X010347Y005313D01*
X010321Y005266D01*
X010292Y005220D01*
X010260Y005177D01*
X010225Y005136D01*
X010188Y005098D01*
X010148Y005062D01*
X010142Y005069D01*
X010181Y005104D01*
X010218Y005142D01*
X010253Y005183D01*
X010284Y005226D01*
X010313Y005270D01*
X010339Y005317D01*
X010361Y005365D01*
X010381Y005414D01*
X010397Y005465D01*
X010409Y005517D01*
X010418Y005569D01*
X010424Y005622D01*
X010426Y005675D01*
X010417Y005675D01*
X010415Y005623D01*
X010409Y005570D01*
X010400Y005519D01*
X010388Y005468D01*
X010372Y005417D01*
X010353Y005368D01*
X010331Y005321D01*
X010305Y005275D01*
X010277Y005231D01*
X010246Y005189D01*
X010212Y005148D01*
X010175Y005111D01*
X010136Y005076D01*
X010130Y005082D01*
X010169Y005117D01*
X010205Y005155D01*
X010239Y005194D01*
X010270Y005236D01*
X010298Y005280D01*
X010323Y005325D01*
X010345Y005372D01*
X010364Y005420D01*
X010379Y005470D01*
X010392Y005520D01*
X010400Y005572D01*
X010406Y005623D01*
X010408Y005675D01*
X010399Y005675D01*
X010397Y005624D01*
X010392Y005573D01*
X010383Y005522D01*
X010371Y005472D01*
X010355Y005423D01*
X010337Y005376D01*
X010315Y005329D01*
X010290Y005284D01*
X010262Y005241D01*
X010232Y005200D01*
X010199Y005161D01*
X010163Y005124D01*
X010125Y005089D01*
X010119Y005096D01*
X010160Y005133D01*
X010198Y005173D01*
X010232Y005215D01*
X010264Y005260D01*
X010293Y005307D01*
X010318Y005356D01*
X010339Y005407D01*
X010357Y005458D01*
X010371Y005512D01*
X010381Y005566D01*
X010388Y005620D01*
X010390Y005675D01*
X008782Y005676D02*
X008872Y005676D01*
X008871Y005675D02*
X008873Y005621D01*
X008879Y005568D01*
X008889Y005515D01*
X008903Y005463D01*
X008920Y005412D01*
X008941Y005362D01*
X008965Y005314D01*
X008993Y005268D01*
X009024Y005224D01*
X009058Y005183D01*
X009095Y005143D01*
X009134Y005107D01*
X009077Y005039D01*
X009076Y005038D01*
X009035Y005076D01*
X008997Y005116D01*
X008961Y005159D01*
X008928Y005204D01*
X008898Y005251D01*
X008872Y005299D01*
X008848Y005350D01*
X008828Y005402D01*
X008812Y005455D01*
X008798Y005509D01*
X008789Y005564D01*
X008783Y005619D01*
X008781Y005675D01*
X008790Y005675D01*
X008792Y005620D01*
X008798Y005565D01*
X008807Y005511D01*
X008820Y005457D01*
X008837Y005405D01*
X008856Y005353D01*
X008880Y005303D01*
X008906Y005255D01*
X008936Y005209D01*
X008968Y005164D01*
X009003Y005122D01*
X009042Y005082D01*
X009082Y005045D01*
X009088Y005052D01*
X009048Y005089D01*
X009010Y005128D01*
X008975Y005170D01*
X008943Y005214D01*
X008914Y005260D01*
X008888Y005308D01*
X008865Y005357D01*
X008845Y005408D01*
X008829Y005460D01*
X008816Y005513D01*
X008807Y005566D01*
X008801Y005621D01*
X008799Y005675D01*
X008808Y005675D01*
X008810Y005621D01*
X008816Y005568D01*
X008825Y005515D01*
X008838Y005462D01*
X008854Y005411D01*
X008873Y005360D01*
X008896Y005312D01*
X008921Y005264D01*
X008950Y005219D01*
X008982Y005175D01*
X009017Y005134D01*
X009054Y005095D01*
X009094Y005059D01*
X009100Y005066D01*
X009060Y005102D01*
X009023Y005140D01*
X008989Y005181D01*
X008958Y005224D01*
X008929Y005269D01*
X008904Y005316D01*
X008881Y005364D01*
X008862Y005414D01*
X008846Y005465D01*
X008834Y005516D01*
X008825Y005569D01*
X008819Y005622D01*
X008817Y005675D01*
X008826Y005675D01*
X008828Y005622D01*
X008834Y005570D01*
X008843Y005518D01*
X008855Y005467D01*
X008871Y005417D01*
X008890Y005367D01*
X008912Y005320D01*
X008937Y005273D01*
X008965Y005229D01*
X008996Y005187D01*
X009030Y005146D01*
X009067Y005108D01*
X009105Y005073D01*
X009111Y005079D01*
X009073Y005115D01*
X009037Y005152D01*
X009003Y005192D01*
X008973Y005234D01*
X008945Y005278D01*
X008920Y005324D01*
X008898Y005371D01*
X008879Y005420D01*
X008864Y005469D01*
X008851Y005520D01*
X008843Y005571D01*
X008837Y005623D01*
X008835Y005675D01*
X008844Y005675D01*
X008846Y005619D01*
X008853Y005564D01*
X008863Y005509D01*
X008877Y005455D01*
X008895Y005402D01*
X008917Y005351D01*
X008942Y005301D01*
X008971Y005253D01*
X009003Y005208D01*
X009038Y005165D01*
X009076Y005124D01*
X009117Y005086D01*
X009123Y005093D01*
X009082Y005130D01*
X009045Y005171D01*
X009010Y005213D01*
X008978Y005258D01*
X008950Y005306D01*
X008925Y005355D01*
X008903Y005406D01*
X008886Y005458D01*
X008872Y005511D01*
X008862Y005565D01*
X008855Y005620D01*
X008853Y005675D01*
X008862Y005675D01*
X008864Y005621D01*
X008870Y005567D01*
X008880Y005513D01*
X008894Y005460D01*
X008912Y005409D01*
X008933Y005359D01*
X008958Y005310D01*
X008986Y005263D01*
X009017Y005219D01*
X009051Y005177D01*
X009089Y005137D01*
X009129Y005100D01*
D19*
X038481Y004511D02*
X038424Y004556D01*
X038425Y004555D02*
X038461Y004605D01*
X038494Y004656D01*
X038524Y004709D01*
X038551Y004765D01*
X038574Y004821D01*
X038594Y004879D01*
X038611Y004938D01*
X038623Y004998D01*
X038633Y005058D01*
X038638Y005119D01*
X038640Y005180D01*
X038638Y005241D01*
X038633Y005302D01*
X038623Y005363D01*
X038611Y005423D01*
X038594Y005482D01*
X038574Y005539D01*
X038551Y005596D01*
X038524Y005651D01*
X038494Y005704D01*
X038461Y005756D01*
X038425Y005805D01*
X038385Y005852D01*
X038343Y005897D01*
X038299Y005939D01*
X038252Y005978D01*
X038203Y006014D01*
X038151Y006047D01*
X038098Y006077D01*
X038043Y006104D01*
X037987Y006128D01*
X037929Y006148D01*
X037950Y006216D01*
X037950Y006217D01*
X038012Y006195D01*
X038072Y006170D01*
X038131Y006141D01*
X038188Y006109D01*
X038243Y006073D01*
X038296Y006034D01*
X038347Y005992D01*
X038394Y005948D01*
X038439Y005900D01*
X038481Y005849D01*
X038520Y005797D01*
X038556Y005742D01*
X038588Y005684D01*
X038616Y005626D01*
X038641Y005565D01*
X038663Y005503D01*
X038680Y005440D01*
X038694Y005376D01*
X038704Y005311D01*
X038710Y005246D01*
X038712Y005180D01*
X038710Y005115D01*
X038704Y005049D01*
X038694Y004985D01*
X038681Y004920D01*
X038663Y004857D01*
X038642Y004795D01*
X038617Y004735D01*
X038588Y004676D01*
X038556Y004619D01*
X038520Y004564D01*
X038481Y004511D01*
X038476Y004515D01*
X038514Y004568D01*
X038550Y004622D01*
X038582Y004679D01*
X038610Y004738D01*
X038635Y004798D01*
X038656Y004859D01*
X038674Y004922D01*
X038687Y004986D01*
X038697Y005050D01*
X038703Y005115D01*
X038705Y005180D01*
X038703Y005245D01*
X038697Y005310D01*
X038687Y005375D01*
X038674Y005438D01*
X038656Y005501D01*
X038635Y005562D01*
X038610Y005623D01*
X038582Y005681D01*
X038550Y005738D01*
X038514Y005793D01*
X038476Y005845D01*
X038434Y005895D01*
X038389Y005943D01*
X038342Y005987D01*
X038292Y006029D01*
X038240Y006068D01*
X038185Y006103D01*
X038128Y006135D01*
X038070Y006164D01*
X038009Y006189D01*
X037948Y006210D01*
X037946Y006203D01*
X038007Y006182D01*
X038067Y006157D01*
X038125Y006129D01*
X038181Y006097D01*
X038236Y006062D01*
X038288Y006023D01*
X038337Y005982D01*
X038384Y005938D01*
X038429Y005891D01*
X038470Y005841D01*
X038508Y005789D01*
X038544Y005734D01*
X038575Y005678D01*
X038604Y005620D01*
X038628Y005560D01*
X038649Y005499D01*
X038667Y005437D01*
X038680Y005373D01*
X038690Y005309D01*
X038696Y005245D01*
X038698Y005180D01*
X038696Y005116D01*
X038690Y005051D01*
X038681Y004987D01*
X038667Y004924D01*
X038650Y004862D01*
X038629Y004800D01*
X038604Y004741D01*
X038576Y004682D01*
X038544Y004626D01*
X038509Y004572D01*
X038470Y004520D01*
X038465Y004524D01*
X038503Y004576D01*
X038538Y004630D01*
X038569Y004686D01*
X038597Y004743D01*
X038622Y004803D01*
X038643Y004864D01*
X038660Y004926D01*
X038674Y004988D01*
X038683Y005052D01*
X038689Y005116D01*
X038691Y005180D01*
X038689Y005244D01*
X038683Y005308D01*
X038674Y005372D01*
X038660Y005435D01*
X038643Y005497D01*
X038622Y005558D01*
X038597Y005617D01*
X038569Y005675D01*
X038538Y005731D01*
X038503Y005785D01*
X038465Y005836D01*
X038423Y005886D01*
X038379Y005933D01*
X038333Y005977D01*
X038283Y006018D01*
X038232Y006056D01*
X038178Y006091D01*
X038122Y006123D01*
X038064Y006151D01*
X038005Y006175D01*
X037944Y006196D01*
X037942Y006190D01*
X038002Y006169D01*
X038061Y006144D01*
X038118Y006116D01*
X038174Y006085D01*
X038228Y006050D01*
X038279Y006012D01*
X038328Y005972D01*
X038375Y005928D01*
X038418Y005881D01*
X038459Y005832D01*
X038497Y005781D01*
X038532Y005727D01*
X038563Y005671D01*
X038591Y005614D01*
X038615Y005555D01*
X038636Y005495D01*
X038653Y005433D01*
X038667Y005371D01*
X038676Y005308D01*
X038682Y005244D01*
X038684Y005180D01*
X038682Y005116D01*
X038676Y005053D01*
X038667Y004990D01*
X038653Y004927D01*
X038636Y004866D01*
X038615Y004805D01*
X038591Y004746D01*
X038563Y004689D01*
X038532Y004633D01*
X038497Y004580D01*
X038459Y004528D01*
X038454Y004533D01*
X038491Y004584D01*
X038526Y004637D01*
X038557Y004692D01*
X038585Y004749D01*
X038609Y004808D01*
X038630Y004868D01*
X038647Y004929D01*
X038660Y004991D01*
X038669Y005054D01*
X038675Y005117D01*
X038677Y005180D01*
X038675Y005244D01*
X038669Y005307D01*
X038660Y005369D01*
X038646Y005431D01*
X038629Y005493D01*
X038609Y005553D01*
X038584Y005611D01*
X038557Y005668D01*
X038526Y005723D01*
X038491Y005777D01*
X038454Y005828D01*
X038413Y005877D01*
X038370Y005923D01*
X038323Y005966D01*
X038275Y006007D01*
X038224Y006045D01*
X038170Y006079D01*
X038115Y006110D01*
X038058Y006138D01*
X038000Y006162D01*
X037940Y006183D01*
X037938Y006176D01*
X037997Y006156D01*
X038055Y006132D01*
X038112Y006104D01*
X038167Y006073D01*
X038220Y006039D01*
X038270Y006001D01*
X038319Y005961D01*
X038365Y005918D01*
X038408Y005872D01*
X038448Y005823D01*
X038485Y005773D01*
X038520Y005720D01*
X038551Y005665D01*
X038578Y005608D01*
X038602Y005550D01*
X038623Y005491D01*
X038640Y005430D01*
X038653Y005368D01*
X038662Y005306D01*
X038668Y005243D01*
X038670Y005180D01*
X038668Y005117D01*
X038662Y005055D01*
X038653Y004992D01*
X038640Y004931D01*
X038623Y004870D01*
X038602Y004810D01*
X038578Y004752D01*
X038551Y004695D01*
X038520Y004641D01*
X038486Y004588D01*
X038448Y004537D01*
X038443Y004541D01*
X038480Y004592D01*
X038514Y004644D01*
X038545Y004699D01*
X038572Y004755D01*
X038596Y004813D01*
X038616Y004872D01*
X038633Y004932D01*
X038646Y004993D01*
X038655Y005055D01*
X038661Y005118D01*
X038663Y005180D01*
X038661Y005243D01*
X038655Y005305D01*
X038646Y005367D01*
X038633Y005428D01*
X038616Y005488D01*
X038596Y005548D01*
X038572Y005605D01*
X038544Y005662D01*
X038514Y005716D01*
X038480Y005769D01*
X038443Y005819D01*
X038403Y005867D01*
X038360Y005913D01*
X038314Y005956D01*
X038266Y005996D01*
X038216Y006033D01*
X038163Y006067D01*
X038109Y006098D01*
X038052Y006125D01*
X037995Y006149D01*
X037936Y006170D01*
X037933Y006163D01*
X037992Y006143D01*
X038050Y006119D01*
X038105Y006092D01*
X038160Y006061D01*
X038212Y006027D01*
X038262Y005990D01*
X038310Y005951D01*
X038355Y005908D01*
X038397Y005863D01*
X038437Y005815D01*
X038474Y005765D01*
X038508Y005713D01*
X038538Y005658D01*
X038565Y005603D01*
X038589Y005545D01*
X038609Y005486D01*
X038626Y005426D01*
X038639Y005366D01*
X038648Y005304D01*
X038654Y005242D01*
X038656Y005180D01*
X038654Y005118D01*
X038649Y005056D01*
X038639Y004995D01*
X038626Y004934D01*
X038610Y004874D01*
X038589Y004815D01*
X038566Y004758D01*
X038538Y004702D01*
X038508Y004648D01*
X038474Y004596D01*
X038437Y004546D01*
X038432Y004550D01*
X038468Y004600D01*
X038502Y004651D01*
X038532Y004705D01*
X038559Y004761D01*
X038583Y004818D01*
X038603Y004876D01*
X038619Y004936D01*
X038632Y004996D01*
X038642Y005057D01*
X038647Y005119D01*
X038649Y005180D01*
X038647Y005242D01*
X038642Y005303D01*
X038632Y005364D01*
X038619Y005425D01*
X038603Y005484D01*
X038583Y005543D01*
X038559Y005600D01*
X038532Y005655D01*
X038502Y005709D01*
X038468Y005761D01*
X038432Y005811D01*
X038392Y005858D01*
X038350Y005903D01*
X038305Y005945D01*
X038257Y005985D01*
X038208Y006021D01*
X038156Y006055D01*
X038102Y006085D01*
X038047Y006112D01*
X037990Y006136D01*
X037931Y006156D01*
X037929Y006150D01*
X037987Y006130D01*
X038044Y006106D01*
X038099Y006079D01*
X038152Y006049D01*
X038204Y006016D01*
X038253Y005979D01*
X038300Y005940D01*
X038345Y005898D01*
X038387Y005853D01*
X038426Y005806D01*
X038462Y005757D01*
X038496Y005705D01*
X038526Y005652D01*
X038553Y005597D01*
X038576Y005540D01*
X038596Y005482D01*
X038612Y005423D01*
X038625Y005363D01*
X038635Y005303D01*
X038640Y005242D01*
X038642Y005180D01*
X038640Y005119D01*
X038635Y005058D01*
X038625Y004997D01*
X038613Y004937D01*
X038596Y004878D01*
X038576Y004820D01*
X038553Y004764D01*
X038526Y004709D01*
X038496Y004655D01*
X038463Y004604D01*
X038426Y004554D01*
X037303Y006216D02*
X037324Y006147D01*
X037323Y006148D02*
X037265Y006128D01*
X037209Y006104D01*
X037154Y006077D01*
X037101Y006047D01*
X037049Y006014D01*
X037000Y005978D01*
X036953Y005939D01*
X036909Y005897D01*
X036867Y005852D01*
X036828Y005805D01*
X036791Y005756D01*
X036758Y005704D01*
X036728Y005651D01*
X036701Y005596D01*
X036678Y005539D01*
X036658Y005482D01*
X036641Y005423D01*
X036629Y005363D01*
X036619Y005302D01*
X036614Y005241D01*
X036612Y005180D01*
X036614Y005119D01*
X036619Y005058D01*
X036629Y004998D01*
X036641Y004938D01*
X036658Y004879D01*
X036678Y004821D01*
X036701Y004765D01*
X036728Y004709D01*
X036758Y004656D01*
X036791Y004605D01*
X036827Y004555D01*
X036771Y004511D01*
X036732Y004564D01*
X036696Y004619D01*
X036664Y004676D01*
X036635Y004735D01*
X036610Y004795D01*
X036589Y004857D01*
X036571Y004921D01*
X036558Y004985D01*
X036548Y005049D01*
X036542Y005115D01*
X036540Y005180D01*
X036542Y005246D01*
X036548Y005311D01*
X036558Y005376D01*
X036572Y005440D01*
X036589Y005503D01*
X036611Y005565D01*
X036636Y005626D01*
X036664Y005684D01*
X036696Y005742D01*
X036732Y005797D01*
X036771Y005849D01*
X036813Y005900D01*
X036858Y005948D01*
X036905Y005993D01*
X036956Y006034D01*
X037009Y006073D01*
X037064Y006109D01*
X037121Y006141D01*
X037180Y006170D01*
X037240Y006195D01*
X037302Y006217D01*
X037304Y006210D01*
X037243Y006189D01*
X037182Y006164D01*
X037124Y006135D01*
X037067Y006103D01*
X037012Y006068D01*
X036960Y006029D01*
X036910Y005987D01*
X036863Y005943D01*
X036818Y005895D01*
X036776Y005845D01*
X036738Y005793D01*
X036702Y005738D01*
X036670Y005681D01*
X036642Y005623D01*
X036617Y005562D01*
X036596Y005501D01*
X036578Y005438D01*
X036565Y005375D01*
X036555Y005310D01*
X036549Y005245D01*
X036547Y005180D01*
X036549Y005115D01*
X036555Y005050D01*
X036565Y004986D01*
X036578Y004922D01*
X036596Y004859D01*
X036617Y004798D01*
X036642Y004738D01*
X036670Y004679D01*
X036702Y004622D01*
X036738Y004568D01*
X036776Y004515D01*
X036782Y004520D01*
X036743Y004572D01*
X036708Y004626D01*
X036676Y004682D01*
X036648Y004741D01*
X036623Y004800D01*
X036602Y004862D01*
X036585Y004924D01*
X036571Y004987D01*
X036562Y005051D01*
X036556Y005116D01*
X036554Y005180D01*
X036556Y005245D01*
X036562Y005309D01*
X036572Y005373D01*
X036585Y005437D01*
X036603Y005499D01*
X036624Y005560D01*
X036648Y005620D01*
X036677Y005678D01*
X036708Y005734D01*
X036744Y005789D01*
X036782Y005841D01*
X036823Y005891D01*
X036868Y005938D01*
X036915Y005982D01*
X036964Y006023D01*
X037016Y006062D01*
X037071Y006097D01*
X037127Y006129D01*
X037185Y006157D01*
X037245Y006182D01*
X037306Y006203D01*
X037308Y006196D01*
X037247Y006175D01*
X037188Y006151D01*
X037130Y006123D01*
X037074Y006091D01*
X037020Y006056D01*
X036969Y006018D01*
X036919Y005977D01*
X036873Y005933D01*
X036829Y005886D01*
X036787Y005836D01*
X036749Y005785D01*
X036714Y005731D01*
X036683Y005675D01*
X036655Y005617D01*
X036630Y005558D01*
X036609Y005497D01*
X036592Y005435D01*
X036578Y005372D01*
X036569Y005308D01*
X036563Y005244D01*
X036561Y005180D01*
X036563Y005116D01*
X036569Y005052D01*
X036578Y004988D01*
X036592Y004926D01*
X036609Y004864D01*
X036630Y004803D01*
X036655Y004743D01*
X036683Y004686D01*
X036714Y004630D01*
X036749Y004576D01*
X036787Y004524D01*
X036793Y004528D01*
X036755Y004580D01*
X036720Y004633D01*
X036689Y004689D01*
X036661Y004746D01*
X036637Y004805D01*
X036616Y004866D01*
X036599Y004927D01*
X036585Y004990D01*
X036576Y005053D01*
X036570Y005116D01*
X036568Y005180D01*
X036570Y005244D01*
X036576Y005308D01*
X036585Y005371D01*
X036599Y005433D01*
X036616Y005495D01*
X036637Y005555D01*
X036661Y005614D01*
X036689Y005671D01*
X036720Y005727D01*
X036755Y005781D01*
X036793Y005832D01*
X036834Y005881D01*
X036877Y005928D01*
X036924Y005972D01*
X036973Y006012D01*
X037024Y006050D01*
X037078Y006085D01*
X037134Y006116D01*
X037191Y006144D01*
X037250Y006169D01*
X037310Y006190D01*
X037312Y006183D01*
X037252Y006162D01*
X037194Y006138D01*
X037137Y006110D01*
X037082Y006079D01*
X037028Y006045D01*
X036977Y006007D01*
X036929Y005966D01*
X036882Y005923D01*
X036839Y005877D01*
X036798Y005828D01*
X036761Y005777D01*
X036726Y005723D01*
X036695Y005668D01*
X036668Y005611D01*
X036643Y005553D01*
X036623Y005493D01*
X036606Y005432D01*
X036592Y005369D01*
X036583Y005307D01*
X036577Y005244D01*
X036575Y005180D01*
X036577Y005117D01*
X036583Y005054D01*
X036592Y004991D01*
X036605Y004929D01*
X036622Y004868D01*
X036643Y004808D01*
X036667Y004749D01*
X036695Y004692D01*
X036726Y004637D01*
X036761Y004584D01*
X036798Y004533D01*
X036804Y004537D01*
X036766Y004588D01*
X036732Y004641D01*
X036701Y004695D01*
X036674Y004752D01*
X036650Y004810D01*
X036629Y004870D01*
X036612Y004931D01*
X036599Y004992D01*
X036590Y005055D01*
X036584Y005117D01*
X036582Y005180D01*
X036584Y005243D01*
X036590Y005306D01*
X036599Y005368D01*
X036612Y005430D01*
X036629Y005491D01*
X036650Y005550D01*
X036674Y005608D01*
X036701Y005665D01*
X036732Y005720D01*
X036767Y005773D01*
X036804Y005824D01*
X036844Y005872D01*
X036887Y005918D01*
X036933Y005961D01*
X036982Y006001D01*
X037032Y006039D01*
X037085Y006073D01*
X037140Y006104D01*
X037197Y006132D01*
X037255Y006156D01*
X037314Y006176D01*
X037316Y006170D01*
X037257Y006149D01*
X037200Y006125D01*
X037143Y006098D01*
X037089Y006067D01*
X037036Y006033D01*
X036986Y005996D01*
X036938Y005956D01*
X036892Y005913D01*
X036849Y005867D01*
X036809Y005819D01*
X036772Y005769D01*
X036738Y005716D01*
X036708Y005662D01*
X036680Y005605D01*
X036656Y005548D01*
X036636Y005488D01*
X036619Y005428D01*
X036606Y005367D01*
X036597Y005305D01*
X036591Y005243D01*
X036589Y005180D01*
X036591Y005118D01*
X036597Y005055D01*
X036606Y004994D01*
X036619Y004932D01*
X036636Y004872D01*
X036656Y004813D01*
X036680Y004755D01*
X036707Y004699D01*
X036738Y004644D01*
X036772Y004592D01*
X036809Y004541D01*
X036815Y004546D01*
X036778Y004596D01*
X036744Y004648D01*
X036714Y004702D01*
X036686Y004758D01*
X036663Y004815D01*
X036642Y004874D01*
X036626Y004934D01*
X036613Y004995D01*
X036603Y005056D01*
X036598Y005118D01*
X036596Y005180D01*
X036598Y005242D01*
X036604Y005304D01*
X036613Y005366D01*
X036626Y005426D01*
X036643Y005486D01*
X036663Y005545D01*
X036687Y005603D01*
X036714Y005658D01*
X036744Y005713D01*
X036778Y005765D01*
X036815Y005815D01*
X036855Y005863D01*
X036897Y005908D01*
X036942Y005951D01*
X036990Y005990D01*
X037040Y006027D01*
X037092Y006061D01*
X037147Y006092D01*
X037202Y006119D01*
X037260Y006143D01*
X037319Y006163D01*
X037321Y006156D01*
X037262Y006136D01*
X037205Y006112D01*
X037150Y006085D01*
X037096Y006055D01*
X037044Y006021D01*
X036995Y005985D01*
X036947Y005945D01*
X036902Y005903D01*
X036860Y005858D01*
X036820Y005811D01*
X036784Y005761D01*
X036750Y005709D01*
X036720Y005655D01*
X036693Y005600D01*
X036669Y005543D01*
X036649Y005484D01*
X036633Y005425D01*
X036620Y005364D01*
X036610Y005303D01*
X036605Y005242D01*
X036603Y005180D01*
X036605Y005119D01*
X036610Y005057D01*
X036620Y004996D01*
X036633Y004936D01*
X036649Y004876D01*
X036669Y004818D01*
X036693Y004761D01*
X036720Y004705D01*
X036750Y004651D01*
X036784Y004600D01*
X036820Y004550D01*
X036826Y004554D01*
X036789Y004604D01*
X036756Y004655D01*
X036726Y004709D01*
X036699Y004764D01*
X036676Y004820D01*
X036656Y004878D01*
X036639Y004937D01*
X036627Y004997D01*
X036617Y005058D01*
X036612Y005119D01*
X036610Y005180D01*
X036612Y005242D01*
X036617Y005303D01*
X036627Y005363D01*
X036640Y005423D01*
X036656Y005482D01*
X036676Y005540D01*
X036699Y005597D01*
X036726Y005652D01*
X036756Y005705D01*
X036790Y005757D01*
X036826Y005806D01*
X036865Y005853D01*
X036907Y005898D01*
X036952Y005940D01*
X036999Y005979D01*
X037048Y006016D01*
X037100Y006049D01*
X037153Y006079D01*
X037208Y006106D01*
X037265Y006130D01*
X037323Y006150D01*
X038481Y006511D02*
X038424Y006556D01*
X038425Y006555D02*
X038461Y006605D01*
X038494Y006656D01*
X038524Y006709D01*
X038551Y006765D01*
X038574Y006821D01*
X038594Y006879D01*
X038611Y006938D01*
X038623Y006998D01*
X038633Y007058D01*
X038638Y007119D01*
X038640Y007180D01*
X038638Y007241D01*
X038633Y007302D01*
X038623Y007363D01*
X038611Y007423D01*
X038594Y007482D01*
X038574Y007539D01*
X038551Y007596D01*
X038524Y007651D01*
X038494Y007704D01*
X038461Y007756D01*
X038425Y007805D01*
X038385Y007852D01*
X038343Y007897D01*
X038299Y007939D01*
X038252Y007978D01*
X038203Y008014D01*
X038151Y008047D01*
X038098Y008077D01*
X038043Y008104D01*
X037987Y008128D01*
X037929Y008148D01*
X037950Y008216D01*
X037950Y008217D01*
X038012Y008195D01*
X038072Y008170D01*
X038131Y008141D01*
X038188Y008109D01*
X038243Y008073D01*
X038296Y008034D01*
X038347Y007992D01*
X038394Y007948D01*
X038439Y007900D01*
X038481Y007849D01*
X038520Y007797D01*
X038556Y007742D01*
X038588Y007684D01*
X038616Y007626D01*
X038641Y007565D01*
X038663Y007503D01*
X038680Y007440D01*
X038694Y007376D01*
X038704Y007311D01*
X038710Y007246D01*
X038712Y007180D01*
X038710Y007115D01*
X038704Y007049D01*
X038694Y006985D01*
X038681Y006920D01*
X038663Y006857D01*
X038642Y006795D01*
X038617Y006735D01*
X038588Y006676D01*
X038556Y006619D01*
X038520Y006564D01*
X038481Y006511D01*
X038476Y006515D01*
X038514Y006568D01*
X038550Y006622D01*
X038582Y006679D01*
X038610Y006738D01*
X038635Y006798D01*
X038656Y006859D01*
X038674Y006922D01*
X038687Y006986D01*
X038697Y007050D01*
X038703Y007115D01*
X038705Y007180D01*
X038703Y007245D01*
X038697Y007310D01*
X038687Y007375D01*
X038674Y007438D01*
X038656Y007501D01*
X038635Y007562D01*
X038610Y007623D01*
X038582Y007681D01*
X038550Y007738D01*
X038514Y007793D01*
X038476Y007845D01*
X038434Y007895D01*
X038389Y007943D01*
X038342Y007987D01*
X038292Y008029D01*
X038240Y008068D01*
X038185Y008103D01*
X038128Y008135D01*
X038070Y008164D01*
X038009Y008189D01*
X037948Y008210D01*
X037946Y008203D01*
X038007Y008182D01*
X038067Y008157D01*
X038125Y008129D01*
X038181Y008097D01*
X038236Y008062D01*
X038288Y008023D01*
X038337Y007982D01*
X038384Y007938D01*
X038429Y007891D01*
X038470Y007841D01*
X038508Y007789D01*
X038544Y007734D01*
X038575Y007678D01*
X038604Y007620D01*
X038628Y007560D01*
X038649Y007499D01*
X038667Y007437D01*
X038680Y007373D01*
X038690Y007309D01*
X038696Y007245D01*
X038698Y007180D01*
X038696Y007116D01*
X038690Y007051D01*
X038681Y006987D01*
X038667Y006924D01*
X038650Y006862D01*
X038629Y006800D01*
X038604Y006741D01*
X038576Y006682D01*
X038544Y006626D01*
X038509Y006572D01*
X038470Y006520D01*
X038465Y006524D01*
X038503Y006576D01*
X038538Y006630D01*
X038569Y006686D01*
X038597Y006743D01*
X038622Y006803D01*
X038643Y006864D01*
X038660Y006926D01*
X038674Y006988D01*
X038683Y007052D01*
X038689Y007116D01*
X038691Y007180D01*
X038689Y007244D01*
X038683Y007308D01*
X038674Y007372D01*
X038660Y007435D01*
X038643Y007497D01*
X038622Y007558D01*
X038597Y007617D01*
X038569Y007675D01*
X038538Y007731D01*
X038503Y007785D01*
X038465Y007836D01*
X038423Y007886D01*
X038379Y007933D01*
X038333Y007977D01*
X038283Y008018D01*
X038232Y008056D01*
X038178Y008091D01*
X038122Y008123D01*
X038064Y008151D01*
X038005Y008175D01*
X037944Y008196D01*
X037942Y008190D01*
X038002Y008169D01*
X038061Y008144D01*
X038118Y008116D01*
X038174Y008085D01*
X038228Y008050D01*
X038279Y008012D01*
X038328Y007972D01*
X038375Y007928D01*
X038418Y007881D01*
X038459Y007832D01*
X038497Y007781D01*
X038532Y007727D01*
X038563Y007671D01*
X038591Y007614D01*
X038615Y007555D01*
X038636Y007495D01*
X038653Y007433D01*
X038667Y007371D01*
X038676Y007308D01*
X038682Y007244D01*
X038684Y007180D01*
X038682Y007116D01*
X038676Y007053D01*
X038667Y006990D01*
X038653Y006927D01*
X038636Y006866D01*
X038615Y006805D01*
X038591Y006746D01*
X038563Y006689D01*
X038532Y006633D01*
X038497Y006580D01*
X038459Y006528D01*
X038454Y006533D01*
X038491Y006584D01*
X038526Y006637D01*
X038557Y006692D01*
X038585Y006749D01*
X038609Y006808D01*
X038630Y006868D01*
X038647Y006929D01*
X038660Y006991D01*
X038669Y007054D01*
X038675Y007117D01*
X038677Y007180D01*
X038675Y007244D01*
X038669Y007307D01*
X038660Y007369D01*
X038646Y007431D01*
X038629Y007493D01*
X038609Y007553D01*
X038584Y007611D01*
X038557Y007668D01*
X038526Y007723D01*
X038491Y007777D01*
X038454Y007828D01*
X038413Y007877D01*
X038370Y007923D01*
X038323Y007966D01*
X038275Y008007D01*
X038224Y008045D01*
X038170Y008079D01*
X038115Y008110D01*
X038058Y008138D01*
X038000Y008162D01*
X037940Y008183D01*
X037938Y008176D01*
X037997Y008156D01*
X038055Y008132D01*
X038112Y008104D01*
X038167Y008073D01*
X038220Y008039D01*
X038270Y008001D01*
X038319Y007961D01*
X038365Y007918D01*
X038408Y007872D01*
X038448Y007823D01*
X038485Y007773D01*
X038520Y007720D01*
X038551Y007665D01*
X038578Y007608D01*
X038602Y007550D01*
X038623Y007491D01*
X038640Y007430D01*
X038653Y007368D01*
X038662Y007306D01*
X038668Y007243D01*
X038670Y007180D01*
X038668Y007117D01*
X038662Y007055D01*
X038653Y006992D01*
X038640Y006931D01*
X038623Y006870D01*
X038602Y006810D01*
X038578Y006752D01*
X038551Y006695D01*
X038520Y006641D01*
X038486Y006588D01*
X038448Y006537D01*
X038443Y006541D01*
X038480Y006592D01*
X038514Y006644D01*
X038545Y006699D01*
X038572Y006755D01*
X038596Y006813D01*
X038616Y006872D01*
X038633Y006932D01*
X038646Y006993D01*
X038655Y007055D01*
X038661Y007118D01*
X038663Y007180D01*
X038661Y007243D01*
X038655Y007305D01*
X038646Y007367D01*
X038633Y007428D01*
X038616Y007488D01*
X038596Y007548D01*
X038572Y007605D01*
X038544Y007662D01*
X038514Y007716D01*
X038480Y007769D01*
X038443Y007819D01*
X038403Y007867D01*
X038360Y007913D01*
X038314Y007956D01*
X038266Y007996D01*
X038216Y008033D01*
X038163Y008067D01*
X038109Y008098D01*
X038052Y008125D01*
X037995Y008149D01*
X037936Y008170D01*
X037933Y008163D01*
X037992Y008143D01*
X038050Y008119D01*
X038105Y008092D01*
X038160Y008061D01*
X038212Y008027D01*
X038262Y007990D01*
X038310Y007951D01*
X038355Y007908D01*
X038397Y007863D01*
X038437Y007815D01*
X038474Y007765D01*
X038508Y007713D01*
X038538Y007658D01*
X038565Y007603D01*
X038589Y007545D01*
X038609Y007486D01*
X038626Y007426D01*
X038639Y007366D01*
X038648Y007304D01*
X038654Y007242D01*
X038656Y007180D01*
X038654Y007118D01*
X038649Y007056D01*
X038639Y006995D01*
X038626Y006934D01*
X038610Y006874D01*
X038589Y006815D01*
X038566Y006758D01*
X038538Y006702D01*
X038508Y006648D01*
X038474Y006596D01*
X038437Y006546D01*
X038432Y006550D01*
X038468Y006600D01*
X038502Y006651D01*
X038532Y006705D01*
X038559Y006761D01*
X038583Y006818D01*
X038603Y006876D01*
X038619Y006936D01*
X038632Y006996D01*
X038642Y007057D01*
X038647Y007119D01*
X038649Y007180D01*
X038647Y007242D01*
X038642Y007303D01*
X038632Y007364D01*
X038619Y007425D01*
X038603Y007484D01*
X038583Y007543D01*
X038559Y007600D01*
X038532Y007655D01*
X038502Y007709D01*
X038468Y007761D01*
X038432Y007811D01*
X038392Y007858D01*
X038350Y007903D01*
X038305Y007945D01*
X038257Y007985D01*
X038208Y008021D01*
X038156Y008055D01*
X038102Y008085D01*
X038047Y008112D01*
X037990Y008136D01*
X037931Y008156D01*
X037929Y008150D01*
X037987Y008130D01*
X038044Y008106D01*
X038099Y008079D01*
X038152Y008049D01*
X038204Y008016D01*
X038253Y007979D01*
X038300Y007940D01*
X038345Y007898D01*
X038387Y007853D01*
X038426Y007806D01*
X038462Y007757D01*
X038496Y007705D01*
X038526Y007652D01*
X038553Y007597D01*
X038576Y007540D01*
X038596Y007482D01*
X038612Y007423D01*
X038625Y007363D01*
X038635Y007303D01*
X038640Y007242D01*
X038642Y007180D01*
X038640Y007119D01*
X038635Y007058D01*
X038625Y006997D01*
X038613Y006937D01*
X038596Y006878D01*
X038576Y006820D01*
X038553Y006764D01*
X038526Y006709D01*
X038496Y006655D01*
X038463Y006604D01*
X038426Y006554D01*
X037303Y008216D02*
X037324Y008147D01*
X037323Y008148D02*
X037265Y008128D01*
X037209Y008104D01*
X037154Y008077D01*
X037101Y008047D01*
X037049Y008014D01*
X037000Y007978D01*
X036953Y007939D01*
X036909Y007897D01*
X036867Y007852D01*
X036828Y007805D01*
X036791Y007756D01*
X036758Y007704D01*
X036728Y007651D01*
X036701Y007596D01*
X036678Y007539D01*
X036658Y007482D01*
X036641Y007423D01*
X036629Y007363D01*
X036619Y007302D01*
X036614Y007241D01*
X036612Y007180D01*
X036614Y007119D01*
X036619Y007058D01*
X036629Y006998D01*
X036641Y006938D01*
X036658Y006879D01*
X036678Y006821D01*
X036701Y006765D01*
X036728Y006709D01*
X036758Y006656D01*
X036791Y006605D01*
X036827Y006555D01*
X036771Y006511D01*
X036732Y006564D01*
X036696Y006619D01*
X036664Y006676D01*
X036635Y006735D01*
X036610Y006795D01*
X036589Y006857D01*
X036571Y006921D01*
X036558Y006985D01*
X036548Y007049D01*
X036542Y007115D01*
X036540Y007180D01*
X036542Y007246D01*
X036548Y007311D01*
X036558Y007376D01*
X036572Y007440D01*
X036589Y007503D01*
X036611Y007565D01*
X036636Y007626D01*
X036664Y007684D01*
X036696Y007742D01*
X036732Y007797D01*
X036771Y007849D01*
X036813Y007900D01*
X036858Y007948D01*
X036905Y007993D01*
X036956Y008034D01*
X037009Y008073D01*
X037064Y008109D01*
X037121Y008141D01*
X037180Y008170D01*
X037240Y008195D01*
X037302Y008217D01*
X037304Y008210D01*
X037243Y008189D01*
X037182Y008164D01*
X037124Y008135D01*
X037067Y008103D01*
X037012Y008068D01*
X036960Y008029D01*
X036910Y007987D01*
X036863Y007943D01*
X036818Y007895D01*
X036776Y007845D01*
X036738Y007793D01*
X036702Y007738D01*
X036670Y007681D01*
X036642Y007623D01*
X036617Y007562D01*
X036596Y007501D01*
X036578Y007438D01*
X036565Y007375D01*
X036555Y007310D01*
X036549Y007245D01*
X036547Y007180D01*
X036549Y007115D01*
X036555Y007050D01*
X036565Y006986D01*
X036578Y006922D01*
X036596Y006859D01*
X036617Y006798D01*
X036642Y006738D01*
X036670Y006679D01*
X036702Y006622D01*
X036738Y006568D01*
X036776Y006515D01*
X036782Y006520D01*
X036743Y006572D01*
X036708Y006626D01*
X036676Y006682D01*
X036648Y006741D01*
X036623Y006800D01*
X036602Y006862D01*
X036585Y006924D01*
X036571Y006987D01*
X036562Y007051D01*
X036556Y007116D01*
X036554Y007180D01*
X036556Y007245D01*
X036562Y007309D01*
X036572Y007373D01*
X036585Y007437D01*
X036603Y007499D01*
X036624Y007560D01*
X036648Y007620D01*
X036677Y007678D01*
X036708Y007734D01*
X036744Y007789D01*
X036782Y007841D01*
X036823Y007891D01*
X036868Y007938D01*
X036915Y007982D01*
X036964Y008023D01*
X037016Y008062D01*
X037071Y008097D01*
X037127Y008129D01*
X037185Y008157D01*
X037245Y008182D01*
X037306Y008203D01*
X037308Y008196D01*
X037247Y008175D01*
X037188Y008151D01*
X037130Y008123D01*
X037074Y008091D01*
X037020Y008056D01*
X036969Y008018D01*
X036919Y007977D01*
X036873Y007933D01*
X036829Y007886D01*
X036787Y007836D01*
X036749Y007785D01*
X036714Y007731D01*
X036683Y007675D01*
X036655Y007617D01*
X036630Y007558D01*
X036609Y007497D01*
X036592Y007435D01*
X036578Y007372D01*
X036569Y007308D01*
X036563Y007244D01*
X036561Y007180D01*
X036563Y007116D01*
X036569Y007052D01*
X036578Y006988D01*
X036592Y006926D01*
X036609Y006864D01*
X036630Y006803D01*
X036655Y006743D01*
X036683Y006686D01*
X036714Y006630D01*
X036749Y006576D01*
X036787Y006524D01*
X036793Y006528D01*
X036755Y006580D01*
X036720Y006633D01*
X036689Y006689D01*
X036661Y006746D01*
X036637Y006805D01*
X036616Y006866D01*
X036599Y006927D01*
X036585Y006990D01*
X036576Y007053D01*
X036570Y007116D01*
X036568Y007180D01*
X036570Y007244D01*
X036576Y007308D01*
X036585Y007371D01*
X036599Y007433D01*
X036616Y007495D01*
X036637Y007555D01*
X036661Y007614D01*
X036689Y007671D01*
X036720Y007727D01*
X036755Y007781D01*
X036793Y007832D01*
X036834Y007881D01*
X036877Y007928D01*
X036924Y007972D01*
X036973Y008012D01*
X037024Y008050D01*
X037078Y008085D01*
X037134Y008116D01*
X037191Y008144D01*
X037250Y008169D01*
X037310Y008190D01*
X037312Y008183D01*
X037252Y008162D01*
X037194Y008138D01*
X037137Y008110D01*
X037082Y008079D01*
X037028Y008045D01*
X036977Y008007D01*
X036929Y007966D01*
X036882Y007923D01*
X036839Y007877D01*
X036798Y007828D01*
X036761Y007777D01*
X036726Y007723D01*
X036695Y007668D01*
X036668Y007611D01*
X036643Y007553D01*
X036623Y007493D01*
X036606Y007432D01*
X036592Y007369D01*
X036583Y007307D01*
X036577Y007244D01*
X036575Y007180D01*
X036577Y007117D01*
X036583Y007054D01*
X036592Y006991D01*
X036605Y006929D01*
X036622Y006868D01*
X036643Y006808D01*
X036667Y006749D01*
X036695Y006692D01*
X036726Y006637D01*
X036761Y006584D01*
X036798Y006533D01*
X036804Y006537D01*
X036766Y006588D01*
X036732Y006641D01*
X036701Y006695D01*
X036674Y006752D01*
X036650Y006810D01*
X036629Y006870D01*
X036612Y006931D01*
X036599Y006992D01*
X036590Y007055D01*
X036584Y007117D01*
X036582Y007180D01*
X036584Y007243D01*
X036590Y007306D01*
X036599Y007368D01*
X036612Y007430D01*
X036629Y007491D01*
X036650Y007550D01*
X036674Y007608D01*
X036701Y007665D01*
X036732Y007720D01*
X036767Y007773D01*
X036804Y007824D01*
X036844Y007872D01*
X036887Y007918D01*
X036933Y007961D01*
X036982Y008001D01*
X037032Y008039D01*
X037085Y008073D01*
X037140Y008104D01*
X037197Y008132D01*
X037255Y008156D01*
X037314Y008176D01*
X037316Y008170D01*
X037257Y008149D01*
X037200Y008125D01*
X037143Y008098D01*
X037089Y008067D01*
X037036Y008033D01*
X036986Y007996D01*
X036938Y007956D01*
X036892Y007913D01*
X036849Y007867D01*
X036809Y007819D01*
X036772Y007769D01*
X036738Y007716D01*
X036708Y007662D01*
X036680Y007605D01*
X036656Y007548D01*
X036636Y007488D01*
X036619Y007428D01*
X036606Y007367D01*
X036597Y007305D01*
X036591Y007243D01*
X036589Y007180D01*
X036591Y007118D01*
X036597Y007055D01*
X036606Y006994D01*
X036619Y006932D01*
X036636Y006872D01*
X036656Y006813D01*
X036680Y006755D01*
X036707Y006699D01*
X036738Y006644D01*
X036772Y006592D01*
X036809Y006541D01*
X036815Y006546D01*
X036778Y006596D01*
X036744Y006648D01*
X036714Y006702D01*
X036686Y006758D01*
X036663Y006815D01*
X036642Y006874D01*
X036626Y006934D01*
X036613Y006995D01*
X036603Y007056D01*
X036598Y007118D01*
X036596Y007180D01*
X036598Y007242D01*
X036604Y007304D01*
X036613Y007366D01*
X036626Y007426D01*
X036643Y007486D01*
X036663Y007545D01*
X036687Y007603D01*
X036714Y007658D01*
X036744Y007713D01*
X036778Y007765D01*
X036815Y007815D01*
X036855Y007863D01*
X036897Y007908D01*
X036942Y007951D01*
X036990Y007990D01*
X037040Y008027D01*
X037092Y008061D01*
X037147Y008092D01*
X037202Y008119D01*
X037260Y008143D01*
X037319Y008163D01*
X037321Y008156D01*
X037262Y008136D01*
X037205Y008112D01*
X037150Y008085D01*
X037096Y008055D01*
X037044Y008021D01*
X036995Y007985D01*
X036947Y007945D01*
X036902Y007903D01*
X036860Y007858D01*
X036820Y007811D01*
X036784Y007761D01*
X036750Y007709D01*
X036720Y007655D01*
X036693Y007600D01*
X036669Y007543D01*
X036649Y007484D01*
X036633Y007425D01*
X036620Y007364D01*
X036610Y007303D01*
X036605Y007242D01*
X036603Y007180D01*
X036605Y007119D01*
X036610Y007057D01*
X036620Y006996D01*
X036633Y006936D01*
X036649Y006876D01*
X036669Y006818D01*
X036693Y006761D01*
X036720Y006705D01*
X036750Y006651D01*
X036784Y006600D01*
X036820Y006550D01*
X036826Y006554D01*
X036789Y006604D01*
X036756Y006655D01*
X036726Y006709D01*
X036699Y006764D01*
X036676Y006820D01*
X036656Y006878D01*
X036639Y006937D01*
X036627Y006997D01*
X036617Y007058D01*
X036612Y007119D01*
X036610Y007180D01*
X036612Y007242D01*
X036617Y007303D01*
X036627Y007363D01*
X036640Y007423D01*
X036656Y007482D01*
X036676Y007540D01*
X036699Y007597D01*
X036726Y007652D01*
X036756Y007705D01*
X036790Y007757D01*
X036826Y007806D01*
X036865Y007853D01*
X036907Y007898D01*
X036952Y007940D01*
X036999Y007979D01*
X037048Y008016D01*
X037100Y008049D01*
X037153Y008079D01*
X037208Y008106D01*
X037265Y008130D01*
X037323Y008150D01*
X037303Y004216D02*
X037324Y004147D01*
X037323Y004148D02*
X037265Y004128D01*
X037209Y004104D01*
X037154Y004077D01*
X037101Y004047D01*
X037049Y004014D01*
X037000Y003978D01*
X036953Y003939D01*
X036909Y003897D01*
X036867Y003852D01*
X036828Y003805D01*
X036791Y003756D01*
X036758Y003704D01*
X036728Y003651D01*
X036701Y003596D01*
X036678Y003539D01*
X036658Y003482D01*
X036641Y003423D01*
X036629Y003363D01*
X036619Y003302D01*
X036614Y003241D01*
X036612Y003180D01*
X036614Y003119D01*
X036619Y003058D01*
X036629Y002998D01*
X036641Y002938D01*
X036658Y002879D01*
X036678Y002821D01*
X036701Y002765D01*
X036728Y002709D01*
X036758Y002656D01*
X036791Y002605D01*
X036827Y002555D01*
X036771Y002511D01*
X036732Y002564D01*
X036696Y002619D01*
X036664Y002676D01*
X036635Y002735D01*
X036610Y002795D01*
X036589Y002857D01*
X036571Y002921D01*
X036558Y002985D01*
X036548Y003049D01*
X036542Y003115D01*
X036540Y003180D01*
X036542Y003246D01*
X036548Y003311D01*
X036558Y003376D01*
X036572Y003440D01*
X036589Y003503D01*
X036611Y003565D01*
X036636Y003626D01*
X036664Y003684D01*
X036696Y003742D01*
X036732Y003797D01*
X036771Y003849D01*
X036813Y003900D01*
X036858Y003948D01*
X036905Y003993D01*
X036956Y004034D01*
X037009Y004073D01*
X037064Y004109D01*
X037121Y004141D01*
X037180Y004170D01*
X037240Y004195D01*
X037302Y004217D01*
X037304Y004210D01*
X037243Y004189D01*
X037182Y004164D01*
X037124Y004135D01*
X037067Y004103D01*
X037012Y004068D01*
X036960Y004029D01*
X036910Y003987D01*
X036863Y003943D01*
X036818Y003895D01*
X036776Y003845D01*
X036738Y003793D01*
X036702Y003738D01*
X036670Y003681D01*
X036642Y003623D01*
X036617Y003562D01*
X036596Y003501D01*
X036578Y003438D01*
X036565Y003375D01*
X036555Y003310D01*
X036549Y003245D01*
X036547Y003180D01*
X036549Y003115D01*
X036555Y003050D01*
X036565Y002986D01*
X036578Y002922D01*
X036596Y002859D01*
X036617Y002798D01*
X036642Y002738D01*
X036670Y002679D01*
X036702Y002622D01*
X036738Y002568D01*
X036776Y002515D01*
X036782Y002520D01*
X036743Y002572D01*
X036708Y002626D01*
X036676Y002682D01*
X036648Y002741D01*
X036623Y002800D01*
X036602Y002862D01*
X036585Y002924D01*
X036571Y002987D01*
X036562Y003051D01*
X036556Y003116D01*
X036554Y003180D01*
X036556Y003245D01*
X036562Y003309D01*
X036572Y003373D01*
X036585Y003437D01*
X036603Y003499D01*
X036624Y003560D01*
X036648Y003620D01*
X036677Y003678D01*
X036708Y003734D01*
X036744Y003789D01*
X036782Y003841D01*
X036823Y003891D01*
X036868Y003938D01*
X036915Y003982D01*
X036964Y004023D01*
X037016Y004062D01*
X037071Y004097D01*
X037127Y004129D01*
X037185Y004157D01*
X037245Y004182D01*
X037306Y004203D01*
X037308Y004196D01*
X037247Y004175D01*
X037188Y004151D01*
X037130Y004123D01*
X037074Y004091D01*
X037020Y004056D01*
X036969Y004018D01*
X036919Y003977D01*
X036873Y003933D01*
X036829Y003886D01*
X036787Y003836D01*
X036749Y003785D01*
X036714Y003731D01*
X036683Y003675D01*
X036655Y003617D01*
X036630Y003558D01*
X036609Y003497D01*
X036592Y003435D01*
X036578Y003372D01*
X036569Y003308D01*
X036563Y003244D01*
X036561Y003180D01*
X036563Y003116D01*
X036569Y003052D01*
X036578Y002988D01*
X036592Y002926D01*
X036609Y002864D01*
X036630Y002803D01*
X036655Y002743D01*
X036683Y002686D01*
X036714Y002630D01*
X036749Y002576D01*
X036787Y002524D01*
X036793Y002528D01*
X036755Y002580D01*
X036720Y002633D01*
X036689Y002689D01*
X036661Y002746D01*
X036637Y002805D01*
X036616Y002866D01*
X036599Y002927D01*
X036585Y002990D01*
X036576Y003053D01*
X036570Y003116D01*
X036568Y003180D01*
X036570Y003244D01*
X036576Y003308D01*
X036585Y003371D01*
X036599Y003433D01*
X036616Y003495D01*
X036637Y003555D01*
X036661Y003614D01*
X036689Y003671D01*
X036720Y003727D01*
X036755Y003781D01*
X036793Y003832D01*
X036834Y003881D01*
X036877Y003928D01*
X036924Y003972D01*
X036973Y004012D01*
X037024Y004050D01*
X037078Y004085D01*
X037134Y004116D01*
X037191Y004144D01*
X037250Y004169D01*
X037310Y004190D01*
X037312Y004183D01*
X037252Y004162D01*
X037194Y004138D01*
X037137Y004110D01*
X037082Y004079D01*
X037028Y004045D01*
X036977Y004007D01*
X036929Y003966D01*
X036882Y003923D01*
X036839Y003877D01*
X036798Y003828D01*
X036761Y003777D01*
X036726Y003723D01*
X036695Y003668D01*
X036668Y003611D01*
X036643Y003553D01*
X036623Y003493D01*
X036606Y003432D01*
X036592Y003369D01*
X036583Y003307D01*
X036577Y003244D01*
X036575Y003180D01*
X036577Y003117D01*
X036583Y003054D01*
X036592Y002991D01*
X036605Y002929D01*
X036622Y002868D01*
X036643Y002808D01*
X036667Y002749D01*
X036695Y002692D01*
X036726Y002637D01*
X036761Y002584D01*
X036798Y002533D01*
X036804Y002537D01*
X036766Y002588D01*
X036732Y002641D01*
X036701Y002695D01*
X036674Y002752D01*
X036650Y002810D01*
X036629Y002870D01*
X036612Y002931D01*
X036599Y002992D01*
X036590Y003055D01*
X036584Y003117D01*
X036582Y003180D01*
X036584Y003243D01*
X036590Y003306D01*
X036599Y003368D01*
X036612Y003430D01*
X036629Y003491D01*
X036650Y003550D01*
X036674Y003608D01*
X036701Y003665D01*
X036732Y003720D01*
X036767Y003773D01*
X036804Y003824D01*
X036844Y003872D01*
X036887Y003918D01*
X036933Y003961D01*
X036982Y004001D01*
X037032Y004039D01*
X037085Y004073D01*
X037140Y004104D01*
X037197Y004132D01*
X037255Y004156D01*
X037314Y004176D01*
X037316Y004170D01*
X037257Y004149D01*
X037200Y004125D01*
X037143Y004098D01*
X037089Y004067D01*
X037036Y004033D01*
X036986Y003996D01*
X036938Y003956D01*
X036892Y003913D01*
X036849Y003867D01*
X036809Y003819D01*
X036772Y003769D01*
X036738Y003716D01*
X036708Y003662D01*
X036680Y003605D01*
X036656Y003548D01*
X036636Y003488D01*
X036619Y003428D01*
X036606Y003367D01*
X036597Y003305D01*
X036591Y003243D01*
X036589Y003180D01*
X036591Y003118D01*
X036597Y003055D01*
X036606Y002994D01*
X036619Y002932D01*
X036636Y002872D01*
X036656Y002813D01*
X036680Y002755D01*
X036707Y002699D01*
X036738Y002644D01*
X036772Y002592D01*
X036809Y002541D01*
X036815Y002546D01*
X036778Y002596D01*
X036744Y002648D01*
X036714Y002702D01*
X036686Y002758D01*
X036663Y002815D01*
X036642Y002874D01*
X036626Y002934D01*
X036613Y002995D01*
X036603Y003056D01*
X036598Y003118D01*
X036596Y003180D01*
X036598Y003242D01*
X036604Y003304D01*
X036613Y003366D01*
X036626Y003426D01*
X036643Y003486D01*
X036663Y003545D01*
X036687Y003603D01*
X036714Y003658D01*
X036744Y003713D01*
X036778Y003765D01*
X036815Y003815D01*
X036855Y003863D01*
X036897Y003908D01*
X036942Y003951D01*
X036990Y003990D01*
X037040Y004027D01*
X037092Y004061D01*
X037147Y004092D01*
X037202Y004119D01*
X037260Y004143D01*
X037319Y004163D01*
X037321Y004156D01*
X037262Y004136D01*
X037205Y004112D01*
X037150Y004085D01*
X037096Y004055D01*
X037044Y004021D01*
X036995Y003985D01*
X036947Y003945D01*
X036902Y003903D01*
X036860Y003858D01*
X036820Y003811D01*
X036784Y003761D01*
X036750Y003709D01*
X036720Y003655D01*
X036693Y003600D01*
X036669Y003543D01*
X036649Y003484D01*
X036633Y003425D01*
X036620Y003364D01*
X036610Y003303D01*
X036605Y003242D01*
X036603Y003180D01*
X036605Y003119D01*
X036610Y003057D01*
X036620Y002996D01*
X036633Y002936D01*
X036649Y002876D01*
X036669Y002818D01*
X036693Y002761D01*
X036720Y002705D01*
X036750Y002651D01*
X036784Y002600D01*
X036820Y002550D01*
X036826Y002554D01*
X036789Y002604D01*
X036756Y002655D01*
X036726Y002709D01*
X036699Y002764D01*
X036676Y002820D01*
X036656Y002878D01*
X036639Y002937D01*
X036627Y002997D01*
X036617Y003058D01*
X036612Y003119D01*
X036610Y003180D01*
X036612Y003242D01*
X036617Y003303D01*
X036627Y003363D01*
X036640Y003423D01*
X036656Y003482D01*
X036676Y003540D01*
X036699Y003597D01*
X036726Y003652D01*
X036756Y003705D01*
X036790Y003757D01*
X036826Y003806D01*
X036865Y003853D01*
X036907Y003898D01*
X036952Y003940D01*
X036999Y003979D01*
X037048Y004016D01*
X037100Y004049D01*
X037153Y004079D01*
X037208Y004106D01*
X037265Y004130D01*
X037323Y004150D01*
X038481Y002511D02*
X038424Y002556D01*
X038425Y002555D02*
X038461Y002605D01*
X038494Y002656D01*
X038524Y002709D01*
X038551Y002765D01*
X038574Y002821D01*
X038594Y002879D01*
X038611Y002938D01*
X038623Y002998D01*
X038633Y003058D01*
X038638Y003119D01*
X038640Y003180D01*
X038638Y003241D01*
X038633Y003302D01*
X038623Y003363D01*
X038611Y003423D01*
X038594Y003482D01*
X038574Y003539D01*
X038551Y003596D01*
X038524Y003651D01*
X038494Y003704D01*
X038461Y003756D01*
X038425Y003805D01*
X038385Y003852D01*
X038343Y003897D01*
X038299Y003939D01*
X038252Y003978D01*
X038203Y004014D01*
X038151Y004047D01*
X038098Y004077D01*
X038043Y004104D01*
X037987Y004128D01*
X037929Y004148D01*
X037950Y004216D01*
X037950Y004217D01*
X038012Y004195D01*
X038072Y004170D01*
X038131Y004141D01*
X038188Y004109D01*
X038243Y004073D01*
X038296Y004034D01*
X038347Y003992D01*
X038394Y003948D01*
X038439Y003900D01*
X038481Y003849D01*
X038520Y003797D01*
X038556Y003742D01*
X038588Y003684D01*
X038616Y003626D01*
X038641Y003565D01*
X038663Y003503D01*
X038680Y003440D01*
X038694Y003376D01*
X038704Y003311D01*
X038710Y003246D01*
X038712Y003180D01*
X038710Y003115D01*
X038704Y003049D01*
X038694Y002985D01*
X038681Y002920D01*
X038663Y002857D01*
X038642Y002795D01*
X038617Y002735D01*
X038588Y002676D01*
X038556Y002619D01*
X038520Y002564D01*
X038481Y002511D01*
X038476Y002515D01*
X038514Y002568D01*
X038550Y002622D01*
X038582Y002679D01*
X038610Y002738D01*
X038635Y002798D01*
X038656Y002859D01*
X038674Y002922D01*
X038687Y002986D01*
X038697Y003050D01*
X038703Y003115D01*
X038705Y003180D01*
X038703Y003245D01*
X038697Y003310D01*
X038687Y003375D01*
X038674Y003438D01*
X038656Y003501D01*
X038635Y003562D01*
X038610Y003623D01*
X038582Y003681D01*
X038550Y003738D01*
X038514Y003793D01*
X038476Y003845D01*
X038434Y003895D01*
X038389Y003943D01*
X038342Y003987D01*
X038292Y004029D01*
X038240Y004068D01*
X038185Y004103D01*
X038128Y004135D01*
X038070Y004164D01*
X038009Y004189D01*
X037948Y004210D01*
X037946Y004203D01*
X038007Y004182D01*
X038067Y004157D01*
X038125Y004129D01*
X038181Y004097D01*
X038236Y004062D01*
X038288Y004023D01*
X038337Y003982D01*
X038384Y003938D01*
X038429Y003891D01*
X038470Y003841D01*
X038508Y003789D01*
X038544Y003734D01*
X038575Y003678D01*
X038604Y003620D01*
X038628Y003560D01*
X038649Y003499D01*
X038667Y003437D01*
X038680Y003373D01*
X038690Y003309D01*
X038696Y003245D01*
X038698Y003180D01*
X038696Y003116D01*
X038690Y003051D01*
X038681Y002987D01*
X038667Y002924D01*
X038650Y002862D01*
X038629Y002800D01*
X038604Y002741D01*
X038576Y002682D01*
X038544Y002626D01*
X038509Y002572D01*
X038470Y002520D01*
X038465Y002524D01*
X038503Y002576D01*
X038538Y002630D01*
X038569Y002686D01*
X038597Y002743D01*
X038622Y002803D01*
X038643Y002864D01*
X038660Y002926D01*
X038674Y002988D01*
X038683Y003052D01*
X038689Y003116D01*
X038691Y003180D01*
X038689Y003244D01*
X038683Y003308D01*
X038674Y003372D01*
X038660Y003435D01*
X038643Y003497D01*
X038622Y003558D01*
X038597Y003617D01*
X038569Y003675D01*
X038538Y003731D01*
X038503Y003785D01*
X038465Y003836D01*
X038423Y003886D01*
X038379Y003933D01*
X038333Y003977D01*
X038283Y004018D01*
X038232Y004056D01*
X038178Y004091D01*
X038122Y004123D01*
X038064Y004151D01*
X038005Y004175D01*
X037944Y004196D01*
X037942Y004190D01*
X038002Y004169D01*
X038061Y004144D01*
X038118Y004116D01*
X038174Y004085D01*
X038228Y004050D01*
X038279Y004012D01*
X038328Y003972D01*
X038375Y003928D01*
X038418Y003881D01*
X038459Y003832D01*
X038497Y003781D01*
X038532Y003727D01*
X038563Y003671D01*
X038591Y003614D01*
X038615Y003555D01*
X038636Y003495D01*
X038653Y003433D01*
X038667Y003371D01*
X038676Y003308D01*
X038682Y003244D01*
X038684Y003180D01*
X038682Y003116D01*
X038676Y003053D01*
X038667Y002990D01*
X038653Y002927D01*
X038636Y002866D01*
X038615Y002805D01*
X038591Y002746D01*
X038563Y002689D01*
X038532Y002633D01*
X038497Y002580D01*
X038459Y002528D01*
X038454Y002533D01*
X038491Y002584D01*
X038526Y002637D01*
X038557Y002692D01*
X038585Y002749D01*
X038609Y002808D01*
X038630Y002868D01*
X038647Y002929D01*
X038660Y002991D01*
X038669Y003054D01*
X038675Y003117D01*
X038677Y003180D01*
X038675Y003244D01*
X038669Y003307D01*
X038660Y003369D01*
X038646Y003431D01*
X038629Y003493D01*
X038609Y003553D01*
X038584Y003611D01*
X038557Y003668D01*
X038526Y003723D01*
X038491Y003777D01*
X038454Y003828D01*
X038413Y003877D01*
X038370Y003923D01*
X038323Y003966D01*
X038275Y004007D01*
X038224Y004045D01*
X038170Y004079D01*
X038115Y004110D01*
X038058Y004138D01*
X038000Y004162D01*
X037940Y004183D01*
X037938Y004176D01*
X037997Y004156D01*
X038055Y004132D01*
X038112Y004104D01*
X038167Y004073D01*
X038220Y004039D01*
X038270Y004001D01*
X038319Y003961D01*
X038365Y003918D01*
X038408Y003872D01*
X038448Y003823D01*
X038485Y003773D01*
X038520Y003720D01*
X038551Y003665D01*
X038578Y003608D01*
X038602Y003550D01*
X038623Y003491D01*
X038640Y003430D01*
X038653Y003368D01*
X038662Y003306D01*
X038668Y003243D01*
X038670Y003180D01*
X038668Y003117D01*
X038662Y003055D01*
X038653Y002992D01*
X038640Y002931D01*
X038623Y002870D01*
X038602Y002810D01*
X038578Y002752D01*
X038551Y002695D01*
X038520Y002641D01*
X038486Y002588D01*
X038448Y002537D01*
X038443Y002541D01*
X038480Y002592D01*
X038514Y002644D01*
X038545Y002699D01*
X038572Y002755D01*
X038596Y002813D01*
X038616Y002872D01*
X038633Y002932D01*
X038646Y002993D01*
X038655Y003055D01*
X038661Y003118D01*
X038663Y003180D01*
X038661Y003243D01*
X038655Y003305D01*
X038646Y003367D01*
X038633Y003428D01*
X038616Y003488D01*
X038596Y003548D01*
X038572Y003605D01*
X038544Y003662D01*
X038514Y003716D01*
X038480Y003769D01*
X038443Y003819D01*
X038403Y003867D01*
X038360Y003913D01*
X038314Y003956D01*
X038266Y003996D01*
X038216Y004033D01*
X038163Y004067D01*
X038109Y004098D01*
X038052Y004125D01*
X037995Y004149D01*
X037936Y004170D01*
X037933Y004163D01*
X037992Y004143D01*
X038050Y004119D01*
X038105Y004092D01*
X038160Y004061D01*
X038212Y004027D01*
X038262Y003990D01*
X038310Y003951D01*
X038355Y003908D01*
X038397Y003863D01*
X038437Y003815D01*
X038474Y003765D01*
X038508Y003713D01*
X038538Y003658D01*
X038565Y003603D01*
X038589Y003545D01*
X038609Y003486D01*
X038626Y003426D01*
X038639Y003366D01*
X038648Y003304D01*
X038654Y003242D01*
X038656Y003180D01*
X038654Y003118D01*
X038649Y003056D01*
X038639Y002995D01*
X038626Y002934D01*
X038610Y002874D01*
X038589Y002815D01*
X038566Y002758D01*
X038538Y002702D01*
X038508Y002648D01*
X038474Y002596D01*
X038437Y002546D01*
X038432Y002550D01*
X038468Y002600D01*
X038502Y002651D01*
X038532Y002705D01*
X038559Y002761D01*
X038583Y002818D01*
X038603Y002876D01*
X038619Y002936D01*
X038632Y002996D01*
X038642Y003057D01*
X038647Y003119D01*
X038649Y003180D01*
X038647Y003242D01*
X038642Y003303D01*
X038632Y003364D01*
X038619Y003425D01*
X038603Y003484D01*
X038583Y003543D01*
X038559Y003600D01*
X038532Y003655D01*
X038502Y003709D01*
X038468Y003761D01*
X038432Y003811D01*
X038392Y003858D01*
X038350Y003903D01*
X038305Y003945D01*
X038257Y003985D01*
X038208Y004021D01*
X038156Y004055D01*
X038102Y004085D01*
X038047Y004112D01*
X037990Y004136D01*
X037931Y004156D01*
X037929Y004150D01*
X037987Y004130D01*
X038044Y004106D01*
X038099Y004079D01*
X038152Y004049D01*
X038204Y004016D01*
X038253Y003979D01*
X038300Y003940D01*
X038345Y003898D01*
X038387Y003853D01*
X038426Y003806D01*
X038462Y003757D01*
X038496Y003705D01*
X038526Y003652D01*
X038553Y003597D01*
X038576Y003540D01*
X038596Y003482D01*
X038612Y003423D01*
X038625Y003363D01*
X038635Y003303D01*
X038640Y003242D01*
X038642Y003180D01*
X038640Y003119D01*
X038635Y003058D01*
X038625Y002997D01*
X038613Y002937D01*
X038596Y002878D01*
X038576Y002820D01*
X038553Y002764D01*
X038526Y002709D01*
X038496Y002655D01*
X038463Y002604D01*
X038426Y002554D01*
X037303Y002216D02*
X037324Y002147D01*
X037323Y002148D02*
X037265Y002128D01*
X037209Y002104D01*
X037154Y002077D01*
X037101Y002047D01*
X037049Y002014D01*
X037000Y001978D01*
X036953Y001939D01*
X036909Y001897D01*
X036867Y001852D01*
X036828Y001805D01*
X036791Y001756D01*
X036758Y001704D01*
X036728Y001651D01*
X036701Y001596D01*
X036678Y001539D01*
X036658Y001482D01*
X036641Y001423D01*
X036629Y001363D01*
X036619Y001302D01*
X036614Y001241D01*
X036612Y001180D01*
X036614Y001119D01*
X036619Y001058D01*
X036629Y000998D01*
X036641Y000938D01*
X036658Y000879D01*
X036678Y000821D01*
X036701Y000765D01*
X036728Y000709D01*
X036758Y000656D01*
X036791Y000605D01*
X036827Y000555D01*
X036771Y000511D01*
X036732Y000564D01*
X036696Y000619D01*
X036664Y000676D01*
X036635Y000735D01*
X036610Y000795D01*
X036589Y000857D01*
X036571Y000921D01*
X036558Y000985D01*
X036548Y001049D01*
X036542Y001115D01*
X036540Y001180D01*
X036542Y001246D01*
X036548Y001311D01*
X036558Y001376D01*
X036572Y001440D01*
X036589Y001503D01*
X036611Y001565D01*
X036636Y001626D01*
X036664Y001684D01*
X036696Y001742D01*
X036732Y001797D01*
X036771Y001849D01*
X036813Y001900D01*
X036858Y001948D01*
X036905Y001993D01*
X036956Y002034D01*
X037009Y002073D01*
X037064Y002109D01*
X037121Y002141D01*
X037180Y002170D01*
X037240Y002195D01*
X037302Y002217D01*
X037304Y002210D01*
X037243Y002189D01*
X037182Y002164D01*
X037124Y002135D01*
X037067Y002103D01*
X037012Y002068D01*
X036960Y002029D01*
X036910Y001987D01*
X036863Y001943D01*
X036818Y001895D01*
X036776Y001845D01*
X036738Y001793D01*
X036702Y001738D01*
X036670Y001681D01*
X036642Y001623D01*
X036617Y001562D01*
X036596Y001501D01*
X036578Y001438D01*
X036565Y001375D01*
X036555Y001310D01*
X036549Y001245D01*
X036547Y001180D01*
X036549Y001115D01*
X036555Y001050D01*
X036565Y000986D01*
X036578Y000922D01*
X036596Y000859D01*
X036617Y000798D01*
X036642Y000738D01*
X036670Y000679D01*
X036702Y000622D01*
X036738Y000568D01*
X036776Y000515D01*
X036782Y000520D01*
X036743Y000572D01*
X036708Y000626D01*
X036676Y000682D01*
X036648Y000741D01*
X036623Y000800D01*
X036602Y000862D01*
X036585Y000924D01*
X036571Y000987D01*
X036562Y001051D01*
X036556Y001116D01*
X036554Y001180D01*
X036556Y001245D01*
X036562Y001309D01*
X036572Y001373D01*
X036585Y001437D01*
X036603Y001499D01*
X036624Y001560D01*
X036648Y001620D01*
X036677Y001678D01*
X036708Y001734D01*
X036744Y001789D01*
X036782Y001841D01*
X036823Y001891D01*
X036868Y001938D01*
X036915Y001982D01*
X036964Y002023D01*
X037016Y002062D01*
X037071Y002097D01*
X037127Y002129D01*
X037185Y002157D01*
X037245Y002182D01*
X037306Y002203D01*
X037308Y002196D01*
X037247Y002175D01*
X037188Y002151D01*
X037130Y002123D01*
X037074Y002091D01*
X037020Y002056D01*
X036969Y002018D01*
X036919Y001977D01*
X036873Y001933D01*
X036829Y001886D01*
X036787Y001836D01*
X036749Y001785D01*
X036714Y001731D01*
X036683Y001675D01*
X036655Y001617D01*
X036630Y001558D01*
X036609Y001497D01*
X036592Y001435D01*
X036578Y001372D01*
X036569Y001308D01*
X036563Y001244D01*
X036561Y001180D01*
X036563Y001116D01*
X036569Y001052D01*
X036578Y000988D01*
X036592Y000926D01*
X036609Y000864D01*
X036630Y000803D01*
X036655Y000743D01*
X036683Y000686D01*
X036714Y000630D01*
X036749Y000576D01*
X036787Y000524D01*
X036793Y000528D01*
X036755Y000580D01*
X036720Y000633D01*
X036689Y000689D01*
X036661Y000746D01*
X036637Y000805D01*
X036616Y000866D01*
X036599Y000927D01*
X036585Y000990D01*
X036576Y001053D01*
X036570Y001116D01*
X036568Y001180D01*
X036570Y001244D01*
X036576Y001308D01*
X036585Y001371D01*
X036599Y001433D01*
X036616Y001495D01*
X036637Y001555D01*
X036661Y001614D01*
X036689Y001671D01*
X036720Y001727D01*
X036755Y001781D01*
X036793Y001832D01*
X036834Y001881D01*
X036877Y001928D01*
X036924Y001972D01*
X036973Y002012D01*
X037024Y002050D01*
X037078Y002085D01*
X037134Y002116D01*
X037191Y002144D01*
X037250Y002169D01*
X037310Y002190D01*
X037312Y002183D01*
X037252Y002162D01*
X037194Y002138D01*
X037137Y002110D01*
X037082Y002079D01*
X037028Y002045D01*
X036977Y002007D01*
X036929Y001966D01*
X036882Y001923D01*
X036839Y001877D01*
X036798Y001828D01*
X036761Y001777D01*
X036726Y001723D01*
X036695Y001668D01*
X036668Y001611D01*
X036643Y001553D01*
X036623Y001493D01*
X036606Y001432D01*
X036592Y001369D01*
X036583Y001307D01*
X036577Y001244D01*
X036575Y001180D01*
X036577Y001117D01*
X036583Y001054D01*
X036592Y000991D01*
X036605Y000929D01*
X036622Y000868D01*
X036643Y000808D01*
X036667Y000749D01*
X036695Y000692D01*
X036726Y000637D01*
X036761Y000584D01*
X036798Y000533D01*
X036804Y000537D01*
X036766Y000588D01*
X036732Y000641D01*
X036701Y000695D01*
X036674Y000752D01*
X036650Y000810D01*
X036629Y000870D01*
X036612Y000931D01*
X036599Y000992D01*
X036590Y001055D01*
X036584Y001117D01*
X036582Y001180D01*
X036584Y001243D01*
X036590Y001306D01*
X036599Y001368D01*
X036612Y001430D01*
X036629Y001491D01*
X036650Y001550D01*
X036674Y001608D01*
X036701Y001665D01*
X036732Y001720D01*
X036767Y001773D01*
X036804Y001824D01*
X036844Y001872D01*
X036887Y001918D01*
X036933Y001961D01*
X036982Y002001D01*
X037032Y002039D01*
X037085Y002073D01*
X037140Y002104D01*
X037197Y002132D01*
X037255Y002156D01*
X037314Y002176D01*
X037316Y002170D01*
X037257Y002149D01*
X037200Y002125D01*
X037143Y002098D01*
X037089Y002067D01*
X037036Y002033D01*
X036986Y001996D01*
X036938Y001956D01*
X036892Y001913D01*
X036849Y001867D01*
X036809Y001819D01*
X036772Y001769D01*
X036738Y001716D01*
X036708Y001662D01*
X036680Y001605D01*
X036656Y001548D01*
X036636Y001488D01*
X036619Y001428D01*
X036606Y001367D01*
X036597Y001305D01*
X036591Y001243D01*
X036589Y001180D01*
X036591Y001118D01*
X036597Y001055D01*
X036606Y000994D01*
X036619Y000932D01*
X036636Y000872D01*
X036656Y000813D01*
X036680Y000755D01*
X036707Y000699D01*
X036738Y000644D01*
X036772Y000592D01*
X036809Y000541D01*
X036815Y000546D01*
X036778Y000596D01*
X036744Y000648D01*
X036714Y000702D01*
X036686Y000758D01*
X036663Y000815D01*
X036642Y000874D01*
X036626Y000934D01*
X036613Y000995D01*
X036603Y001056D01*
X036598Y001118D01*
X036596Y001180D01*
X036598Y001242D01*
X036604Y001304D01*
X036613Y001366D01*
X036626Y001426D01*
X036643Y001486D01*
X036663Y001545D01*
X036687Y001603D01*
X036714Y001658D01*
X036744Y001713D01*
X036778Y001765D01*
X036815Y001815D01*
X036855Y001863D01*
X036897Y001908D01*
X036942Y001951D01*
X036990Y001990D01*
X037040Y002027D01*
X037092Y002061D01*
X037147Y002092D01*
X037202Y002119D01*
X037260Y002143D01*
X037319Y002163D01*
X037321Y002156D01*
X037262Y002136D01*
X037205Y002112D01*
X037150Y002085D01*
X037096Y002055D01*
X037044Y002021D01*
X036995Y001985D01*
X036947Y001945D01*
X036902Y001903D01*
X036860Y001858D01*
X036820Y001811D01*
X036784Y001761D01*
X036750Y001709D01*
X036720Y001655D01*
X036693Y001600D01*
X036669Y001543D01*
X036649Y001484D01*
X036633Y001425D01*
X036620Y001364D01*
X036610Y001303D01*
X036605Y001242D01*
X036603Y001180D01*
X036605Y001119D01*
X036610Y001057D01*
X036620Y000996D01*
X036633Y000936D01*
X036649Y000876D01*
X036669Y000818D01*
X036693Y000761D01*
X036720Y000705D01*
X036750Y000651D01*
X036784Y000600D01*
X036820Y000550D01*
X036826Y000554D01*
X036789Y000604D01*
X036756Y000655D01*
X036726Y000709D01*
X036699Y000764D01*
X036676Y000820D01*
X036656Y000878D01*
X036639Y000937D01*
X036627Y000997D01*
X036617Y001058D01*
X036612Y001119D01*
X036610Y001180D01*
X036612Y001242D01*
X036617Y001303D01*
X036627Y001363D01*
X036640Y001423D01*
X036656Y001482D01*
X036676Y001540D01*
X036699Y001597D01*
X036726Y001652D01*
X036756Y001705D01*
X036790Y001757D01*
X036826Y001806D01*
X036865Y001853D01*
X036907Y001898D01*
X036952Y001940D01*
X036999Y001979D01*
X037048Y002016D01*
X037100Y002049D01*
X037153Y002079D01*
X037208Y002106D01*
X037265Y002130D01*
X037323Y002150D01*
X038481Y000511D02*
X038424Y000556D01*
X038425Y000555D02*
X038461Y000605D01*
X038494Y000656D01*
X038524Y000709D01*
X038551Y000765D01*
X038574Y000821D01*
X038594Y000879D01*
X038611Y000938D01*
X038623Y000998D01*
X038633Y001058D01*
X038638Y001119D01*
X038640Y001180D01*
X038638Y001241D01*
X038633Y001302D01*
X038623Y001363D01*
X038611Y001423D01*
X038594Y001482D01*
X038574Y001539D01*
X038551Y001596D01*
X038524Y001651D01*
X038494Y001704D01*
X038461Y001756D01*
X038425Y001805D01*
X038385Y001852D01*
X038343Y001897D01*
X038299Y001939D01*
X038252Y001978D01*
X038203Y002014D01*
X038151Y002047D01*
X038098Y002077D01*
X038043Y002104D01*
X037987Y002128D01*
X037929Y002148D01*
X037950Y002216D01*
X037950Y002217D01*
X038012Y002195D01*
X038072Y002170D01*
X038131Y002141D01*
X038188Y002109D01*
X038243Y002073D01*
X038296Y002034D01*
X038347Y001992D01*
X038394Y001948D01*
X038439Y001900D01*
X038481Y001849D01*
X038520Y001797D01*
X038556Y001742D01*
X038588Y001684D01*
X038616Y001626D01*
X038641Y001565D01*
X038663Y001503D01*
X038680Y001440D01*
X038694Y001376D01*
X038704Y001311D01*
X038710Y001246D01*
X038712Y001180D01*
X038710Y001115D01*
X038704Y001049D01*
X038694Y000985D01*
X038681Y000920D01*
X038663Y000857D01*
X038642Y000795D01*
X038617Y000735D01*
X038588Y000676D01*
X038556Y000619D01*
X038520Y000564D01*
X038481Y000511D01*
X038476Y000515D01*
X038514Y000568D01*
X038550Y000622D01*
X038582Y000679D01*
X038610Y000738D01*
X038635Y000798D01*
X038656Y000859D01*
X038674Y000922D01*
X038687Y000986D01*
X038697Y001050D01*
X038703Y001115D01*
X038705Y001180D01*
X038703Y001245D01*
X038697Y001310D01*
X038687Y001375D01*
X038674Y001438D01*
X038656Y001501D01*
X038635Y001562D01*
X038610Y001623D01*
X038582Y001681D01*
X038550Y001738D01*
X038514Y001793D01*
X038476Y001845D01*
X038434Y001895D01*
X038389Y001943D01*
X038342Y001987D01*
X038292Y002029D01*
X038240Y002068D01*
X038185Y002103D01*
X038128Y002135D01*
X038070Y002164D01*
X038009Y002189D01*
X037948Y002210D01*
X037946Y002203D01*
X038007Y002182D01*
X038067Y002157D01*
X038125Y002129D01*
X038181Y002097D01*
X038236Y002062D01*
X038288Y002023D01*
X038337Y001982D01*
X038384Y001938D01*
X038429Y001891D01*
X038470Y001841D01*
X038508Y001789D01*
X038544Y001734D01*
X038575Y001678D01*
X038604Y001620D01*
X038628Y001560D01*
X038649Y001499D01*
X038667Y001437D01*
X038680Y001373D01*
X038690Y001309D01*
X038696Y001245D01*
X038698Y001180D01*
X038696Y001116D01*
X038690Y001051D01*
X038681Y000987D01*
X038667Y000924D01*
X038650Y000862D01*
X038629Y000800D01*
X038604Y000741D01*
X038576Y000682D01*
X038544Y000626D01*
X038509Y000572D01*
X038470Y000520D01*
X038465Y000524D01*
X038503Y000576D01*
X038538Y000630D01*
X038569Y000686D01*
X038597Y000743D01*
X038622Y000803D01*
X038643Y000864D01*
X038660Y000926D01*
X038674Y000988D01*
X038683Y001052D01*
X038689Y001116D01*
X038691Y001180D01*
X038689Y001244D01*
X038683Y001308D01*
X038674Y001372D01*
X038660Y001435D01*
X038643Y001497D01*
X038622Y001558D01*
X038597Y001617D01*
X038569Y001675D01*
X038538Y001731D01*
X038503Y001785D01*
X038465Y001836D01*
X038423Y001886D01*
X038379Y001933D01*
X038333Y001977D01*
X038283Y002018D01*
X038232Y002056D01*
X038178Y002091D01*
X038122Y002123D01*
X038064Y002151D01*
X038005Y002175D01*
X037944Y002196D01*
X037942Y002190D01*
X038002Y002169D01*
X038061Y002144D01*
X038118Y002116D01*
X038174Y002085D01*
X038228Y002050D01*
X038279Y002012D01*
X038328Y001972D01*
X038375Y001928D01*
X038418Y001881D01*
X038459Y001832D01*
X038497Y001781D01*
X038532Y001727D01*
X038563Y001671D01*
X038591Y001614D01*
X038615Y001555D01*
X038636Y001495D01*
X038653Y001433D01*
X038667Y001371D01*
X038676Y001308D01*
X038682Y001244D01*
X038684Y001180D01*
X038682Y001116D01*
X038676Y001053D01*
X038667Y000990D01*
X038653Y000927D01*
X038636Y000866D01*
X038615Y000805D01*
X038591Y000746D01*
X038563Y000689D01*
X038532Y000633D01*
X038497Y000580D01*
X038459Y000528D01*
X038454Y000533D01*
X038491Y000584D01*
X038526Y000637D01*
X038557Y000692D01*
X038585Y000749D01*
X038609Y000808D01*
X038630Y000868D01*
X038647Y000929D01*
X038660Y000991D01*
X038669Y001054D01*
X038675Y001117D01*
X038677Y001180D01*
X038675Y001244D01*
X038669Y001307D01*
X038660Y001369D01*
X038646Y001431D01*
X038629Y001493D01*
X038609Y001553D01*
X038584Y001611D01*
X038557Y001668D01*
X038526Y001723D01*
X038491Y001777D01*
X038454Y001828D01*
X038413Y001877D01*
X038370Y001923D01*
X038323Y001966D01*
X038275Y002007D01*
X038224Y002045D01*
X038170Y002079D01*
X038115Y002110D01*
X038058Y002138D01*
X038000Y002162D01*
X037940Y002183D01*
X037938Y002176D01*
X037997Y002156D01*
X038055Y002132D01*
X038112Y002104D01*
X038167Y002073D01*
X038220Y002039D01*
X038270Y002001D01*
X038319Y001961D01*
X038365Y001918D01*
X038408Y001872D01*
X038448Y001823D01*
X038485Y001773D01*
X038520Y001720D01*
X038551Y001665D01*
X038578Y001608D01*
X038602Y001550D01*
X038623Y001491D01*
X038640Y001430D01*
X038653Y001368D01*
X038662Y001306D01*
X038668Y001243D01*
X038670Y001180D01*
X038668Y001117D01*
X038662Y001055D01*
X038653Y000992D01*
X038640Y000931D01*
X038623Y000870D01*
X038602Y000810D01*
X038578Y000752D01*
X038551Y000695D01*
X038520Y000641D01*
X038486Y000588D01*
X038448Y000537D01*
X038443Y000541D01*
X038480Y000592D01*
X038514Y000644D01*
X038545Y000699D01*
X038572Y000755D01*
X038596Y000813D01*
X038616Y000872D01*
X038633Y000932D01*
X038646Y000993D01*
X038655Y001055D01*
X038661Y001118D01*
X038663Y001180D01*
X038661Y001243D01*
X038655Y001305D01*
X038646Y001367D01*
X038633Y001428D01*
X038616Y001488D01*
X038596Y001548D01*
X038572Y001605D01*
X038544Y001662D01*
X038514Y001716D01*
X038480Y001769D01*
X038443Y001819D01*
X038403Y001867D01*
X038360Y001913D01*
X038314Y001956D01*
X038266Y001996D01*
X038216Y002033D01*
X038163Y002067D01*
X038109Y002098D01*
X038052Y002125D01*
X037995Y002149D01*
X037936Y002170D01*
X037933Y002163D01*
X037992Y002143D01*
X038050Y002119D01*
X038105Y002092D01*
X038160Y002061D01*
X038212Y002027D01*
X038262Y001990D01*
X038310Y001951D01*
X038355Y001908D01*
X038397Y001863D01*
X038437Y001815D01*
X038474Y001765D01*
X038508Y001713D01*
X038538Y001658D01*
X038565Y001603D01*
X038589Y001545D01*
X038609Y001486D01*
X038626Y001426D01*
X038639Y001366D01*
X038648Y001304D01*
X038654Y001242D01*
X038656Y001180D01*
X038654Y001118D01*
X038649Y001056D01*
X038639Y000995D01*
X038626Y000934D01*
X038610Y000874D01*
X038589Y000815D01*
X038566Y000758D01*
X038538Y000702D01*
X038508Y000648D01*
X038474Y000596D01*
X038437Y000546D01*
X038432Y000550D01*
X038468Y000600D01*
X038502Y000651D01*
X038532Y000705D01*
X038559Y000761D01*
X038583Y000818D01*
X038603Y000876D01*
X038619Y000936D01*
X038632Y000996D01*
X038642Y001057D01*
X038647Y001119D01*
X038649Y001180D01*
X038647Y001242D01*
X038642Y001303D01*
X038632Y001364D01*
X038619Y001425D01*
X038603Y001484D01*
X038583Y001543D01*
X038559Y001600D01*
X038532Y001655D01*
X038502Y001709D01*
X038468Y001761D01*
X038432Y001811D01*
X038392Y001858D01*
X038350Y001903D01*
X038305Y001945D01*
X038257Y001985D01*
X038208Y002021D01*
X038156Y002055D01*
X038102Y002085D01*
X038047Y002112D01*
X037990Y002136D01*
X037931Y002156D01*
X037929Y002150D01*
X037987Y002130D01*
X038044Y002106D01*
X038099Y002079D01*
X038152Y002049D01*
X038204Y002016D01*
X038253Y001979D01*
X038300Y001940D01*
X038345Y001898D01*
X038387Y001853D01*
X038426Y001806D01*
X038462Y001757D01*
X038496Y001705D01*
X038526Y001652D01*
X038553Y001597D01*
X038576Y001540D01*
X038596Y001482D01*
X038612Y001423D01*
X038625Y001363D01*
X038635Y001303D01*
X038640Y001242D01*
X038642Y001180D01*
X038640Y001119D01*
X038635Y001058D01*
X038625Y000997D01*
X038613Y000937D01*
X038596Y000878D01*
X038576Y000820D01*
X038553Y000764D01*
X038526Y000709D01*
X038496Y000655D01*
X038463Y000604D01*
X038426Y000554D01*
D20*
X008176Y002180D03*
D21*
X008801Y002180D03*
X006451Y002180D03*
D22*
X017276Y015480D02*
X019976Y015480D01*
X020027Y015482D01*
X020078Y015487D01*
X020128Y015497D01*
X020178Y015510D01*
X020226Y015526D01*
X020273Y015546D01*
X020319Y015570D01*
X020362Y015596D01*
X020404Y015626D01*
X020443Y015659D01*
X020480Y015694D01*
X020514Y015732D01*
X020545Y015773D01*
X020574Y015815D01*
X020599Y015860D01*
X020620Y015906D01*
X020639Y015954D01*
X020653Y016003D01*
X020664Y016053D01*
X020672Y016103D01*
X020676Y016154D01*
X020676Y016206D01*
X020672Y016257D01*
X020664Y016307D01*
X020653Y016357D01*
X020639Y016406D01*
X020620Y016454D01*
X020599Y016500D01*
X020574Y016545D01*
X020545Y016587D01*
X020514Y016628D01*
X020480Y016666D01*
X020443Y016701D01*
X020404Y016734D01*
X020362Y016764D01*
X020319Y016790D01*
X020273Y016814D01*
X020226Y016834D01*
X020178Y016850D01*
X020128Y016863D01*
X020078Y016873D01*
X020027Y016878D01*
X019976Y016880D01*
X017276Y016880D01*
X017225Y016878D01*
X017174Y016873D01*
X017124Y016863D01*
X017074Y016850D01*
X017026Y016834D01*
X016979Y016814D01*
X016933Y016790D01*
X016890Y016764D01*
X016848Y016734D01*
X016809Y016701D01*
X016772Y016666D01*
X016738Y016628D01*
X016707Y016587D01*
X016678Y016545D01*
X016653Y016500D01*
X016632Y016454D01*
X016613Y016406D01*
X016599Y016357D01*
X016588Y016307D01*
X016580Y016257D01*
X016576Y016206D01*
X016576Y016154D01*
X016580Y016103D01*
X016588Y016053D01*
X016599Y016003D01*
X016613Y015954D01*
X016632Y015906D01*
X016653Y015860D01*
X016678Y015815D01*
X016707Y015773D01*
X016738Y015732D01*
X016772Y015694D01*
X016809Y015659D01*
X016848Y015626D01*
X016890Y015596D01*
X016933Y015570D01*
X016979Y015546D01*
X017026Y015526D01*
X017074Y015510D01*
X017124Y015497D01*
X017174Y015487D01*
X017225Y015482D01*
X017276Y015480D01*
M02*
