G75*
%MOIN*%
%OFA0B0*%
%FSLAX24Y24*%
%IPPOS*%
%LPD*%
%AMOC8*
5,1,8,0,0,1.08239X$1,22.5*
%
%ADD10C,0.0640*%
%ADD11R,0.0820X0.0820*%
%ADD12C,0.0820*%
%ADD13C,0.0680*%
%ADD14R,0.0730X0.0730*%
%ADD15C,0.0730*%
%ADD16C,0.0050*%
%ADD17OC8,0.0820*%
%ADD18OC8,0.0640*%
%ADD19C,0.0760*%
%ADD20C,0.0560*%
%ADD21C,0.0316*%
%ADD22C,0.1182*%
%ADD23C,0.1780*%
D10*
X015626Y010900D02*
X015626Y011460D01*
X016626Y011460D02*
X016626Y010900D01*
X017626Y010900D02*
X017626Y011460D01*
X018626Y011460D02*
X018626Y010900D01*
X019626Y010900D02*
X019626Y011460D01*
X020626Y011460D02*
X020626Y010900D01*
X021626Y010900D02*
X021626Y011460D01*
X022626Y011460D02*
X022626Y010900D01*
X023626Y010900D02*
X023626Y011460D01*
X024626Y011460D02*
X024626Y010900D01*
X025626Y010900D02*
X025626Y011460D01*
X026626Y011460D02*
X026626Y010900D01*
X027626Y010900D02*
X027626Y011460D01*
X028626Y011460D02*
X028626Y010900D01*
X028626Y013900D02*
X028626Y014460D01*
X027626Y014460D02*
X027626Y013900D01*
X026626Y013900D02*
X026626Y014460D01*
X025626Y014460D02*
X025626Y013900D01*
X024626Y013900D02*
X024626Y014460D01*
X023626Y014460D02*
X023626Y013900D01*
X022626Y013900D02*
X022626Y014460D01*
X021626Y014460D02*
X021626Y013900D01*
X020626Y013900D02*
X020626Y014460D01*
X019626Y014460D02*
X019626Y013900D01*
X018626Y013900D02*
X018626Y014460D01*
X017626Y014460D02*
X017626Y013900D01*
X016626Y013900D02*
X016626Y014460D01*
X015626Y014460D02*
X015626Y013900D01*
X015906Y022180D02*
X015346Y022180D01*
X015346Y023180D02*
X015906Y023180D01*
X015906Y024180D02*
X015346Y024180D01*
X015346Y025180D02*
X015906Y025180D01*
X015906Y026180D02*
X015346Y026180D01*
X015346Y027180D02*
X015906Y027180D01*
X015906Y028180D02*
X015346Y028180D01*
X012906Y028180D02*
X012346Y028180D01*
X012346Y027180D02*
X012906Y027180D01*
X012906Y026180D02*
X012346Y026180D01*
X012346Y025180D02*
X012906Y025180D01*
X012906Y024180D02*
X012346Y024180D01*
X012346Y023180D02*
X012906Y023180D01*
X012906Y022180D02*
X012346Y022180D01*
X009906Y022180D02*
X009346Y022180D01*
X009346Y023180D02*
X009906Y023180D01*
X009906Y024180D02*
X009346Y024180D01*
X009346Y025180D02*
X009906Y025180D01*
X009906Y026180D02*
X009346Y026180D01*
X009346Y027180D02*
X009906Y027180D01*
X009906Y028180D02*
X009346Y028180D01*
X006906Y028180D02*
X006346Y028180D01*
X006346Y027180D02*
X006906Y027180D01*
X006906Y026180D02*
X006346Y026180D01*
X006346Y025180D02*
X006906Y025180D01*
X006906Y024180D02*
X006346Y024180D01*
X006346Y023180D02*
X006906Y023180D01*
X006906Y022180D02*
X006346Y022180D01*
X018346Y022180D02*
X018906Y022180D01*
X018906Y023180D02*
X018346Y023180D01*
X018346Y024180D02*
X018906Y024180D01*
X018906Y025180D02*
X018346Y025180D01*
X018346Y026180D02*
X018906Y026180D01*
X018906Y027180D02*
X018346Y027180D01*
X018346Y028180D02*
X018906Y028180D01*
X021346Y028180D02*
X021906Y028180D01*
X021906Y027180D02*
X021346Y027180D01*
X021346Y026180D02*
X021906Y026180D01*
X021906Y025180D02*
X021346Y025180D01*
X021346Y024180D02*
X021906Y024180D01*
X021906Y023180D02*
X021346Y023180D01*
X021346Y022180D02*
X021906Y022180D01*
X024346Y022180D02*
X024906Y022180D01*
X024906Y023180D02*
X024346Y023180D01*
X024346Y024180D02*
X024906Y024180D01*
X024906Y025180D02*
X024346Y025180D01*
X024346Y026180D02*
X024906Y026180D01*
X024906Y027180D02*
X024346Y027180D01*
X024346Y028180D02*
X024906Y028180D01*
X027346Y028180D02*
X027906Y028180D01*
X027906Y027180D02*
X027346Y027180D01*
X027346Y026180D02*
X027906Y026180D01*
X027906Y025180D02*
X027346Y025180D01*
X027346Y024180D02*
X027906Y024180D01*
X027906Y023180D02*
X027346Y023180D01*
X027346Y022180D02*
X027906Y022180D01*
D11*
X012626Y003180D03*
X040626Y001180D03*
D12*
X040626Y002180D03*
X040626Y003180D03*
X040626Y004180D03*
X038626Y003180D03*
X037626Y003180D03*
X036626Y003180D03*
X036626Y005180D03*
X037626Y005180D03*
X038626Y005180D03*
X038626Y007180D03*
X037626Y007180D03*
X036626Y007180D03*
X034626Y006180D03*
X034626Y004180D03*
X034626Y002180D03*
X036626Y001180D03*
X037626Y001180D03*
X038626Y001180D03*
X030626Y002180D03*
X030626Y004180D03*
X030626Y006180D03*
X030626Y008180D03*
X034626Y008180D03*
X036626Y010180D03*
X037626Y010180D03*
X039736Y010900D03*
X041516Y010900D03*
X041516Y013460D03*
X039736Y013460D03*
X037626Y013180D03*
X036626Y013180D03*
X021516Y003960D03*
X019736Y003960D03*
X019736Y001400D03*
X021516Y001400D03*
X012626Y004180D03*
X012626Y005180D03*
X009626Y005180D03*
X009626Y006180D03*
X010626Y009180D03*
X014626Y009180D03*
X005626Y007180D03*
X005626Y006180D03*
X005626Y005180D03*
D13*
X012326Y013180D02*
X012926Y013180D01*
X012926Y014180D02*
X012326Y014180D01*
D14*
X015626Y008180D03*
X016626Y003180D03*
D15*
X016626Y005180D03*
X016626Y008180D03*
D16*
X021403Y009136D02*
X021398Y009174D01*
X021401Y009214D01*
X021413Y009252D01*
X021434Y009287D01*
X021462Y009316D01*
X021495Y009338D01*
X021533Y009352D01*
X021573Y009358D01*
X021612Y009353D01*
X021649Y009339D01*
X021682Y009317D01*
X021710Y009289D01*
X021730Y009255D01*
X021743Y009217D01*
X021747Y009178D01*
X021742Y009140D01*
X021729Y009103D01*
X021708Y009071D01*
X021680Y009044D01*
X021648Y009023D01*
X021611Y009011D01*
X021573Y009007D01*
X021572Y009007D01*
X021573Y009007D02*
X021534Y009010D01*
X021498Y009022D01*
X021465Y009042D01*
X021437Y009068D01*
X021416Y009100D01*
X021403Y009136D01*
X021401Y009153D02*
X021743Y009153D01*
X021744Y009201D02*
X021400Y009201D01*
X021413Y009250D02*
X021732Y009250D01*
X021701Y009298D02*
X021445Y009298D01*
X021517Y009347D02*
X021629Y009347D01*
X021729Y009104D02*
X021415Y009104D01*
X021451Y009056D02*
X021693Y009056D01*
X022500Y009174D02*
X022503Y009214D01*
X022515Y009252D01*
X022536Y009287D01*
X022564Y009316D01*
X022597Y009338D01*
X022635Y009352D01*
X022675Y009358D01*
X022714Y009353D01*
X022751Y009339D01*
X022784Y009317D01*
X022812Y009289D01*
X022832Y009255D01*
X022845Y009217D01*
X022849Y009178D01*
X022844Y009140D01*
X022831Y009103D01*
X022810Y009071D01*
X022782Y009044D01*
X022750Y009023D01*
X022713Y009011D01*
X022675Y009007D01*
X022674Y009007D01*
X022675Y009007D02*
X022636Y009010D01*
X022600Y009022D01*
X022567Y009042D01*
X022539Y009068D01*
X022518Y009100D01*
X022505Y009136D01*
X022500Y009174D01*
X022503Y009153D02*
X022845Y009153D01*
X022846Y009201D02*
X022502Y009201D01*
X022515Y009250D02*
X022834Y009250D01*
X022803Y009298D02*
X022547Y009298D01*
X022619Y009347D02*
X022731Y009347D01*
X022831Y009104D02*
X022517Y009104D01*
X022553Y009056D02*
X022795Y009056D01*
X022679Y016002D02*
X022639Y016007D01*
X022602Y016021D01*
X022569Y016043D01*
X022541Y016071D01*
X022521Y016105D01*
X022508Y016143D01*
X022505Y016182D01*
X022509Y016220D01*
X022522Y016257D01*
X022543Y016289D01*
X022571Y016316D01*
X022604Y016337D01*
X022640Y016349D01*
X022679Y016353D01*
X022717Y016350D01*
X022753Y016338D01*
X022786Y016318D01*
X022814Y016292D01*
X022835Y016260D01*
X022848Y016224D01*
X022854Y016186D01*
X022850Y016146D01*
X022838Y016108D01*
X022817Y016073D01*
X022790Y016044D01*
X022756Y016022D01*
X022718Y016008D01*
X022679Y016002D01*
X022783Y016040D02*
X022573Y016040D01*
X022531Y016088D02*
X022826Y016088D01*
X022847Y016137D02*
X022510Y016137D01*
X022505Y016185D02*
X022854Y016185D01*
X022845Y016234D02*
X022514Y016234D01*
X022539Y016282D02*
X022820Y016282D01*
X022765Y016331D02*
X022594Y016331D01*
X021746Y016224D02*
X021752Y016186D01*
X021748Y016146D01*
X021736Y016108D01*
X021715Y016073D01*
X021688Y016044D01*
X021654Y016022D01*
X021616Y016008D01*
X021577Y016002D01*
X021537Y016007D01*
X021500Y016021D01*
X021467Y016043D01*
X021439Y016071D01*
X021419Y016105D01*
X021406Y016143D01*
X021403Y016182D01*
X021407Y016220D01*
X021420Y016257D01*
X021441Y016289D01*
X021469Y016316D01*
X021502Y016337D01*
X021538Y016349D01*
X021577Y016353D01*
X021615Y016350D01*
X021651Y016338D01*
X021684Y016318D01*
X021712Y016292D01*
X021733Y016260D01*
X021746Y016224D01*
X021743Y016234D02*
X021412Y016234D01*
X021403Y016185D02*
X021751Y016185D01*
X021745Y016137D02*
X021408Y016137D01*
X021429Y016088D02*
X021724Y016088D01*
X021681Y016040D02*
X021471Y016040D01*
X021437Y016282D02*
X021718Y016282D01*
X021663Y016331D02*
X021492Y016331D01*
X023092Y021956D02*
X023053Y021968D01*
X023019Y021988D01*
X022990Y022016D01*
X022967Y022050D01*
X022953Y022087D01*
X022948Y022127D01*
X022953Y022166D01*
X022966Y022203D01*
X022988Y022237D01*
X023017Y022264D01*
X023051Y022285D01*
X023088Y022297D01*
X023128Y022301D01*
X023166Y022296D01*
X023202Y022283D01*
X023235Y022262D01*
X023262Y022235D01*
X023282Y022202D01*
X023295Y022165D01*
X023299Y022127D01*
X023295Y022089D01*
X023283Y022052D01*
X023264Y022020D01*
X023237Y021992D01*
X023205Y021971D01*
X023170Y021957D01*
X023132Y021952D01*
X023092Y021956D01*
X023088Y021957D02*
X023165Y021957D01*
X023250Y022005D02*
X023001Y022005D01*
X022966Y022054D02*
X023284Y022054D01*
X023296Y022102D02*
X022951Y022102D01*
X022951Y022151D02*
X023296Y022151D01*
X023283Y022199D02*
X022965Y022199D01*
X022999Y022248D02*
X023249Y022248D01*
X023167Y022296D02*
X023085Y022296D01*
X023132Y023054D02*
X023092Y023058D01*
X023053Y023070D01*
X023019Y023090D01*
X022990Y023118D01*
X022967Y023152D01*
X022953Y023189D01*
X022948Y023229D01*
X022953Y023268D01*
X022966Y023306D01*
X022988Y023339D01*
X023017Y023366D01*
X023051Y023387D01*
X023088Y023399D01*
X023128Y023403D01*
X023166Y023398D01*
X023202Y023385D01*
X023235Y023364D01*
X023262Y023337D01*
X023282Y023304D01*
X023295Y023267D01*
X023299Y023229D01*
X023295Y023191D01*
X023283Y023154D01*
X023264Y023122D01*
X023237Y023094D01*
X023205Y023073D01*
X023170Y023059D01*
X023132Y023054D01*
X023204Y023072D02*
X023049Y023072D01*
X022988Y023121D02*
X023263Y023121D01*
X023288Y023169D02*
X022961Y023169D01*
X022949Y023218D02*
X023298Y023218D01*
X023295Y023266D02*
X022952Y023266D01*
X022972Y023315D02*
X023276Y023315D01*
X023236Y023363D02*
X023013Y023363D01*
X017299Y023229D02*
X017295Y023267D01*
X017282Y023304D01*
X017262Y023337D01*
X017235Y023364D01*
X017202Y023385D01*
X017166Y023398D01*
X017128Y023403D01*
X017088Y023399D01*
X017051Y023387D01*
X017017Y023366D01*
X016988Y023339D01*
X016966Y023306D01*
X016953Y023268D01*
X016948Y023229D01*
X016953Y023189D01*
X016967Y023152D01*
X016990Y023118D01*
X017019Y023090D01*
X017053Y023070D01*
X017092Y023058D01*
X017132Y023054D01*
X017170Y023059D01*
X017205Y023073D01*
X017237Y023094D01*
X017264Y023122D01*
X017283Y023154D01*
X017295Y023191D01*
X017299Y023229D01*
X017298Y023218D02*
X016949Y023218D01*
X016952Y023266D02*
X017295Y023266D01*
X017276Y023315D02*
X016972Y023315D01*
X017013Y023363D02*
X017236Y023363D01*
X017288Y023169D02*
X016961Y023169D01*
X016988Y023121D02*
X017263Y023121D01*
X017204Y023072D02*
X017049Y023072D01*
X017088Y022297D02*
X017128Y022301D01*
X017166Y022296D01*
X017202Y022283D01*
X017235Y022262D01*
X017262Y022235D01*
X017282Y022202D01*
X017295Y022165D01*
X017299Y022127D01*
X017295Y022089D01*
X017283Y022052D01*
X017264Y022020D01*
X017237Y021992D01*
X017205Y021971D01*
X017170Y021957D01*
X017132Y021952D01*
X017092Y021956D01*
X017053Y021968D01*
X017019Y021988D01*
X016990Y022016D01*
X016967Y022050D01*
X016953Y022087D01*
X016948Y022127D01*
X016953Y022166D01*
X016966Y022203D01*
X016988Y022237D01*
X017017Y022264D01*
X017051Y022285D01*
X017088Y022297D01*
X017085Y022296D02*
X017167Y022296D01*
X017249Y022248D02*
X016999Y022248D01*
X016965Y022199D02*
X017283Y022199D01*
X017296Y022151D02*
X016951Y022151D01*
X016951Y022102D02*
X017296Y022102D01*
X017284Y022054D02*
X016966Y022054D01*
X017001Y022005D02*
X017250Y022005D01*
X017165Y021957D02*
X017088Y021957D01*
X011299Y022127D02*
X011295Y022165D01*
X011282Y022202D01*
X011262Y022235D01*
X011235Y022262D01*
X011202Y022283D01*
X011166Y022296D01*
X011128Y022301D01*
X011088Y022297D01*
X011051Y022285D01*
X011017Y022264D01*
X010988Y022237D01*
X010966Y022203D01*
X010953Y022166D01*
X010948Y022127D01*
X010953Y022087D01*
X010967Y022050D01*
X010990Y022016D01*
X011019Y021988D01*
X011053Y021968D01*
X011092Y021956D01*
X011132Y021952D01*
X011170Y021957D01*
X011205Y021971D01*
X011237Y021992D01*
X011264Y022020D01*
X011283Y022052D01*
X011295Y022089D01*
X011299Y022127D01*
X011296Y022151D02*
X010951Y022151D01*
X010951Y022102D02*
X011296Y022102D01*
X011284Y022054D02*
X010966Y022054D01*
X011001Y022005D02*
X011250Y022005D01*
X011165Y021957D02*
X011088Y021957D01*
X010965Y022199D02*
X011283Y022199D01*
X011249Y022248D02*
X010999Y022248D01*
X011085Y022296D02*
X011167Y022296D01*
X011132Y023054D02*
X011092Y023058D01*
X011053Y023070D01*
X011019Y023090D01*
X010990Y023118D01*
X010967Y023152D01*
X010953Y023189D01*
X010948Y023229D01*
X010953Y023268D01*
X010966Y023306D01*
X010988Y023339D01*
X011017Y023366D01*
X011051Y023387D01*
X011088Y023399D01*
X011128Y023403D01*
X011166Y023398D01*
X011202Y023385D01*
X011235Y023364D01*
X011262Y023337D01*
X011282Y023304D01*
X011295Y023267D01*
X011299Y023229D01*
X011295Y023191D01*
X011283Y023154D01*
X011264Y023122D01*
X011237Y023094D01*
X011205Y023073D01*
X011170Y023059D01*
X011132Y023054D01*
X011204Y023072D02*
X011049Y023072D01*
X010988Y023121D02*
X011263Y023121D01*
X011288Y023169D02*
X010961Y023169D01*
X010949Y023218D02*
X011298Y023218D01*
X011295Y023266D02*
X010952Y023266D01*
X010972Y023315D02*
X011276Y023315D01*
X011236Y023363D02*
X011013Y023363D01*
X005299Y023229D02*
X005295Y023267D01*
X005282Y023304D01*
X005262Y023337D01*
X005235Y023364D01*
X005202Y023385D01*
X005166Y023398D01*
X005128Y023403D01*
X005088Y023399D01*
X005051Y023387D01*
X005017Y023366D01*
X004988Y023339D01*
X004966Y023306D01*
X004953Y023268D01*
X004948Y023229D01*
X004953Y023189D01*
X004967Y023152D01*
X004990Y023118D01*
X005019Y023090D01*
X005053Y023070D01*
X005092Y023058D01*
X005132Y023054D01*
X005170Y023059D01*
X005205Y023073D01*
X005237Y023094D01*
X005264Y023122D01*
X005283Y023154D01*
X005295Y023191D01*
X005299Y023229D01*
X005298Y023218D02*
X004949Y023218D01*
X004952Y023266D02*
X005295Y023266D01*
X005276Y023315D02*
X004972Y023315D01*
X005013Y023363D02*
X005236Y023363D01*
X005288Y023169D02*
X004961Y023169D01*
X004988Y023121D02*
X005263Y023121D01*
X005204Y023072D02*
X005049Y023072D01*
X005128Y022301D02*
X005166Y022296D01*
X005202Y022283D01*
X005235Y022262D01*
X005262Y022235D01*
X005282Y022202D01*
X005295Y022165D01*
X005299Y022127D01*
X005295Y022089D01*
X005283Y022052D01*
X005264Y022020D01*
X005237Y021992D01*
X005205Y021971D01*
X005170Y021957D01*
X005132Y021952D01*
X005092Y021956D01*
X005053Y021968D01*
X005019Y021988D01*
X004990Y022016D01*
X004967Y022050D01*
X004953Y022087D01*
X004948Y022127D01*
X004953Y022166D01*
X004966Y022203D01*
X004988Y022237D01*
X005017Y022264D01*
X005051Y022285D01*
X005088Y022297D01*
X005128Y022301D01*
X005167Y022296D02*
X005085Y022296D01*
X004999Y022248D02*
X005249Y022248D01*
X005283Y022199D02*
X004965Y022199D01*
X004951Y022151D02*
X005296Y022151D01*
X005296Y022102D02*
X004951Y022102D01*
X004966Y022054D02*
X005284Y022054D01*
X005250Y022005D02*
X005001Y022005D01*
X005088Y021957D02*
X005165Y021957D01*
D17*
X023626Y003180D03*
X024626Y003180D03*
X025626Y003180D03*
X025626Y002180D03*
X024626Y002180D03*
X023626Y002180D03*
X035626Y021180D03*
X036626Y021180D03*
X036626Y022180D03*
X035626Y022180D03*
X035626Y023180D03*
X036626Y023180D03*
X036626Y024180D03*
X035626Y024180D03*
X035626Y025180D03*
X036626Y025180D03*
X036626Y026180D03*
X036626Y027180D03*
X035626Y027180D03*
X035626Y026180D03*
X035626Y028180D03*
X036626Y028180D03*
D18*
X037626Y028180D03*
X037626Y027180D03*
X037626Y026180D03*
X037626Y025180D03*
X037626Y024180D03*
X037626Y023180D03*
X037626Y022180D03*
X037626Y021180D03*
X034626Y021180D03*
X034626Y022180D03*
X034626Y023180D03*
X034626Y024180D03*
X034626Y025180D03*
X034626Y026180D03*
X034626Y027180D03*
X034626Y028180D03*
X030626Y028180D03*
X030626Y027180D03*
X030626Y026180D03*
X030626Y025180D03*
X030626Y024180D03*
X030626Y023180D03*
X030626Y022180D03*
X030626Y021180D03*
X030626Y013180D03*
X030626Y010180D03*
X034626Y010180D03*
X034626Y013180D03*
X041626Y021180D03*
X041626Y022180D03*
X041626Y023180D03*
X041626Y024180D03*
X041626Y025180D03*
X041626Y026180D03*
X041626Y027180D03*
X041626Y028180D03*
X024626Y008180D03*
X024626Y004180D03*
D19*
X005626Y002180D03*
X009626Y002180D03*
D20*
X017626Y015940D02*
X017626Y016420D01*
X019626Y016420D02*
X019626Y015940D01*
D21*
X019626Y018180D03*
X019626Y019180D03*
X017626Y019180D03*
X017626Y018180D03*
D22*
X005626Y019180D03*
X028126Y002180D03*
X040626Y017180D03*
D23*
X009519Y013180D03*
X008338Y011330D03*
X007157Y013180D03*
M02*
